<svg width="375" height="456" viewBox="0 0 375 456" fill="none" xmlns="http://www.w3.org/2000/svg">
<g opacity="0.7">
<path d="M0 0H375V456H0V0Z" fill="url(#paint0_linear_1_1048)"/>
<g filter="url(#filter0_f_1_1048)">
<path fill-rule="evenodd" clip-rule="evenodd" d="M339.11 46.8881C339.11 44.6967 340.991 42.9183 343.311 42.9183C345.634 42.9183 347.515 44.6967 347.515 46.8881C347.515 49.0811 345.634 50.8579 343.311 50.8579C340.991 50.8579 339.11 49.0811 339.11 46.8881Z" fill="#ECA532"/>
<path fill-rule="evenodd" clip-rule="evenodd" d="M251.111 39.9504C251.111 37.7574 252.992 35.9806 255.313 35.9806C257.635 35.9806 259.515 37.7574 259.515 39.9504C259.515 42.1418 257.635 43.9202 255.313 43.9202C252.992 43.9202 251.111 42.1418 251.111 39.9504Z" fill="#3079EC"/>
<path fill-rule="evenodd" clip-rule="evenodd" d="M282.139 47.3169C284.584 46.058 286.891 44.471 288.96 42.5149C291.926 39.7145 294.112 36.463 295.565 33.0005L304.421 41.3683C302.969 44.8278 300.766 48.0717 297.803 50.8691C295.735 52.8221 293.435 54.4228 290.993 55.6802L282.139 47.3169Z" fill="#BAD0F7"/>
<path fill-rule="evenodd" clip-rule="evenodd" d="M211.933 225.631C211.044 224.09 209.922 222.635 208.541 221.331C206.562 219.461 204.263 218.082 201.818 217.166L207.731 211.582C210.174 212.498 212.465 213.888 214.444 215.756C215.823 217.059 216.953 218.509 217.842 220.049L211.933 225.631Z" fill="#ECA532"/>
<path fill-rule="evenodd" clip-rule="evenodd" d="M106.573 69.6614C104.792 69.1648 102.91 68.8854 100.957 68.8854C98.1579 68.8854 95.5006 69.4457 93.0861 70.4314V62.5343C95.499 61.5487 98.1611 61.0005 100.957 61.0005C102.908 61.0005 104.792 61.2708 106.573 61.7659V69.6614Z" fill="#EC6632"/>
<path fill-rule="evenodd" clip-rule="evenodd" d="M360.999 113.755C359.216 113.258 357.335 112.979 355.382 112.979C352.584 112.979 349.926 113.539 347.51 114.526V106.628C349.925 105.642 352.585 105.094 355.382 105.094C357.334 105.094 359.218 105.364 360.999 105.859V113.755Z" fill="#EC6632"/>
<path fill-rule="evenodd" clip-rule="evenodd" d="M55.3799 191.578C55.904 189.893 56.2014 188.117 56.2014 186.271C56.2014 183.627 55.6082 181.117 54.5633 178.836H62.9242C63.9675 181.116 64.5462 183.629 64.5462 186.271C64.5462 188.115 64.26 189.895 63.7359 191.578H55.3799Z" fill="#EC6632"/>
<path fill-rule="evenodd" clip-rule="evenodd" d="M323.035 228.766C322.334 231.313 321.26 233.81 319.754 236.18C317.595 239.576 314.785 242.367 311.58 244.536L315.536 249.024C319.198 247.651 322.632 245.569 325.594 242.771C327.662 240.817 329.354 238.645 330.687 236.337L323.035 228.766Z" fill="#EC6632"/>
<path fill-rule="evenodd" clip-rule="evenodd" d="M21.6139 167.817C22.3164 170.362 23.3887 172.86 24.8949 175.231C27.0555 178.626 29.8655 181.418 33.0693 183.586L29.1132 188.074C25.4528 186.701 22.019 184.619 19.0563 181.82C16.989 179.867 15.2946 177.696 13.9636 175.387L21.6139 167.817Z" fill="#3079EC"/>
<path fill-rule="evenodd" clip-rule="evenodd" d="M81.6427 93.1565C82.252 95.3677 83.1827 97.5364 84.4897 99.5941C86.3657 102.543 88.806 104.966 91.5886 106.85L88.1549 110.746C84.9736 109.554 81.9948 107.746 79.4211 105.316C77.6254 103.62 76.1561 101.734 74.9987 99.7308L81.6427 93.1565Z" fill="#BAD0F7"/>
<path fill-rule="evenodd" clip-rule="evenodd" d="M240.89 117.953C238.992 118.419 237.13 119.131 235.364 120.135C232.833 121.57 230.753 123.44 229.138 125.572L225.794 122.94C226.816 120.506 228.368 118.222 230.454 116.25C231.909 114.876 233.528 113.751 235.248 112.864L240.89 117.953Z" fill="#3079EC"/>
</g>
<g filter="url(#filter1_f_1_1048)">
<path fill-rule="evenodd" clip-rule="evenodd" d="M41.8885 431.136C41.8885 433.327 40.0077 435.106 37.688 435.106C35.3651 435.106 33.4842 433.327 33.4842 431.136C33.4842 428.943 35.3651 427.166 37.688 427.166C40.0077 427.166 41.8885 428.943 41.8885 431.136Z" fill="#ECA532"/>
<path fill-rule="evenodd" clip-rule="evenodd" d="M129.888 438.074C129.888 440.266 128.007 442.043 125.686 442.043C123.364 442.043 121.484 440.266 121.484 438.074C121.484 435.882 123.364 434.104 125.686 434.104C128.007 434.104 129.888 435.882 129.888 438.074Z" fill="#3079EC"/>
<path fill-rule="evenodd" clip-rule="evenodd" d="M98.8602 430.707C96.4151 431.966 94.1083 433.553 92.0394 435.509C89.0734 438.309 86.8872 441.561 85.4339 445.023L76.5779 436.656C78.0296 433.196 80.2335 429.952 83.1962 427.155C85.2635 425.202 87.5639 423.601 90.0058 422.344L98.8602 430.707Z" fill="#BAD0F7"/>
<path fill-rule="evenodd" clip-rule="evenodd" d="M169.066 252.392C169.955 253.934 171.077 255.389 172.458 256.693C174.437 258.563 176.736 259.942 179.181 260.858L173.268 266.442C170.825 265.526 168.534 264.136 166.555 262.268C165.176 260.965 164.046 259.515 163.157 257.975L169.066 252.392Z" fill="#ECA532"/>
<path fill-rule="evenodd" clip-rule="evenodd" d="M274.426 408.363C276.207 408.859 278.089 409.139 280.042 409.139C282.841 409.139 285.498 408.578 287.913 407.593V415.49C285.5 416.475 282.838 417.023 280.042 417.023C278.091 417.023 276.207 416.753 274.426 416.258V408.363Z" fill="#EC6632"/>
<path fill-rule="evenodd" clip-rule="evenodd" d="M20 364.269C21.7828 364.766 23.6636 365.045 25.6168 365.045C28.4155 365.045 31.0728 364.485 33.4889 363.497V371.396C31.0744 372.382 28.4139 372.93 25.6168 372.93C23.6652 372.93 21.7812 372.66 20 372.164V364.269Z" fill="#EC6632"/>
<path fill-rule="evenodd" clip-rule="evenodd" d="M325.619 286.446C325.095 288.131 324.798 289.907 324.798 291.753C324.798 294.397 325.391 296.907 326.436 299.188H318.075C317.032 296.908 316.453 294.395 316.453 291.753C316.453 289.909 316.739 288.129 317.263 286.446H325.619Z" fill="#EC6632"/>
<path fill-rule="evenodd" clip-rule="evenodd" d="M57.964 249.258C58.6649 246.711 59.7387 244.214 61.245 241.844C63.4039 238.448 66.2139 235.657 69.4194 233.488L65.4632 229C61.8012 230.373 58.3675 232.455 55.4048 235.253C53.3375 237.207 51.6447 239.379 50.312 241.687L57.964 249.258Z" fill="#EC6632"/>
<path fill-rule="evenodd" clip-rule="evenodd" d="M359.385 310.207C358.683 307.662 357.61 305.164 356.104 302.793C353.944 299.397 351.134 296.606 347.93 294.437L351.886 289.95C355.546 291.323 358.98 293.405 361.943 296.204C364.01 298.157 365.704 300.328 367.035 302.637L359.385 310.207Z" fill="#3079EC"/>
<path fill-rule="evenodd" clip-rule="evenodd" d="M299.356 384.867C298.747 382.656 297.816 380.488 296.509 378.43C294.633 375.481 292.193 373.058 289.41 371.174L292.844 367.278C296.025 368.47 299.004 370.278 301.578 372.707C303.374 374.404 304.843 376.29 306 378.293L299.356 384.867Z" fill="#BAD0F7"/>
<path fill-rule="evenodd" clip-rule="evenodd" d="M140.109 360.071C142.007 359.605 143.869 358.893 145.635 357.889C148.166 356.454 150.246 354.584 151.861 352.452L155.205 355.084C154.183 357.518 152.632 359.802 150.545 361.774C149.09 363.148 147.471 364.273 145.751 365.16L140.109 360.071Z" fill="#3079EC"/>
</g>
<path d="M163.286 222.264C161.926 222.264 160.654 222.096 159.47 221.76C158.286 221.424 157.278 220.96 156.446 220.368L157.55 217.44C158.094 217.808 158.67 218.12 159.278 218.376C159.886 218.632 160.526 218.832 161.198 218.976C161.87 219.104 162.574 219.168 163.31 219.168C164.462 219.168 165.278 218.992 165.758 218.64C166.254 218.288 166.502 217.84 166.502 217.296C166.502 216.8 166.334 216.424 165.998 216.168C165.678 215.896 165.086 215.664 164.222 215.472L161.39 214.896C159.838 214.576 158.678 214.032 157.91 213.264C157.142 212.496 156.758 211.472 156.758 210.192C156.758 209.104 157.046 208.16 157.622 207.36C158.198 206.56 159.006 205.936 160.046 205.488C161.102 205.04 162.334 204.816 163.742 204.816C164.942 204.816 166.062 204.984 167.102 205.32C168.142 205.656 168.998 206.136 169.67 206.76L168.566 209.496C167.91 208.968 167.174 208.576 166.358 208.32C165.558 208.048 164.662 207.912 163.67 207.912C162.63 207.912 161.83 208.096 161.27 208.464C160.726 208.832 160.454 209.336 160.454 209.976C160.454 210.456 160.622 210.848 160.958 211.152C161.294 211.44 161.886 211.672 162.734 211.848L165.518 212.4C167.102 212.72 168.278 213.256 169.046 214.008C169.814 214.76 170.198 215.76 170.198 217.008C170.198 218.064 169.91 218.984 169.334 219.768C168.774 220.552 167.974 221.168 166.934 221.616C165.91 222.048 164.694 222.264 163.286 222.264ZM176.523 222V208.128H171.147V205.08H185.643V208.128H180.267V222H176.523ZM209.996 222V213.96L210.764 216.096L203.348 205.08H207.668L212.324 212.328H211.556L216.212 205.08H220.388L212.996 216.096L213.74 213.96V222H209.996ZM132.006 252V235.08H135.75V252H132.006ZM139.177 252V235.08H141.961L151.153 246.768H150.505V235.08H153.985V252H151.201L142.033 240.312H142.657V252H139.177ZM163.532 252.264C162.172 252.264 160.9 252.096 159.716 251.76C158.532 251.424 157.524 250.96 156.692 250.368L157.796 247.44C158.34 247.808 158.916 248.12 159.524 248.376C160.132 248.632 160.772 248.832 161.444 248.976C162.116 249.104 162.82 249.168 163.556 249.168C164.708 249.168 165.524 248.992 166.004 248.64C166.5 248.288 166.748 247.84 166.748 247.296C166.748 246.8 166.58 246.424 166.244 246.168C165.924 245.896 165.332 245.664 164.468 245.472L161.636 244.896C160.084 244.576 158.924 244.032 158.156 243.264C157.388 242.496 157.004 241.472 157.004 240.192C157.004 239.104 157.292 238.16 157.868 237.36C158.444 236.56 159.252 235.936 160.292 235.488C161.348 235.04 162.58 234.816 163.988 234.816C165.188 234.816 166.308 234.984 167.348 235.32C168.388 235.656 169.244 236.136 169.916 236.76L168.812 239.496C168.156 238.968 167.42 238.576 166.604 238.32C165.804 238.048 164.908 237.912 163.916 237.912C162.876 237.912 162.076 238.096 161.516 238.464C160.972 238.832 160.7 239.336 160.7 239.976C160.7 240.456 160.868 240.848 161.204 241.152C161.54 241.44 162.132 241.672 162.98 241.848L165.764 242.4C167.348 242.72 168.524 243.256 169.292 244.008C170.06 244.76 170.444 245.76 170.444 247.008C170.444 248.064 170.156 248.984 169.58 249.768C169.02 250.552 168.22 251.168 167.18 251.616C166.156 252.048 164.94 252.264 163.532 252.264ZM173.209 252V235.08H181.105C183.009 235.08 184.449 235.544 185.425 236.472C186.417 237.384 186.913 238.64 186.913 240.24C186.913 241.824 186.417 243.088 185.425 244.032C184.449 244.96 183.009 245.424 181.105 245.424H176.953V252H173.209ZM176.953 242.52H180.625C181.521 242.52 182.185 242.32 182.617 241.92C183.065 241.52 183.289 240.96 183.289 240.24C183.289 239.52 183.065 238.968 182.617 238.584C182.185 238.184 181.521 237.984 180.625 237.984H176.953V242.52ZM189.404 252V235.08H193.148V252H189.404ZM196.576 252V235.08H204.256C206.16 235.08 207.632 235.536 208.672 236.448C209.712 237.344 210.232 238.6 210.232 240.216C210.232 241.272 209.992 242.184 209.512 242.952C209.048 243.704 208.376 244.288 207.496 244.704C206.632 245.104 205.592 245.304 204.376 245.304L204.664 244.776H205.648C206.336 244.776 206.944 244.96 207.472 245.328C208.016 245.696 208.464 246.232 208.816 246.936L211.336 252H207.208L204.592 246.552C204.4 246.088 204.096 245.784 203.68 245.64C203.28 245.48 202.816 245.4 202.288 245.4H200.32V252H196.576ZM200.32 242.712H203.608C204.584 242.712 205.328 242.512 205.84 242.112C206.352 241.712 206.608 241.12 206.608 240.336C206.608 239.552 206.352 238.968 205.84 238.584C205.328 238.184 204.584 237.984 203.608 237.984H200.32V242.712ZM213.568 252V235.08H225.328V237.984H217.144V241.944H224.752V244.872H217.144V249.096H225.328V252H213.568ZM227.935 252V235.08H234.391C236.359 235.08 238.023 235.416 239.383 236.088C240.743 236.76 241.767 237.728 242.455 238.992C243.159 240.24 243.511 241.752 243.511 243.528C243.511 245.288 243.159 246.8 242.455 248.064C241.767 249.328 240.743 250.304 239.383 250.992C238.023 251.664 236.359 252 234.391 252H227.935ZM231.679 248.928H234.175C236.063 248.928 237.463 248.488 238.375 247.608C239.303 246.712 239.767 245.352 239.767 243.528C239.767 241.688 239.303 240.328 238.375 239.448C237.463 238.568 236.063 238.128 234.175 238.128H231.679V248.928Z" fill="#031025"/>
<path d="M186.206 221.987H201.795L199.846 217.741H188.155L186.206 221.987Z" fill="#031025"/>
<path d="M193.821 205.358L190.103 212.798L189.129 214.748L188.641 215.722L188.398 216.21H199.602L199.359 215.722L198.871 214.748L197.897 212.798L194.179 205.358C194.105 205.21 193.895 205.21 193.821 205.358Z" fill="#3079EC"/>
</g>
<defs>
<filter id="filter0_f_1_1048" x="9.96359" y="29.0005" width="355.035" height="224.023" filterUnits="userSpaceOnUse" color-interpolation-filters="sRGB">
<feFlood flood-opacity="0" result="BackgroundImageFix"/>
<feBlend mode="normal" in="SourceGraphic" in2="BackgroundImageFix" result="shape"/>
<feGaussianBlur stdDeviation="2" result="effect1_foregroundBlur_1_1048"/>
</filter>
<filter id="filter1_f_1_1048" x="16" y="225" width="355.035" height="224.023" filterUnits="userSpaceOnUse" color-interpolation-filters="sRGB">
<feFlood flood-opacity="0" result="BackgroundImageFix"/>
<feBlend mode="normal" in="SourceGraphic" in2="BackgroundImageFix" result="shape"/>
<feGaussianBlur stdDeviation="2" result="effect1_foregroundBlur_1_1048"/>
</filter>
<linearGradient id="paint0_linear_1_1048" x1="187.5" y1="-3.22682e-08" x2="188.817" y2="723.757" gradientUnits="userSpaceOnUse">
<stop stop-color="#E7F0FD"/>
<stop offset="1" stop-color="#FCEDE8"/>
</linearGradient>
</defs>
</svg>
