<svg width="334" height="321" viewBox="0 0 334 321" fill="none" xmlns="http://www.w3.org/2000/svg">
<g clip-path="url(#clip0_1_1108)">
<path d="M0 0H334V321H0V0Z" fill="url(#paint0_linear_1_1108)"/>
<path fill-rule="evenodd" clip-rule="evenodd" d="M318.111 65.8878C318.111 63.6963 319.992 61.918 322.312 61.918C324.635 61.918 326.516 63.6963 326.516 65.8878C326.516 68.0807 324.635 69.8575 322.312 69.8575C319.992 69.8575 318.111 68.0807 318.111 65.8878Z" fill="#ECA532"/>
<path fill-rule="evenodd" clip-rule="evenodd" d="M230.111 58.9503C230.111 56.7573 231.992 54.9805 234.313 54.9805C236.635 54.9805 238.516 56.7573 238.516 58.9503C238.516 61.1417 236.635 62.92 234.313 62.92C231.992 62.92 230.111 61.1417 230.111 58.9503Z" fill="#3079EC"/>
<path fill-rule="evenodd" clip-rule="evenodd" d="M261.14 66.3165C263.585 65.0575 265.892 63.4705 267.96 61.5144C270.926 58.714 273.113 55.4626 274.566 52L283.422 60.3678C281.97 63.8274 279.766 67.0712 276.804 69.8686C274.736 71.8216 272.436 73.4223 269.994 74.6798L261.14 66.3165Z" fill="#BAD0F7"/>
<path fill-rule="evenodd" clip-rule="evenodd" d="M190.934 244.631C190.045 243.09 188.923 241.635 187.542 240.33C185.564 238.461 183.265 237.082 180.82 236.166L186.732 230.582C189.176 231.498 191.466 232.887 193.445 234.755C194.825 236.058 195.955 237.509 196.844 239.049L190.934 244.631Z" fill="#ECA532"/>
<path fill-rule="evenodd" clip-rule="evenodd" d="M85.5742 88.6609C83.7931 88.1643 81.9106 87.8849 79.9574 87.8849C77.1587 87.8849 74.5014 88.4453 72.0869 89.4309V81.5338C74.4998 80.5482 77.1619 80 79.9574 80C81.909 80 83.7931 80.2703 85.5742 80.7654V88.6609Z" fill="#EC6632"/>
<path fill-rule="evenodd" clip-rule="evenodd" d="M340 132.755C338.217 132.258 336.336 131.979 334.383 131.979C331.584 131.979 328.927 132.539 326.511 133.526V125.628C328.926 124.642 331.586 124.094 334.383 124.094C336.335 124.094 338.219 124.364 340 124.859V132.755Z" fill="#EC6632"/>
<path fill-rule="evenodd" clip-rule="evenodd" d="M34.3806 210.578C34.9047 208.893 35.2021 207.116 35.2021 205.271C35.2021 202.627 34.6089 200.117 33.564 197.836H41.9249C42.9682 200.115 43.5469 202.629 43.5469 205.271C43.5469 207.115 43.2607 208.895 42.7366 210.578H34.3806Z" fill="#EC6632"/>
<path fill-rule="evenodd" clip-rule="evenodd" d="M302.036 247.766C301.335 250.312 300.261 252.809 298.755 255.18C296.596 258.575 293.786 261.367 290.58 263.535L294.536 268.023C298.198 266.65 301.632 264.568 304.595 261.771C306.662 259.816 308.355 257.645 309.688 255.336L302.036 247.766Z" fill="#EC6632"/>
<path fill-rule="evenodd" clip-rule="evenodd" d="M0.6149 186.816C1.3174 189.362 2.38964 191.86 3.89591 194.231C6.05646 197.626 8.86647 200.418 12.0703 202.586L8.11413 207.074C4.45374 205.701 1.02 203.619 -1.94272 200.82C-4.01003 198.867 -5.70438 196.695 -7.03543 194.387L0.6149 186.816Z" fill="#3079EC"/>
<path fill-rule="evenodd" clip-rule="evenodd" d="M60.6439 112.156C61.2532 114.367 62.184 116.536 63.4909 118.594C65.3669 121.543 67.8072 123.965 70.5898 125.85L67.1561 129.745C63.9748 128.553 60.996 126.746 58.4223 124.316C56.6267 122.62 55.1574 120.734 53.9999 118.731L60.6439 112.156Z" fill="#BAD0F7"/>
<path fill-rule="evenodd" clip-rule="evenodd" d="M219.891 136.952C217.992 137.419 216.131 138.131 214.364 139.135C211.834 140.57 209.753 142.439 208.138 144.571L204.794 141.94C205.817 139.505 207.368 137.221 209.454 135.25C210.909 133.876 212.528 132.75 214.248 131.863L219.891 136.952Z" fill="#3079EC"/>
</g>
<path d="M143.286 155.264C141.926 155.264 140.654 155.096 139.47 154.76C138.286 154.424 137.278 153.96 136.446 153.368L137.55 150.44C138.094 150.808 138.67 151.12 139.278 151.376C139.886 151.632 140.526 151.832 141.198 151.976C141.87 152.104 142.574 152.168 143.31 152.168C144.462 152.168 145.278 151.992 145.758 151.64C146.254 151.288 146.502 150.84 146.502 150.296C146.502 149.8 146.334 149.424 145.998 149.168C145.678 148.896 145.086 148.664 144.222 148.472L141.39 147.896C139.838 147.576 138.678 147.032 137.91 146.264C137.142 145.496 136.758 144.472 136.758 143.192C136.758 142.104 137.046 141.16 137.622 140.36C138.198 139.56 139.006 138.936 140.046 138.488C141.102 138.04 142.334 137.816 143.742 137.816C144.942 137.816 146.062 137.984 147.102 138.32C148.142 138.656 148.998 139.136 149.67 139.76L148.566 142.496C147.91 141.968 147.174 141.576 146.358 141.32C145.558 141.048 144.662 140.912 143.67 140.912C142.63 140.912 141.83 141.096 141.27 141.464C140.726 141.832 140.454 142.336 140.454 142.976C140.454 143.456 140.622 143.848 140.958 144.152C141.294 144.44 141.886 144.672 142.734 144.848L145.518 145.4C147.102 145.72 148.278 146.256 149.046 147.008C149.814 147.76 150.198 148.76 150.198 150.008C150.198 151.064 149.91 151.984 149.334 152.768C148.774 153.552 147.974 154.168 146.934 154.616C145.91 155.048 144.694 155.264 143.286 155.264ZM156.523 155V141.128H151.147V138.08H165.643V141.128H160.267V155H156.523ZM189.996 155V146.96L190.764 149.096L183.348 138.08H187.668L192.324 145.328H191.556L196.212 138.08H200.388L192.996 149.096L193.74 146.96V155H189.996ZM112.005 185V168.08H115.749V185H112.005ZM119.177 185V168.08H121.961L131.153 179.768H130.505V168.08H133.985V185H131.201L122.033 173.312H122.657V185H119.177ZM143.532 185.264C142.172 185.264 140.9 185.096 139.716 184.76C138.532 184.424 137.524 183.96 136.692 183.368L137.796 180.44C138.34 180.808 138.916 181.12 139.524 181.376C140.132 181.632 140.772 181.832 141.444 181.976C142.116 182.104 142.82 182.168 143.556 182.168C144.708 182.168 145.524 181.992 146.004 181.64C146.5 181.288 146.748 180.84 146.748 180.296C146.748 179.8 146.58 179.424 146.244 179.168C145.924 178.896 145.332 178.664 144.468 178.472L141.636 177.896C140.084 177.576 138.924 177.032 138.156 176.264C137.388 175.496 137.004 174.472 137.004 173.192C137.004 172.104 137.292 171.16 137.868 170.36C138.444 169.56 139.252 168.936 140.292 168.488C141.348 168.04 142.58 167.816 143.988 167.816C145.188 167.816 146.308 167.984 147.348 168.32C148.388 168.656 149.244 169.136 149.916 169.76L148.812 172.496C148.156 171.968 147.42 171.576 146.604 171.32C145.804 171.048 144.908 170.912 143.916 170.912C142.876 170.912 142.076 171.096 141.516 171.464C140.972 171.832 140.7 172.336 140.7 172.976C140.7 173.456 140.868 173.848 141.204 174.152C141.54 174.44 142.132 174.672 142.98 174.848L145.764 175.4C147.348 175.72 148.524 176.256 149.292 177.008C150.06 177.76 150.444 178.76 150.444 180.008C150.444 181.064 150.156 181.984 149.58 182.768C149.02 183.552 148.22 184.168 147.18 184.616C146.156 185.048 144.94 185.264 143.532 185.264ZM153.208 185V168.08H161.104C163.008 168.08 164.448 168.544 165.424 169.472C166.416 170.384 166.912 171.64 166.912 173.24C166.912 174.824 166.416 176.088 165.424 177.032C164.448 177.96 163.008 178.424 161.104 178.424H156.952V185H153.208ZM156.952 175.52H160.624C161.52 175.52 162.184 175.32 162.616 174.92C163.064 174.52 163.288 173.96 163.288 173.24C163.288 172.52 163.064 171.968 162.616 171.584C162.184 171.184 161.52 170.984 160.624 170.984H156.952V175.52ZM169.404 185V168.08H173.148V185H169.404ZM176.576 185V168.08H184.256C186.16 168.08 187.632 168.536 188.672 169.448C189.712 170.344 190.232 171.6 190.232 173.216C190.232 174.272 189.992 175.184 189.512 175.952C189.048 176.704 188.376 177.288 187.496 177.704C186.632 178.104 185.592 178.304 184.376 178.304L184.664 177.776H185.648C186.336 177.776 186.944 177.96 187.472 178.328C188.016 178.696 188.464 179.232 188.816 179.936L191.336 185H187.208L184.592 179.552C184.4 179.088 184.096 178.784 183.68 178.64C183.28 178.48 182.816 178.4 182.288 178.4H180.32V185H176.576ZM180.32 175.712H183.608C184.584 175.712 185.328 175.512 185.84 175.112C186.352 174.712 186.608 174.12 186.608 173.336C186.608 172.552 186.352 171.968 185.84 171.584C185.328 171.184 184.584 170.984 183.608 170.984H180.32V175.712ZM193.568 185V168.08H205.328V170.984H197.144V174.944H204.752V177.872H197.144V182.096H205.328V185H193.568ZM207.935 185V168.08H214.391C216.359 168.08 218.023 168.416 219.383 169.088C220.743 169.76 221.767 170.728 222.455 171.992C223.159 173.24 223.511 174.752 223.511 176.528C223.511 178.288 223.159 179.8 222.455 181.064C221.767 182.328 220.743 183.304 219.383 183.992C218.023 184.664 216.359 185 214.391 185H207.935ZM211.679 181.928H214.175C216.063 181.928 217.463 181.488 218.375 180.608C219.303 179.712 219.767 178.352 219.767 176.528C219.767 174.688 219.303 173.328 218.375 172.448C217.463 171.568 216.063 171.128 214.175 171.128H211.679V181.928Z" fill="#031025"/>
<path d="M166.206 154.988H181.795L179.846 150.741H168.155L166.206 154.988Z" fill="#031025"/>
<path d="M173.821 138.358L170.102 145.798L169.128 147.748L168.641 148.723L168.397 149.21H179.602L179.358 148.723L178.871 147.748L177.897 145.798L174.178 138.358C174.105 138.211 173.894 138.211 173.821 138.358Z" fill="#3079EC"/>
<defs>
<linearGradient id="paint0_linear_1_1108" x1="167" y1="-2.27151e-08" x2="167.733" y2="509.487" gradientUnits="userSpaceOnUse">
<stop stop-color="#E7F0FD"/>
<stop offset="1" stop-color="#FCEDE8"/>
</linearGradient>
<clipPath id="clip0_1_1108">
<rect width="334" height="321" rx="20" fill="white"/>
</clipPath>
</defs>
</svg>
