<svg width="80" height="80" viewBox="0 0 80 80" fill="none" xmlns="http://www.w3.org/2000/svg">
<path d="M68.25 43.6V43.3914L68.0447 43.354C63.759 42.5748 60.25 38.6745 60.25 34C60.25 28.5381 64.5381 24.25 70 24.25C75.4619 24.25 79.75 28.5381 79.75 34C79.75 38.6745 76.241 42.5748 71.9553 43.354L71.75 43.3914V43.6V54C71.75 68.2619 60.2619 79.75 46 79.75C31.7381 79.75 20.25 68.2619 20.25 54V46.8V46.6787L20.1547 46.6036L6.95472 36.2036L6.95483 36.2035L6.94704 36.1978C2.61886 33.05 0.25 27.9293 0.25 22.4V2C0.25 1.45681 0.429971 1.02358 0.726777 0.726777C1.02358 0.429971 1.45681 0.25 2 0.25H10C10.5432 0.25 10.9764 0.429971 11.2732 0.726777C11.57 1.02358 11.75 1.45681 11.75 2C11.75 2.54319 11.57 2.97642 11.2732 3.27322C10.9764 3.57003 10.5432 3.75 10 3.75H4H3.75V4V22.4C3.75 26.4816 5.78872 30.5473 9.03537 33.3881L9.03512 33.3884L9.04609 33.397L21.8461 43.397L22 43.5173L22.1539 43.397L34.95 33.4C34.9506 33.3995 34.9513 33.399 34.9519 33.3985C38.217 30.9488 40.25 26.8737 40.25 22.4V4V3.75H40H34C33.4568 3.75 33.0236 3.57003 32.7268 3.27322C32.43 2.97642 32.25 2.54319 32.25 2C32.25 1.45681 32.43 1.02358 32.7268 0.726777C33.0236 0.429972 33.4568 0.25 34 0.25H42C42.5432 0.25 42.9764 0.429972 43.2732 0.726777C43.57 1.02358 43.75 1.45681 43.75 2V22.4C43.75 27.9197 41.3879 32.6498 37.0434 36.2051C37.0428 36.2056 37.0423 36.206 37.0417 36.2065L23.8453 46.6036L23.75 46.6787V46.8V54C23.75 66.1381 33.8619 76.25 46 76.25C58.1381 76.25 68.25 66.1381 68.25 54V43.6ZM63.75 34C63.75 37.3381 66.6619 40.25 70 40.25C73.3381 40.25 76.25 37.3381 76.25 34C76.25 30.6619 73.3381 27.75 70 27.75C66.6619 27.75 63.75 30.6619 63.75 34Z" fill="#FBDE92" stroke="#EEAD44" stroke-width="0.5"/>
</svg>
