<svg width="16" height="17" viewBox="0 0 16 17" fill="none" xmlns="http://www.w3.org/2000/svg">
<path d="M12 7.71331C11.8232 7.71331 11.6537 7.78355 11.5286 7.90858C11.4036 8.0336 11.3334 8.20317 11.3334 8.37998V13.1666C11.3334 13.3435 11.2631 13.513 11.1381 13.6381C11.0131 13.7631 10.8435 13.8333 10.6667 13.8333H3.33337C3.15656 13.8333 2.98699 13.7631 2.86197 13.6381C2.73695 13.513 2.66671 13.3435 2.66671 13.1666V5.83331C2.66671 5.6565 2.73695 5.48693 2.86197 5.36191C2.98699 5.23688 3.15656 5.16665 3.33337 5.16665H8.12004C8.29685 5.16665 8.46642 5.09641 8.59145 4.97138C8.71647 4.84636 8.78671 4.67679 8.78671 4.49998C8.78671 4.32317 8.71647 4.1536 8.59145 4.02858C8.46642 3.90355 8.29685 3.83331 8.12004 3.83331H3.33337C2.80294 3.83331 2.29423 4.04403 1.91916 4.4191C1.54409 4.79417 1.33337 5.30288 1.33337 5.83331V13.1666C1.33337 13.6971 1.54409 14.2058 1.91916 14.5809C2.29423 14.9559 2.80294 15.1666 3.33337 15.1666H10.6667C11.1971 15.1666 11.7058 14.9559 12.0809 14.5809C12.456 14.2058 12.6667 13.6971 12.6667 13.1666V8.37998C12.6667 8.20317 12.5965 8.0336 12.4714 7.90858C12.3464 7.78355 12.1769 7.71331 12 7.71331ZM14.6134 2.24665C14.5457 2.08375 14.4163 1.9543 14.2534 1.88665C14.1732 1.85249 14.0872 1.83437 14 1.83331H10C9.82323 1.83331 9.65366 1.90355 9.52864 2.02858C9.40361 2.1536 9.33337 2.32317 9.33337 2.49998C9.33337 2.67679 9.40361 2.84636 9.52864 2.97138C9.65366 3.09641 9.82323 3.16665 10 3.16665H12.3934L5.52671 10.0266C5.46422 10.0886 5.41463 10.1624 5.38078 10.2436C5.34693 10.3248 5.32951 10.412 5.32951 10.5C5.32951 10.588 5.34693 10.6751 5.38078 10.7564C5.41463 10.8376 5.46422 10.9113 5.52671 10.9733C5.58868 11.0358 5.66242 11.0854 5.74366 11.1192C5.8249 11.1531 5.91203 11.1705 6.00004 11.1705C6.08805 11.1705 6.17519 11.1531 6.25643 11.1192C6.33766 11.0854 6.4114 11.0358 6.47337 10.9733L13.3334 4.10665V6.49998C13.3334 6.67679 13.4036 6.84636 13.5286 6.97138C13.6537 7.09641 13.8232 7.16665 14 7.16665C14.1769 7.16665 14.3464 7.09641 14.4714 6.97138C14.5965 6.84636 14.6667 6.67679 14.6667 6.49998V2.49998C14.6657 2.41286 14.6475 2.32679 14.6134 2.24665Z" fill="white"/>
<path d="M14.4287 2.32335L14.4287 2.32336L14.4294 2.32506C14.4532 2.38084 14.4658 2.4407 14.4667 2.50132V6.49998C14.4667 6.62375 14.4175 6.74245 14.33 6.82996C14.2425 6.91748 14.1238 6.96665 14 6.96665C13.8763 6.96665 13.7576 6.91748 13.6701 6.82996C13.5825 6.74245 13.5334 6.62375 13.5334 6.49998V4.10665V3.62347L13.1919 3.96529L6.33188 10.832L6.33137 10.8325C6.28799 10.8762 6.23638 10.9109 6.17951 10.9346C6.12264 10.9583 6.06165 10.9705 6.00004 10.9705C5.93844 10.9705 5.87744 10.9583 5.82057 10.9346C5.7637 10.9109 5.71209 10.8762 5.66871 10.8325L5.66755 10.8313C5.62381 10.7879 5.58909 10.7363 5.5654 10.6794C5.54171 10.6226 5.52951 10.5616 5.52951 10.5C5.52951 10.4384 5.54171 10.3774 5.5654 10.3205C5.58909 10.2636 5.62381 10.212 5.66755 10.1686L5.66806 10.1681L12.5347 3.30814L12.8765 2.96665H12.3934H10C9.87627 2.96665 9.75758 2.91748 9.67006 2.82996C9.58254 2.74245 9.53337 2.62375 9.53337 2.49998C9.53337 2.37621 9.58254 2.25751 9.67006 2.17C9.75758 2.08248 9.87627 2.03331 10 2.03331H13.9987C14.0593 2.03419 14.1192 2.04686 14.175 2.07063L14.175 2.07064L14.1767 2.07135C14.2907 2.11871 14.3813 2.20932 14.4287 2.32335ZM11.6701 8.05C11.7576 7.96248 11.8763 7.91331 12 7.91331C12.1238 7.91331 12.2425 7.96248 12.33 8.05C12.4175 8.13751 12.4667 8.25621 12.4667 8.37998V13.1666C12.4667 13.644 12.2771 14.1019 11.9395 14.4394C11.6019 14.777 11.1441 14.9666 10.6667 14.9666H3.33337C2.85598 14.9666 2.39815 14.777 2.06058 14.4394C1.72302 14.1019 1.53337 13.644 1.53337 13.1666V5.83331C1.53337 5.35592 1.72302 4.89809 2.06058 4.56052C2.39815 4.22296 2.85598 4.03331 3.33337 4.03331H8.12004C8.24381 4.03331 8.36251 4.08248 8.45002 4.17C8.53754 4.25751 8.58671 4.37621 8.58671 4.49998C8.58671 4.62375 8.53754 4.74245 8.45002 4.82996C8.36251 4.91748 8.24381 4.96665 8.12004 4.96665H3.33337C3.10352 4.96665 2.88308 5.05796 2.72055 5.22049C2.55802 5.38302 2.46671 5.60346 2.46671 5.83331V13.1666C2.46671 13.3965 2.55802 13.6169 2.72055 13.7795C2.88308 13.942 3.10352 14.0333 3.33337 14.0333H10.6667C10.8966 14.0333 11.117 13.942 11.2795 13.7795C11.4421 13.6169 11.5334 13.3965 11.5334 13.1666V8.37998C11.5334 8.25621 11.5825 8.13751 11.6701 8.05Z" stroke="white" stroke-opacity="0.2" stroke-width="0.4"/>
</svg>
