<svg width="81" height="81" viewBox="0 0 81 81" fill="none" xmlns="http://www.w3.org/2000/svg">
<path d="M51.3749 71.6479L51.6253 72.0581L52.1025 72.0021C61.6501 70.8811 69.0545 62.7632 69.0545 52.9181V33.4896C69.0545 18.3094 56.7501 6.00505 41.5699 6.00505H39.6433C24.4631 6.00505 12.1588 18.3094 12.1588 33.4896V52.9181C12.1588 54.2027 11.1158 55.2457 9.83123 55.2457C8.54664 55.2457 7.50369 54.2027 7.50369 52.9181V33.4896C7.50369 15.7402 21.8939 1.34998 39.6433 1.34998H41.5699C59.3193 1.34998 73.7095 15.7402 73.7095 33.4896V52.9181C73.7095 65.3452 64.2152 75.5532 52.0839 76.684L51.689 76.7208L51.4971 77.0679C50.5742 78.7379 48.7979 79.866 46.7617 79.866C43.7783 79.866 41.3566 77.4443 41.3566 74.4609C41.3566 71.4775 43.7783 69.0558 46.7617 69.0558C48.7115 69.0558 50.4252 70.0921 51.3749 71.6479Z" fill="#AD88FB" stroke="#7444EE" stroke-width="1.5"/>
<path d="M72.55 38.7781C74.5344 38.7781 76.2832 39.3915 77.509 40.3249C78.7337 41.2575 79.3832 42.4561 79.3832 43.6832V52.9158C79.3832 54.1429 78.7337 55.3416 77.509 56.2741C76.2832 57.2075 74.5344 57.8209 72.55 57.8209H68.5084C66.5239 57.8209 64.7751 57.2075 63.5493 56.2741C62.3246 55.3416 61.6752 54.1429 61.6752 52.9158V43.6832C61.6752 42.4561 62.3246 41.2575 63.5493 40.3249C64.7751 39.3915 66.5239 38.7781 68.5084 38.7781H72.55Z" fill="#7444EE" stroke="#AD88FB" stroke-width="2.5"/>
<path d="M12.7242 38.7781C14.7086 38.7781 16.4575 39.3915 17.6832 40.3249C18.9079 41.2575 19.5574 42.4561 19.5574 43.6832V52.9158C19.5574 54.1429 18.9079 55.3416 17.6832 56.2741C16.4575 57.2075 14.7086 57.8209 12.7242 57.8209H8.68258C6.69816 57.8209 4.94931 57.2075 3.72352 56.2741C2.49886 55.3416 1.84938 54.1429 1.84938 52.9158V43.6832C1.84938 42.4561 2.49886 41.2575 3.72352 40.3249C4.94931 39.3915 6.69816 38.7781 8.68258 38.7781H12.7242Z" fill="#7444EE" stroke="#AD88FB" stroke-width="2.5"/>
</svg>
