<svg width="111" height="20" viewBox="0 0 111 20" fill="none" xmlns="http://www.w3.org/2000/svg">
<path d="M25.19 15V14.034L28.634 10.422C29.082 9.96467 29.4133 9.526 29.628 9.106C29.852 8.686 29.964 8.252 29.964 7.804C29.964 7.25333 29.7913 6.838 29.446 6.558C29.11 6.26867 28.6153 6.124 27.962 6.124C27.458 6.124 26.982 6.21733 26.534 6.404C26.0953 6.58133 25.6753 6.85667 25.274 7.23L24.812 6.236C25.1947 5.86267 25.6753 5.564 26.254 5.34C26.842 5.116 27.458 5.004 28.102 5.004C29.11 5.004 29.8893 5.23733 30.44 5.704C30.9907 6.16133 31.266 6.81933 31.266 7.678C31.266 8.30333 31.112 8.90067 30.804 9.47C30.5053 10.03 30.062 10.6087 29.474 11.206L26.464 14.258V13.894H31.672V15H25.19ZM36.5945 15.126C35.4652 15.126 34.5972 14.692 33.9905 13.824C33.3839 12.9467 33.0805 11.6913 33.0805 10.058C33.0805 8.39667 33.3839 7.14133 33.9905 6.292C34.5972 5.43333 35.4652 5.004 36.5945 5.004C37.7332 5.004 38.6012 5.43333 39.1985 6.292C39.8052 7.14133 40.1085 8.392 40.1085 10.044C40.1085 11.6867 39.8052 12.9467 39.1985 13.824C38.5919 14.692 37.7239 15.126 36.5945 15.126ZM36.5945 14.02C37.3412 14.02 37.8965 13.698 38.2605 13.054C38.6339 12.41 38.8205 11.4067 38.8205 10.044C38.8205 8.68133 38.6339 7.68733 38.2605 7.062C37.8965 6.42733 37.3412 6.11 36.5945 6.11C35.8572 6.11 35.3019 6.42733 34.9285 7.062C34.5552 7.68733 34.3685 8.68133 34.3685 10.044C34.3685 11.4067 34.5552 12.41 34.9285 13.054C35.3019 13.698 35.8572 14.02 36.5945 14.02ZM44.9891 15.126C43.8597 15.126 42.9917 14.692 42.3851 13.824C41.7784 12.9467 41.4751 11.6913 41.4751 10.058C41.4751 8.39667 41.7784 7.14133 42.3851 6.292C42.9917 5.43333 43.8597 5.004 44.9891 5.004C46.1277 5.004 46.9957 5.43333 47.5931 6.292C48.1997 7.14133 48.5031 8.392 48.5031 10.044C48.5031 11.6867 48.1997 12.9467 47.5931 13.824C46.9864 14.692 46.1184 15.126 44.9891 15.126ZM44.9891 14.02C45.7357 14.02 46.2911 13.698 46.6551 13.054C47.0284 12.41 47.2151 11.4067 47.2151 10.044C47.2151 8.68133 47.0284 7.68733 46.6551 7.062C46.2911 6.42733 45.7357 6.11 44.9891 6.11C44.2517 6.11 43.6964 6.42733 43.3231 7.062C42.9497 7.68733 42.7631 8.68133 42.7631 10.044C42.7631 11.4067 42.9497 12.41 43.3231 13.054C43.6964 13.698 44.2517 14.02 44.9891 14.02ZM52.8936 14.468V11.458H49.9256V10.506H52.8936V7.566H53.8736V10.506H56.8416V11.458H53.8736V14.468H52.8936Z" fill="#031025"/>
<circle cx="8.50098" cy="5" r="3.4" stroke="#888D95" stroke-width="1.2"/>
<path d="M16 16.0003C16 12.6866 12.6421 9.00031 8.5 9.00031C4.35786 9.00031 1 12.6866 1 16.0003" stroke="#888D95" stroke-width="1.2" stroke-linecap="round"/>
<path d="M98.368 16.126C97.9387 16.126 97.514 16.0793 97.094 15.986C96.6833 15.8927 96.296 15.762 95.932 15.594C95.568 15.4167 95.2507 15.202 94.98 14.95L95.442 13.942C95.8993 14.306 96.366 14.5767 96.842 14.754C97.318 14.922 97.8173 15.006 98.34 15.006C99.0307 15.006 99.572 14.824 99.964 14.46C100.356 14.096 100.552 13.6107 100.552 13.004C100.552 12.3787 100.365 11.8747 99.992 11.492C99.6187 11.1 99.1007 10.904 98.438 10.904C97.9807 10.904 97.5653 10.9973 97.192 11.184C96.828 11.3613 96.506 11.646 96.226 12.038H95.302V6.13H101.224V7.236H96.562V10.974H96.226C96.478 10.6007 96.8187 10.3113 97.248 10.106C97.6867 9.90067 98.1767 9.798 98.718 9.798C99.3527 9.798 99.8987 9.92867 100.356 10.19C100.823 10.4513 101.182 10.82 101.434 11.296C101.695 11.7627 101.826 12.3087 101.826 12.934C101.826 13.5593 101.686 14.1147 101.406 14.6C101.126 15.076 100.725 15.4493 100.202 15.72C99.6887 15.9907 99.0773 16.126 98.368 16.126ZM106.595 16.126C105.465 16.126 104.597 15.692 103.991 14.824C103.384 13.9467 103.081 12.6913 103.081 11.058C103.081 9.39667 103.384 8.14133 103.991 7.292C104.597 6.43333 105.465 6.004 106.595 6.004C107.733 6.004 108.601 6.43333 109.199 7.292C109.805 8.14133 110.109 9.392 110.109 11.044C110.109 12.6867 109.805 13.9467 109.199 14.824C108.592 15.692 107.724 16.126 106.595 16.126ZM106.595 15.02C107.341 15.02 107.897 14.698 108.261 14.054C108.634 13.41 108.821 12.4067 108.821 11.044C108.821 9.68133 108.634 8.68733 108.261 8.062C107.897 7.42733 107.341 7.11 106.595 7.11C105.857 7.11 105.302 7.42733 104.929 8.062C104.555 8.68733 104.369 9.68133 104.369 11.044C104.369 12.4067 104.555 13.41 104.929 14.054C105.302 14.698 105.857 15.02 106.595 15.02Z" fill="#031025"/>
<path d="M77.8214 7.66071H76.3214C76.1143 7.66071 75.9464 7.82861 75.9464 8.03571C75.9464 8.2428 76.1143 8.41071 76.3214 8.41071H77.8214C78.0285 8.41071 78.1964 8.2428 78.1964 8.03571C78.1964 7.82861 78.0285 7.66071 77.8214 7.66071ZM83.4464 4.28571H78.5714V2.03571H79.6964C79.9035 2.03571 80.0714 1.8678 80.0714 1.66071C80.0714 1.45361 79.9035 1.28571 79.6964 1.28571H78.196C77.989 1.28584 77.8213 1.4537 77.8214 1.66071V4.28571H75.1964C73.7474 4.28744 72.5732 5.4617 72.5714 6.91071V12.1611C72.5715 12.3681 72.7394 12.5358 72.9464 12.5357H77.8214V15.9111C77.8215 16.1181 77.9894 16.2858 78.1964 16.2857H78.1969C78.4038 16.2856 78.5715 16.1177 78.5714 15.9107V12.5357H85.6969C85.9038 12.5356 86.0715 12.3677 86.0714 12.1607V6.91071C86.0714 5.46097 84.8961 4.28571 83.4464 4.28571ZM80.8214 11.7857H73.3214V6.91071C73.3224 5.87556 74.1613 5.03667 75.1964 5.03571H81.6131C81.1257 5.51228 80.8214 6.17517 80.8214 6.91071V11.7857ZM85.3214 11.7857H81.5714V6.91071C81.5714 5.87515 82.4109 5.03571 83.4464 5.03571C84.4816 5.03667 85.3204 5.87556 85.3214 6.91071V11.7857Z" fill="#888D95" stroke="#888D95" stroke-width="0.242857"/>
</svg>
