<svg width="257" height="76" viewBox="0 0 257 76" fill="none" xmlns="http://www.w3.org/2000/svg">
<path d="M85.9833 34.5L96.8333 28.0833C98 27.3833 99.5167 27.3833 100.683 28.0833C101.967 28.6667 102.667 30.0667 102.667 31.4667V44.5333C102.667 45.9333 101.967 47.3333 100.683 48.0333C99.5167 48.7333 98 48.7333 96.8333 48.0333L85.9833 41.5C84.1167 40.3333 83.5333 37.8833 84.7 35.9C84.9333 35.3167 85.4 34.85 85.9833 34.5ZM80.5 27.5C81.2 27.5 81.6667 27.9667 81.6667 28.6667V47.3333C81.6667 48.0333 81.2 48.5 80.5 48.5C79.8 48.5 79.3333 48.0333 79.3333 47.3333V28.6667C79.3333 27.9667 79.8 27.5 80.5 27.5Z" fill="#031025"/>
<path d="M167.002 6.33228C149.585 6.33228 135.335 20.5823 135.335 37.9989C135.335 55.4156 149.585 69.6656 167.002 69.6656C184.419 69.6656 198.669 55.4156 198.669 37.9989C198.669 20.5823 184.419 6.33228 167.002 6.33228Z" fill="#031025"/>
<rect x="156.5" y="29" width="8" height="19" rx="3" fill="white"/>
<rect x="169.5" y="29" width="8" height="19" rx="3" fill="white"/>
<path d="M248.017 34.5L237.167 28.0833C236 27.3833 234.483 27.3833 233.317 28.0833C232.033 28.6667 231.333 30.0667 231.333 31.4667V44.5333C231.333 45.9333 232.033 47.3333 233.317 48.0333C234.483 48.7333 236 48.7333 237.167 48.0333L248.017 41.5C249.883 40.3333 250.467 37.8833 249.3 35.9C249.067 35.3167 248.6 34.85 248.017 34.5ZM253.5 27.5C252.8 27.5 252.333 27.9667 252.333 28.6667V47.3333C252.333 48.0333 252.8 48.5 253.5 48.5C254.2 48.5 254.667 48.0333 254.667 47.3333V28.6667C254.667 27.9667 254.2 27.5 253.5 27.5Z" fill="#031025"/>
<path d="M1.92 45V43.608H4.544V35.128H5.376L2.176 37.08V35.48L5.008 33.72H6.208V43.608H8.672V45H1.92ZM9.62575 45L13.2898 40.456V41.224L9.81775 36.936H11.7538L14.2018 40.088H13.6258L16.0738 36.936H17.9938L14.5538 41.208V40.472L18.2018 45H16.2658L13.6258 41.624H14.2018L11.5458 45H9.62575Z" fill="#031025"/>
</svg>
