<svg width="32" height="32" viewBox="0 0 32 32" fill="none" xmlns="http://www.w3.org/2000/svg">
<path d="M16 32C24.8366 32 32 24.8366 32 16C32 7.16344 24.8366 0 16 0C7.16344 0 0 7.16344 0 16C0 24.8366 7.16344 32 16 32Z" fill="#EAF1FD"/>
<path d="M12.3271 27.1295C12.4948 25.6702 12.985 20.2466 12.0197 20.1132C11.1761 19.9966 6.78458 29.0808 6.78458 29.0808C6.78458 29.0808 7.94997 29.8342 8.35397 30.0578C8.98373 30.4063 10.1163 30.883 10.1163 30.883L12.3271 27.1295Z" fill="#1E2248"/>
<path d="M19.4305 31.6311L19.6138 20.991L13.5314 21.4139L13.2209 31.7596C13.2209 31.7596 14.5318 32.0194 16.3826 31.9954C18.1164 31.9729 19.4305 31.6311 19.4305 31.6311Z" fill="#3079EC"/>
<path d="M19.3949 8.35711C22.3415 12.0742 21.8596 17.2228 21.0787 18.2185C20.0354 19.5486 14.5311 18.6954 12.2188 19.021C11.7763 19.0833 10.2703 14.2226 12.1075 9.37526C12.9949 7.03358 17.6185 6.11631 19.3949 8.35711Z" fill="#111329"/>
<path d="M15.895 22.8347C14.6494 22.5372 13.3632 21.0891 12.8416 20.3801C12.8416 20.3801 13.6072 19.6878 13.9291 19.567C16.038 18.776 16.9246 18.4825 19.5471 19.3466C19.8575 19.4489 20.7193 19.9258 20.7193 19.9258C20.7033 20.0249 17.5206 23.223 15.895 22.8347Z" fill="url(#paint0_linear_1_2311)"/>
<path d="M15.5678 15.5382L18.2574 15.5063C18.331 15.5054 18.3915 15.576 18.3925 15.664L18.4293 18.885C18.4409 19.8609 17.7005 20.4453 16.8842 20.455C16.0679 20.4646 15.4846 19.7615 15.473 18.7855L15.4363 15.699C15.4354 15.6112 15.4942 15.5392 15.5678 15.5382Z" fill="url(#paint1_linear_1_2311)"/>
<path d="M12.6858 13.4198C12.7118 13.7979 13.0363 14.0835 13.4107 14.0578C13.7851 14.0322 14.0676 13.7048 14.0416 13.3267C14.0157 12.9487 13.6911 12.663 13.3167 12.6887C12.9423 12.7144 12.6599 13.0418 12.6858 13.4198Z" fill="url(#paint2_linear_1_2311)"/>
<path d="M15.6116 9.07284C17.1353 8.96819 18.4577 10.1533 18.5653 11.7199L18.7428 14.3058C18.8504 15.8723 17.2896 17.2531 15.847 17.3547C14.2481 17.4671 13.3325 16.2512 13.2249 14.6848L13.0474 12.0988C12.9399 10.5321 14.0879 9.17739 15.6116 9.07284Z" fill="#FFD0CE"/>
<path d="M13.5379 8.16089C14.2174 7.55163 16.029 6.96391 17.788 8.28763C19.5882 9.64228 18.9127 12.4605 18.6033 12.2607C17.5796 11.5998 17.6886 10.561 16.7693 10.5875C16.0285 10.6087 14.9629 12.6558 12.5285 13.164C12.339 13.2036 11.9607 11.8614 12.0291 11.2014C12.2255 9.30361 12.9821 8.65929 13.5379 8.16089Z" fill="#111329"/>
<path d="M15.6542 12.8234L15.6693 13.0449C15.7012 13.5142 16.0834 13.872 16.5216 13.8424L16.7282 13.8285C17.2801 13.7913 17.6967 13.2798 17.6565 12.6884C17.6397 12.4409 17.438 12.2522 17.2069 12.2677L16.0427 12.3462C15.8117 12.3618 15.6374 12.5758 15.6542 12.8234ZM15.794 12.8139C15.7828 12.6488 15.899 12.5062 16.053 12.4958L17.2172 12.4173C17.3713 12.4068 17.5056 12.5326 17.5169 12.6977C17.5514 13.2067 17.1931 13.6467 16.7181 13.6788L16.5114 13.6927C16.1504 13.717 15.8352 13.4221 15.809 13.0353L15.794 12.8139ZM14.3756 12.4586L13.2114 12.5371C12.9803 12.5527 12.806 12.7667 12.8228 13.0143C12.863 13.6057 13.3448 14.0566 13.8968 14.0194L14.1034 14.0055C14.5415 13.976 14.872 13.5701 14.8401 13.1007L14.8251 12.8793C14.8083 12.6317 14.6067 12.443 14.3756 12.4586ZM14.7005 13.1101C14.7267 13.4969 14.4544 13.8314 14.0933 13.8558L13.8867 13.8697C13.4117 13.9018 12.997 13.5137 12.9625 13.0049C12.9513 12.8398 13.0675 12.6972 13.2215 12.6867L14.3857 12.6082C14.5398 12.5979 14.6743 12.7236 14.6855 12.8887L14.7005 13.1101ZM14.9104 12.8728C15.0932 12.7017 15.3653 12.6807 15.5719 12.8218C15.6014 12.842 15.6102 12.8837 15.5917 12.915C15.5733 12.9462 15.5344 12.9555 15.5048 12.9353C15.3452 12.8264 15.1351 12.8425 14.9938 12.9746C14.983 12.9847 14.97 12.9901 14.9567 12.991C14.9377 12.9923 14.9183 12.9844 14.9049 12.9679C14.8819 12.9398 14.8842 12.8972 14.9104 12.8728Z" fill="#1A1B5C"/>
<path d="M19.3333 12.9696C19.3077 12.5916 18.9834 12.3056 18.609 12.3309C18.2346 12.3562 17.9518 12.6832 17.9774 13.0613C18.003 13.4394 18.3272 13.7254 18.7016 13.7001C19.076 13.6748 19.3588 13.3477 19.3333 12.9696Z" fill="url(#paint3_linear_1_2311)"/>
<path d="M23.2646 30.2523C23.2287 28.6894 23.2902 21.5359 22.6166 20.8444C21.937 20.1467 18.5984 18.9014 18.5984 18.9014C18.5984 18.9014 19.2967 28.8349 18.0051 31.8689C18.0051 31.8689 19.4518 31.669 20.6848 31.303C22.2161 30.8485 23.2646 30.2523 23.2646 30.2523ZM14.8061 31.9493C13.3628 20.9908 15.3897 18.8215 15.3897 18.8215C15.3897 18.8215 12.684 19.5517 12.1536 20.2467C11.3013 21.3634 10.7626 29.2234 10.5566 31.0496C10.5566 31.0496 11.6916 31.4356 12.3647 31.5848C13.5445 31.8463 14.8061 31.9493 14.8061 31.9493Z" fill="#22254F"/>
<path d="M25.763 28.6762C25.3624 26.547 23.8104 20.0448 22.5617 20.4549C21.4012 20.8359 21.536 29.4394 21.5729 31.0026C21.5729 31.0026 22.8599 30.5103 23.9601 29.8828C24.9142 29.3385 25.763 28.6762 25.763 28.6762Z" fill="#1E2248"/>
<defs>
<linearGradient id="paint0_linear_1_2311" x1="17.7989" y1="18.3345" x2="8.76959" y2="35.1777" gradientUnits="userSpaceOnUse">
<stop stop-color="#FFD0CE"/>
<stop offset="1" stop-color="#F4AAA7"/>
</linearGradient>
<linearGradient id="paint1_linear_1_2311" x1="17.9082" y1="20.1311" x2="15.5806" y2="15.5189" gradientUnits="userSpaceOnUse">
<stop stop-color="#FFD0CE"/>
<stop offset="1" stop-color="#F4AAA7"/>
</linearGradient>
<linearGradient id="paint2_linear_1_2311" x1="13.9839" y1="13.3246" x2="12.6282" y2="13.4177" gradientUnits="userSpaceOnUse">
<stop stop-color="#FFD0CE"/>
<stop offset="1" stop-color="#F4AAA7"/>
</linearGradient>
<linearGradient id="paint3_linear_1_2311" x1="18.0059" y1="13.1339" x2="19.3619" y2="13.0422" gradientUnits="userSpaceOnUse">
<stop stop-color="#FFD0CE"/>
<stop offset="1" stop-color="#F4AAA7"/>
</linearGradient>
</defs>
</svg>
