<svg width="21" height="20" viewBox="0 0 21 20" fill="none" xmlns="http://www.w3.org/2000/svg">
<g style="mix-blend-mode:luminosity">
<path d="M10.835 18.67C15.4383 18.67 19.17 14.9383 19.17 10.335C19.17 5.73171 15.4383 2 10.835 2C6.23171 2 2.5 5.73171 2.5 10.335C2.5 14.9383 6.23171 18.67 10.835 18.67Z" fill="#ECEEFF"/>
<path d="M8.92135 16.1328C9.00873 15.3726 9.26406 12.5473 8.76119 12.4778C8.32175 12.417 6.03404 17.1493 6.03404 17.1493C6.03404 17.1493 6.64114 17.5418 6.8516 17.6583C7.17966 17.8398 7.76966 18.0882 7.76966 18.0882L8.92135 16.1328Z" fill="#1E2248"/>
<path d="M12.6224 18.4777L12.7179 12.9349L9.5493 13.1552L9.38757 18.5446C9.38757 18.5446 10.0705 18.68 11.0346 18.6675C11.9378 18.6558 12.6224 18.4777 12.6224 18.4777Z" fill="#5FCB57"/>
<path d="M12.6036 6.35355C14.1386 8.28993 13.8876 10.972 13.4808 11.4907C12.9373 12.1836 10.0699 11.7391 8.86537 11.9087C8.63488 11.9412 7.85033 9.4091 8.80738 6.88394C9.2697 5.66407 11.6783 5.18623 12.6036 6.35355Z" fill="#111329"/>
<path d="M10.78 13.8956C10.1311 13.7406 9.4611 12.9862 9.18936 12.6169C9.18936 12.6169 9.5882 12.2562 9.7559 12.1933C10.8545 11.7813 11.3164 11.6283 12.6825 12.0785C12.8442 12.1318 13.2932 12.3802 13.2932 12.3802C13.2848 12.4318 11.6269 14.0979 10.78 13.8956Z" fill="url(#paint0_linear_164_114)"/>
<path d="M10.6095 10.0943L12.0106 10.0776C12.0489 10.0772 12.0805 10.114 12.081 10.1598L12.1002 11.8378C12.1062 12.3462 11.7205 12.6506 11.2952 12.6556C10.87 12.6606 10.5661 12.2943 10.5601 11.7859L10.541 10.178C10.5405 10.1323 10.5711 10.0948 10.6095 10.0943Z" fill="url(#paint1_linear_164_114)"/>
<path d="M9.10926 8.99083C9.12278 9.18777 9.29185 9.33657 9.48689 9.3232C9.68192 9.30983 9.82905 9.13928 9.81554 8.94234C9.80202 8.74539 9.63294 8.59659 9.43791 8.60997C9.24287 8.62334 9.09574 8.79388 9.10926 8.99083Z" fill="url(#paint2_linear_164_114)"/>
<path d="M10.6324 6.72649C11.4262 6.67198 12.115 7.28936 12.1711 8.10545L12.2636 9.45257C12.3196 10.2686 11.5065 10.9879 10.755 11.0408C9.92206 11.0994 9.4451 10.466 9.38907 9.64995L9.2966 8.30283C9.24062 7.4867 9.83865 6.78096 10.6324 6.72649Z" fill="#FFD0CE"/>
<path d="M9.55296 6.25114C9.90693 5.93376 10.8507 5.62759 11.767 6.31717C12.7048 7.02285 12.3529 8.49095 12.1917 8.38687C11.6584 8.0426 11.7152 7.50148 11.2363 7.51524C10.8504 7.52631 10.2953 8.59273 9.02712 8.85746C8.92838 8.87808 8.73134 8.17886 8.76694 7.83507C8.86926 6.84643 9.26339 6.51078 9.55296 6.25114Z" fill="#111329"/>
<path d="M10.6553 8.68012L10.6631 8.79546C10.6797 9.03996 10.8789 9.22633 11.1071 9.21095L11.2147 9.2037C11.5023 9.18431 11.7192 8.91786 11.6983 8.60978C11.6896 8.48082 11.5845 8.38252 11.4641 8.3906L10.8577 8.4315C10.7373 8.43963 10.6465 8.55111 10.6553 8.68012ZM10.7281 8.67517C10.7222 8.58916 10.7828 8.51486 10.863 8.50942L11.4695 8.46853C11.5497 8.46309 11.6197 8.52862 11.6256 8.61463C11.6436 8.87975 11.4569 9.10898 11.2095 9.12568L11.1018 9.13293C10.9137 9.14561 10.7496 8.99197 10.7359 8.79047L10.7281 8.67517ZM9.98916 8.49003L9.3827 8.53093C9.26231 8.53906 9.17151 8.65053 9.18027 8.77954C9.20119 9.08762 9.4522 9.32253 9.73976 9.30313L9.84737 9.29588C10.0756 9.2805 10.2478 9.06906 10.2312 8.82456L10.2233 8.70921C10.2146 8.58025 10.1096 8.48195 9.98916 8.49003ZM10.1584 8.82945C10.1721 9.03095 10.0302 9.20522 9.84213 9.21791L9.73447 9.22515C9.48703 9.24186 9.27103 9.03972 9.25305 8.77465C9.24722 8.68864 9.30776 8.61434 9.38799 8.6089L9.99445 8.568C10.0747 8.56262 10.1448 8.6281 10.1506 8.71411L10.1584 8.82945ZM10.2678 8.70583C10.363 8.61669 10.5048 8.60577 10.6124 8.67928C10.6277 8.68976 10.6324 8.71151 10.6227 8.72782C10.6131 8.74408 10.5928 8.74888 10.5774 8.7384C10.4943 8.68164 10.3848 8.69006 10.3112 8.75888C10.3056 8.76412 10.2988 8.76696 10.2919 8.7674C10.282 8.76808 10.2719 8.76397 10.2649 8.75535C10.2529 8.74075 10.2541 8.71852 10.2678 8.70583Z" fill="#1A1B5C"/>
<path d="M12.5716 8.75649C12.5583 8.55954 12.3893 8.41055 12.1943 8.42372C11.9993 8.43695 11.8519 8.6073 11.8653 8.80424C11.8786 9.00119 12.0475 9.15018 12.2425 9.137C12.4376 9.12383 12.5849 8.95343 12.5716 8.75649Z" fill="url(#paint3_linear_164_114)"/>
<path d="M14.6201 17.7597C14.6014 16.9455 14.6334 13.219 14.2825 12.8588C13.9285 12.4953 12.1893 11.8466 12.1893 11.8466C12.1893 11.8466 12.5531 17.0213 11.8802 18.6018C11.8802 18.6018 12.6338 18.4977 13.2761 18.307C14.0738 18.0703 14.6201 17.7597 14.6201 17.7597ZM10.2137 18.6437C9.46184 12.935 10.5177 11.8049 10.5177 11.8049C10.5177 11.8049 9.10821 12.1854 8.83192 12.5474C8.38793 13.1291 8.10733 17.2237 8.00002 18.175C8.00002 18.175 8.59124 18.3761 8.94188 18.4538C9.55652 18.59 10.2137 18.6437 10.2137 18.6437Z" fill="#22254F"/>
<path d="M15.921 16.9385C15.7123 15.8293 14.9038 12.4421 14.2533 12.6557C13.6488 12.8542 13.719 17.336 13.7382 18.1504C13.7382 18.1504 14.4087 17.8939 14.9818 17.567C15.4789 17.2835 15.921 16.9385 15.921 16.9385Z" fill="#1E2248"/>
</g>
<defs>
<linearGradient id="paint0_linear_164_114" x1="11.7718" y1="11.5512" x2="7.0681" y2="20.3255" gradientUnits="userSpaceOnUse">
<stop stop-color="#FFD0CE"/>
<stop offset="1" stop-color="#F4AAA7"/>
</linearGradient>
<linearGradient id="paint1_linear_164_114" x1="11.8287" y1="12.4869" x2="10.6162" y2="10.0842" gradientUnits="userSpaceOnUse">
<stop stop-color="#FFD0CE"/>
<stop offset="1" stop-color="#F4AAA7"/>
</linearGradient>
<linearGradient id="paint2_linear_164_114" x1="9.7855" y1="8.94123" x2="9.07922" y2="8.98973" gradientUnits="userSpaceOnUse">
<stop stop-color="#FFD0CE"/>
<stop offset="1" stop-color="#F4AAA7"/>
</linearGradient>
<linearGradient id="paint3_linear_164_114" x1="11.8801" y1="8.84206" x2="12.5865" y2="8.79428" gradientUnits="userSpaceOnUse">
<stop stop-color="#FFD0CE"/>
<stop offset="1" stop-color="#F4AAA7"/>
</linearGradient>
</defs>
</svg>
