<svg width="24" height="24" viewBox="0 0 24 24" fill="none" xmlns="http://www.w3.org/2000/svg">
<path d="M3 11C3 9.89543 3.89543 9 5 9H7V15H5C3.89543 15 3 14.1046 3 13V11Z" fill="#031025"/>
<path d="M7 9L11.94 5.9125C13.2721 5.07994 15 6.03762 15 7.6085V16.3915C15 17.9624 13.2721 18.9201 11.94 18.0875L7 15V9Z" fill="#031025"/>
<path d="M16.9951 9.99878C17.6382 10.611 17.9951 11.2875 17.9951 11.9988C17.9951 12.71 17.6382 13.3865 16.9951 13.9988" stroke="#031025" stroke-linecap="round"/>
<path d="M19 7.5C20.2862 8.87754 21 10.3996 21 12C21 13.6004 20.2862 15.1225 19 16.5" stroke="#031025" stroke-linecap="round"/>
</svg>
