<svg width="100" height="92" viewBox="0 0 100 92" fill="none" xmlns="http://www.w3.org/2000/svg">
<g clip-path="url(#clip0_1_919)">
<rect width="100" height="92" rx="9.00901" fill="#505CF1"/>
<path d="M20.5418 67.0354C11.2867 64.1911 3.16027 70.4926 0 73.3486V92.5136L95.5158 92.0828C97.9956 92.0717 100 90.0582 100 87.5784V44.9394C82.8442 36.597 73.8149 48.3214 67.4944 55.7619C61.1738 63.2025 40.8734 72.7875 36.1174 71.9958C33.4086 71.5449 31.3315 70.3515 20.5418 67.0354Z" fill="#434DCA"/>
<path d="M33.8347 72.0857C25.7973 81.3143 8.2707 84.2816 0 84.2068V92.063H95.4955C97.9833 92.063 100 90.0463 100 87.5585V56.8222C98.2721 57.2585 95.7171 58.6118 91.3537 59.5157C87.815 60.2488 82.5567 61.3115 76.9175 59.5157C67.7399 56.5932 61.7216 53.6449 55.4889 55.0265C46.7914 56.9545 39.6994 65.3519 33.8347 72.0857Z" fill="#1BD2FB"/>
<path d="M13.6634 23.6357V16.203H10.7722V14.8877H18.1553V16.203H15.2641V23.6357H13.6634ZM19.2862 23.6357V14.8877H20.8869V18.5358H25.3664V14.8877H26.9671V23.6357H25.3664V19.8635H20.8869V23.6357H19.2862ZM28.8956 23.6357V14.8877H34.7896V16.141H30.4342V18.5606H34.5042V19.8263H30.4342V22.3701H34.7896V23.6357H28.8956ZM36.2753 23.6357V14.8877H40.0971C41.0567 14.8877 41.7971 15.1152 42.3182 15.5702C42.8477 16.0252 43.1124 16.658 43.1124 17.4687C43.1124 18.0064 42.9924 18.4655 42.7525 18.846C42.5209 19.2266 42.1859 19.5202 41.7474 19.7271C41.309 19.9256 40.792 20.0249 40.1964 20.0249L40.3701 19.7891H40.792C41.1394 19.7891 41.4496 19.8801 41.7226 20.0621C41.9956 20.2441 42.219 20.5212 42.3927 20.8935L43.6708 23.6357H41.9088L40.6183 20.7942C40.5024 20.5047 40.3246 20.3144 40.0847 20.2234C39.8531 20.1324 39.5718 20.0869 39.2409 20.0869H37.876V23.6357H36.2753ZM37.876 18.9081H39.8365C40.399 18.9081 40.8251 18.7923 41.1146 18.5606C41.4124 18.3208 41.5613 17.9733 41.5613 17.5183C41.5613 17.0634 41.4124 16.72 41.1146 16.4884C40.8251 16.2568 40.399 16.141 39.8365 16.141H37.876V18.9081ZM43.8625 23.6357L47.8208 14.8877H49.161L53.1689 23.6357H51.5434L50.4763 21.1789L51.1215 21.6132H45.8727L46.5428 21.1789L45.4756 23.6357H43.8625ZM48.4785 16.6001L46.7289 20.7446L46.4063 20.3599H50.5755L50.315 20.7446L48.5281 16.6001H48.4785ZM54.1368 23.6357V14.8877H58.0207C58.9803 14.8877 59.7124 15.1193 60.217 15.5826C60.7216 16.0459 60.9739 16.6828 60.9739 17.4935C60.9739 18.2959 60.7216 18.9329 60.217 19.4044C59.7124 19.876 58.9803 20.1117 58.0207 20.1117H55.7375V23.6357H54.1368ZM55.7375 18.846H57.8345C58.364 18.846 58.761 18.7302 59.0257 18.4986C59.2905 18.2587 59.4228 17.9237 59.4228 17.4935C59.4228 17.0634 59.2905 16.7325 59.0257 16.5008C58.761 16.2609 58.364 16.141 57.8345 16.141H55.7375V18.846ZM64.499 23.6357V19.5037L64.834 20.4592L61.0742 14.8877H62.9231L65.5041 18.8585H65.1566L67.7376 14.8877H69.5244L65.7771 20.4592L66.0997 19.5037V23.6357H64.499Z" fill="white"/>
<circle cx="19" cy="41" r="8" fill="#434DCA"/>
<circle cx="82" cy="15" r="4" fill="#434DCA"/>
</g>
<defs>
<clipPath id="clip0_1_919">
<rect width="100" height="92" rx="12" fill="white"/>
</clipPath>
</defs>
</svg>
