<svg width="101" height="100" viewBox="0 0 101 100" fill="none" xmlns="http://www.w3.org/2000/svg">
<rect y="0.244141" width="100.155" height="93.064" rx="12" fill="#ECA532"/>
<path d="M15.2521 24.0042C14.003 24.0042 13.0723 23.694 12.4602 23.0735C11.8563 22.4448 11.5543 21.5183 11.5543 20.294V15.1321H13.155V20.2816C13.155 21.0592 13.3205 21.6466 13.6514 22.0436C13.9906 22.4407 14.5241 22.6392 15.2521 22.6392C15.947 22.6392 16.4681 22.4407 16.8156 22.0436C17.1713 21.6466 17.3491 21.0592 17.3491 20.2816V15.1321H18.925V20.294C18.925 21.5183 18.6148 22.4448 17.9944 23.0735C17.3822 23.694 16.4681 24.0042 15.2521 24.0042ZM23.8417 24.0042C23.1386 24.0042 22.4892 23.9173 21.8936 23.7436C21.3062 23.5616 20.8016 23.3134 20.3797 22.9991L20.8761 21.7458C21.1573 21.9444 21.451 22.1139 21.7571 22.2546C22.0631 22.3869 22.3899 22.4903 22.7373 22.5648C23.0848 22.631 23.4529 22.6641 23.8417 22.6641C24.4952 22.6641 24.9667 22.5565 25.2563 22.3414C25.5458 22.1264 25.6906 21.8451 25.6906 21.4977C25.6906 21.1916 25.5913 20.96 25.3928 20.8028C25.1942 20.6373 24.8385 20.5008 24.3256 20.3933L22.9235 20.1079C22.1211 19.9425 21.5213 19.6653 21.1242 19.2765C20.7272 18.8877 20.5286 18.3666 20.5286 17.7131C20.5286 17.1671 20.6734 16.6914 20.9629 16.2861C21.2525 15.8807 21.6578 15.5664 22.179 15.343C22.7001 15.1197 23.3081 15.008 24.003 15.008C24.6234 15.008 25.1984 15.099 25.7278 15.281C26.2572 15.4547 26.6998 15.707 27.0555 16.0379L26.5592 17.2291C26.2035 16.9313 25.8147 16.7121 25.3928 16.5715C24.9709 16.4226 24.4994 16.3481 23.9782 16.3481C23.3909 16.3481 22.9317 16.4639 22.6008 16.6956C22.2782 16.9189 22.1169 17.2291 22.1169 17.6262C22.1169 17.9323 22.2162 18.1763 22.4147 18.3583C22.6215 18.5403 22.969 18.6809 23.457 18.7802L24.8468 19.0532C25.674 19.2186 26.2862 19.4916 26.6833 19.8721C27.0803 20.2444 27.2789 20.749 27.2789 21.386C27.2789 21.9071 27.1382 22.3663 26.857 22.7633C26.5757 23.1521 26.1786 23.4582 25.6658 23.6816C25.1529 23.8966 24.5449 24.0042 23.8417 24.0042ZM28.7869 23.8801V15.1321H34.6809V16.3853H30.3256V18.805H34.3956V20.0707H30.3256V22.6144H34.6809V23.8801H28.7869ZM39.2863 19.4999C39.2863 18.5817 39.4517 17.7875 39.7826 17.1174C40.1218 16.4474 40.6057 15.9304 41.2344 15.5664C41.8631 15.1941 42.6118 15.008 43.4803 15.008C44.3407 15.008 45.0852 15.1941 45.7139 15.5664C46.3426 15.9304 46.8265 16.4474 47.1657 17.1174C47.5131 17.7875 47.6868 18.5775 47.6868 19.4875C47.6868 20.4057 47.5131 21.204 47.1657 21.8823C46.8265 22.5524 46.3426 23.0735 45.7139 23.4458C45.0852 23.8181 44.3407 24.0042 43.4803 24.0042C42.6118 24.0042 41.8631 23.8181 41.2344 23.4458C40.614 23.0735 40.1342 22.5524 39.795 21.8823C39.4558 21.204 39.2863 20.4098 39.2863 19.4999ZM40.9614 19.4999C40.9614 20.4843 41.1724 21.2536 41.5943 21.8079C42.0161 22.3621 42.6448 22.6392 43.4803 22.6392C44.291 22.6392 44.9156 22.3621 45.354 21.8079C45.7925 21.2536 46.0117 20.4843 46.0117 19.4999C46.0117 18.5072 45.7925 17.7379 45.354 17.1919C44.9239 16.6459 44.2993 16.3729 43.4803 16.3729C42.6448 16.3729 42.0161 16.6459 41.5943 17.1919C41.1724 17.7379 40.9614 18.5072 40.9614 19.4999ZM49.3385 23.8801V15.1321H55.1085V16.3853H50.9392V18.867H54.8231V20.1203H50.9392V23.8801H49.3385ZM11.604 39.8801V31.1321H14.7806C15.7815 31.1321 16.6253 31.3058 17.3119 31.6532C18.0068 31.9924 18.5321 32.4887 18.8878 33.1423C19.2435 33.7875 19.4214 34.5734 19.4214 35.4999C19.4214 36.4181 19.2435 37.204 18.8878 37.8575C18.5321 38.511 18.0068 39.0115 17.3119 39.3589C16.6253 39.7064 15.7815 39.8801 14.7806 39.8801H11.604ZM13.2047 38.5524H14.6813C15.7402 38.5524 16.526 38.3001 17.0389 37.7955C17.5518 37.2908 17.8082 36.5257 17.8082 35.4999C17.8082 34.4658 17.5518 33.7006 17.0389 33.2043C16.526 32.6997 15.7402 32.4474 14.6813 32.4474H13.2047V38.5524ZM21.0558 39.8801V31.1321H24.8776C25.8372 31.1321 26.5776 31.3596 27.0987 31.8145C27.6282 32.2695 27.8929 32.9024 27.8929 33.7131C27.8929 34.2508 27.7729 34.7099 27.533 35.0904C27.3014 35.4709 26.9664 35.7646 26.528 35.9714C26.0895 36.1699 25.5725 36.2692 24.9769 36.2692L25.1506 36.0334H25.5725C25.9199 36.0334 26.2302 36.1244 26.5031 36.3064C26.7761 36.4884 26.9995 36.7656 27.1732 37.1378L28.4513 39.8801H26.6893L25.3988 37.0385C25.283 36.749 25.1051 36.5587 24.8652 36.4677C24.6336 36.3768 24.3523 36.3313 24.0214 36.3313H22.6565V39.8801H21.0558ZM22.6565 35.1524H24.617C25.1796 35.1524 25.6056 35.0366 25.8951 34.805C26.1929 34.5651 26.3418 34.2177 26.3418 33.7627C26.3418 33.3077 26.1929 32.9644 25.8951 32.7328C25.6056 32.5012 25.1796 32.3853 24.617 32.3853H22.6565V35.1524ZM33.4165 40.0042C32.1674 40.0042 31.2368 39.694 30.6246 39.0735C30.0207 38.4448 29.7188 37.5183 29.7188 36.294V31.1321H31.3195V36.2816C31.3195 37.0592 31.4849 37.6466 31.8158 38.0436C32.155 38.4407 32.6886 38.6392 33.4165 38.6392C34.1114 38.6392 34.6326 38.4407 34.98 38.0436C35.3357 37.6466 35.5136 37.0592 35.5136 36.2816V31.1321H37.0895V36.294C37.0895 37.5183 36.7793 38.4448 36.1588 39.0735C35.5467 39.694 34.6326 40.0042 33.4165 40.0042ZM43.1726 40.0042C42.1881 40.0042 41.3609 39.8222 40.6908 39.4582C40.0208 39.0942 39.5162 38.5772 39.177 37.9071C38.8378 37.2371 38.6683 36.4429 38.6683 35.5247C38.6683 34.5982 38.8502 33.7999 39.2142 33.1299C39.5782 32.4515 40.0994 31.9304 40.7777 31.5664C41.4643 31.1941 42.2874 31.008 43.247 31.008C43.884 31.008 44.4424 31.0949 44.9222 31.2686C45.402 31.434 45.8238 31.6781 46.1878 32.0007L45.6543 33.2415C45.3896 33.0347 45.1372 32.8693 44.8973 32.7452C44.6574 32.6211 44.4093 32.5342 44.1528 32.4846C43.8964 32.4267 43.5986 32.3977 43.2594 32.3977C42.2998 32.3977 41.5719 32.6707 41.0755 33.2167C40.5874 33.7544 40.3434 34.5279 40.3434 35.5371C40.3434 36.5463 40.575 37.3157 41.0383 37.8451C41.5098 38.3745 42.2461 38.6392 43.247 38.6392C43.5862 38.6392 43.9253 38.6062 44.2645 38.54C44.6119 38.4738 44.9511 38.3787 45.282 38.2546L44.9842 38.9246V36.3064H42.9368V35.14H46.3119V39.3465C45.9066 39.5533 45.4226 39.7146 44.8601 39.8305C44.2976 39.9463 43.7351 40.0042 43.1726 40.0042ZM51.1914 40.0042C50.4882 40.0042 49.8389 39.9173 49.2432 39.7436C48.6559 39.5616 48.1513 39.3134 47.7294 38.9991L48.2257 37.7458C48.507 37.9444 48.8007 38.1139 49.1067 38.2546C49.4128 38.3869 49.7396 38.4903 50.087 38.5648C50.4345 38.631 50.8026 38.6641 51.1914 38.6641C51.8449 38.6641 52.3164 38.5565 52.606 38.3414C52.8955 38.1264 53.0403 37.8451 53.0403 37.4977C53.0403 37.1916 52.941 36.96 52.7425 36.8028C52.5439 36.6373 52.1882 36.5008 51.6753 36.3933L50.2732 36.1079C49.4707 35.9425 48.871 35.6653 48.4739 35.2765C48.0768 34.8877 47.8783 34.3666 47.8783 33.7131C47.8783 33.1671 48.0231 32.6914 48.3126 32.2861C48.6021 31.8807 49.0075 31.5664 49.5286 31.343C50.0498 31.1197 50.6578 31.008 51.3527 31.008C51.9731 31.008 52.5481 31.099 53.0775 31.281C53.6069 31.4547 54.0495 31.707 54.4052 32.0379L53.9089 33.2291C53.5531 32.9313 53.1643 32.7121 52.7425 32.5715C52.3206 32.4226 51.849 32.3481 51.3279 32.3481C50.7405 32.3481 50.2814 32.4639 49.9505 32.6956C49.6279 32.9189 49.4666 33.2291 49.4666 33.6262C49.4666 33.9323 49.5659 34.1763 49.7644 34.3583C49.9712 34.5403 50.3186 34.6809 50.8067 34.7802L52.1965 35.0532C53.0237 35.2186 53.6359 35.4916 54.0329 35.8721C54.43 36.2444 54.6285 36.749 54.6285 37.386C54.6285 37.9071 54.4879 38.3663 54.2067 38.7633C53.9254 39.1521 53.5283 39.4582 53.0154 39.6816C52.5026 39.8966 51.8945 40.0042 51.1914 40.0042Z" fill="white"/>
<path fill-rule="evenodd" clip-rule="evenodd" d="M30.6176 68.3398H40.0503V65.3509C40.0503 64.9037 39.7491 64.5378 39.3812 64.5378H31.1695C30.866 64.5378 30.6176 64.8396 30.6176 65.2088V68.3398Z" fill="#B9CAE8"/>
<path fill-rule="evenodd" clip-rule="evenodd" d="M68.316 80.7918V90.108C68.316 91.356 69.1969 92.377 70.273 92.377H88.0139C89.0917 92.377 89.9709 91.356 89.9709 90.108V80.7918C89.9709 79.5439 89.0917 78.5229 88.0139 78.5229H70.2733C69.1955 78.5229 68.3163 79.5439 68.3163 80.7918" fill="#B9CAE8"/>
<path fill-rule="evenodd" clip-rule="evenodd" d="M70.2065 85.45C70.2065 85.5221 70.3137 85.581 70.4434 85.581H88.0232C88.1534 85.581 88.26 85.5221 88.26 85.45C88.26 85.378 88.1534 85.3187 88.0232 85.3187H70.4434C70.3137 85.3187 70.2065 85.3777 70.2065 85.45Z" fill="#E1E9F6"/>
<path fill-rule="evenodd" clip-rule="evenodd" d="M70.9643 84.0837C71.2144 84.3224 71.5491 84.4521 71.8947 84.4442C72.2404 84.4364 72.5688 84.2916 72.8078 84.0418L75.1406 81.5995C75.3613 81.3464 75.476 81.018 75.4607 80.6826C75.4455 80.3472 75.3015 80.0305 75.0587 79.7986C74.8159 79.5666 74.4931 79.4372 74.1573 79.4372C73.8215 79.4373 73.4987 79.5667 73.2559 79.7987L70.9229 82.2413C70.6842 82.4915 70.5546 82.8262 70.5625 83.1718C70.5704 83.5175 70.7152 83.8459 70.9651 84.0849" fill="#AABCDC"/>
<path d="M71.2715 83.7624C71.436 83.9193 71.6562 84.0045 71.8836 83.9992C72.1109 83.9939 72.3269 83.8985 72.4839 83.734L74.8168 81.2915C74.9738 81.127 75.0591 80.9069 75.0539 80.6795C75.0486 80.4521 74.9533 80.2362 74.7888 80.0791C74.6243 79.9221 74.4042 79.8368 74.1769 79.842C73.9495 79.8472 73.7335 79.9426 73.5765 80.1071L71.2434 82.5496C71.0865 82.7141 71.0013 82.9342 71.0066 83.1615C71.012 83.3887 71.1073 83.6046 71.2717 83.7615" fill="#F9CD55"/>
<path d="M71.2717 83.7621C71.1073 83.6051 71.012 83.3893 71.0066 83.162C71.0013 82.9348 71.0865 82.7147 71.2434 82.5502L72.4008 81.338L73.6414 82.5235L72.4842 83.7355C72.3272 83.8999 72.1112 83.9953 71.8839 84.0006C71.6565 84.0059 71.4363 83.9208 71.2717 83.7638" fill="#F44D11"/>
<path d="M74.8186 81.2924L73.6424 82.5242L73.0272 81.936L74.7948 80.0856C74.9572 80.2431 75.0509 80.4584 75.0554 80.6847C75.0598 80.9109 74.9747 81.1298 74.8186 81.2936" fill="#F9CD55"/>
<path d="M72.4859 83.7348C72.3295 83.8983 72.1147 83.9935 71.8885 83.9994C71.6622 84.0054 71.4428 83.9217 71.278 83.7666L73.0273 81.9346L73.6425 82.524L72.4859 83.7348Z" fill="#F44D11"/>
<path fill-rule="evenodd" clip-rule="evenodd" d="M72.5971 81.5264L71.3863 82.7939C71.3621 82.8169 71.3427 82.8446 71.3295 82.8753C71.3162 82.906 71.3094 82.9391 71.3093 82.9726C71.3093 83.006 71.316 83.0391 71.3291 83.0699C71.3423 83.1006 71.3615 83.1284 71.3857 83.1515C71.4099 83.1746 71.4385 83.1925 71.4698 83.2042C71.5012 83.2159 71.5346 83.2211 71.568 83.2195C71.6014 83.2179 71.6341 83.2095 71.6642 83.1948C71.6942 83.1802 71.721 83.1596 71.7428 83.1343L72.9542 81.8667L72.5971 81.5264Z" fill="#FFA484"/>
<path fill-rule="evenodd" clip-rule="evenodd" d="M73.0919 81.0072L72.5978 81.5248L72.9549 81.8651L73.4495 81.3475C73.4917 81.2996 73.5138 81.2371 73.511 81.1733C73.5082 81.1095 73.4807 81.0493 73.4345 81.0052C73.3882 80.9612 73.3267 80.9368 73.2628 80.9371C73.1989 80.9375 73.1376 80.9626 73.0919 81.0072Z" fill="#FFEBBC"/>
<path fill-rule="evenodd" clip-rule="evenodd" d="M74.9403 84.0834C75.1905 84.3221 75.5251 84.4518 75.8708 84.4439C76.2165 84.4361 76.5449 84.2913 76.7839 84.0414L79.1173 81.5992C79.3401 81.3463 79.4565 81.0171 79.4421 80.6804C79.4276 80.3437 79.2834 80.0256 79.0397 79.7929C78.796 79.5601 78.4716 79.4307 78.1346 79.4317C77.7976 79.4327 77.474 79.5642 77.2317 79.7984L74.8989 82.241C74.6602 82.4912 74.5306 82.8258 74.5386 83.1715C74.5465 83.5172 74.6913 83.8456 74.9412 84.0845" fill="#AABCDC"/>
<path d="M75.249 83.7633C75.4136 83.9202 75.6338 84.0054 75.8611 84C76.0885 83.9947 76.3045 83.8994 76.4615 83.7349L78.7943 81.2923C78.8727 81.211 78.9342 81.115 78.9754 81.0099C79.0166 80.9047 79.0366 80.7925 79.0342 80.6796C79.0319 80.5667 79.0073 80.4554 78.9618 80.352C78.9163 80.2486 78.8509 80.1553 78.7692 80.0773C78.6876 79.9993 78.5913 79.9382 78.486 79.8975C78.3806 79.8568 78.2683 79.8373 78.1554 79.8402C78.0425 79.843 77.9313 79.8681 77.8282 79.9141C77.725 79.96 77.632 80.0259 77.5543 80.1079L75.221 82.5505C75.1431 82.6318 75.0821 82.7278 75.0413 82.8328C75.0006 82.9377 74.981 83.0497 74.9836 83.1623C74.9863 83.2749 75.0111 83.3859 75.0567 83.4888C75.1023 83.5918 75.1677 83.6848 75.2493 83.7624" fill="#F9CD55"/>
<path d="M75.2484 83.7621C75.1668 83.6845 75.1014 83.5915 75.0558 83.4886C75.0102 83.3856 74.9854 83.2746 74.9827 83.162C74.9801 83.0495 74.9997 82.9375 75.0404 82.8325C75.0811 82.7275 75.1422 82.6315 75.22 82.5502L76.3775 81.338L77.6184 82.5227L76.4606 83.7346C76.3035 83.8991 76.0876 83.9944 75.8602 83.9997C75.6329 84.0051 75.4127 83.9199 75.2481 83.763" fill="#F44D11"/>
<path d="M78.7941 81.293L77.6185 82.5248L77.0033 81.9365L78.7694 80.0856C78.932 80.243 79.0258 80.4584 79.0302 80.6847C79.0347 80.911 78.9495 81.1298 78.7932 81.2936" fill="#F9CD55"/>
<path d="M76.462 83.7348C76.3055 83.8983 76.0908 83.9935 75.8645 83.9994C75.6383 84.0054 75.4189 83.9217 75.254 83.7666L77.004 81.9346L77.6192 82.5229L76.462 83.7348Z" fill="#F44D11"/>
<path fill-rule="evenodd" clip-rule="evenodd" d="M76.5745 81.5264L75.3632 82.7939C75.3217 82.8419 75.3002 82.9041 75.3033 82.9675C75.3063 83.0308 75.3337 83.0906 75.3797 83.1344C75.4256 83.1782 75.4867 83.2026 75.5501 83.2026C75.6136 83.2025 75.6746 83.1781 75.7205 83.1343L76.9316 81.8667L76.5745 81.5264Z" fill="#FFA484"/>
<path fill-rule="evenodd" clip-rule="evenodd" d="M77.0679 81.0072L76.5739 81.5248L76.9309 81.8651L77.4256 81.3475C77.4678 81.2996 77.4898 81.2371 77.487 81.1733C77.4842 81.1095 77.4568 81.0493 77.4105 81.0052C77.3643 80.9612 77.3027 80.9368 77.2388 80.9371C77.175 80.9375 77.1137 80.9626 77.0679 81.0072Z" fill="#FFEBBC"/>
<path fill-rule="evenodd" clip-rule="evenodd" d="M78.9177 84.0841C79.1679 84.3228 79.5025 84.4525 79.8482 84.4446C80.1939 84.4367 80.5223 84.292 80.7613 84.0421L83.0941 81.5998C83.3094 81.346 83.4196 81.0196 83.4021 80.6872C83.3847 80.3548 83.2408 80.0417 83 79.8119C82.7593 79.5822 82.4398 79.4531 82.107 79.4511C81.7742 79.4491 81.4532 79.5744 81.2097 79.8014L78.8769 82.2439C78.6382 82.4941 78.5086 82.8288 78.5165 83.1745C78.5244 83.5201 78.6693 83.8485 78.9192 84.0875" fill="#AABCDC"/>
<path d="M79.2241 83.762C79.3888 83.919 79.609 84.0042 79.8364 83.9988C80.0638 83.9935 80.2798 83.8981 80.4369 83.7337L82.7703 81.2911C82.9235 81.1259 83.0056 80.907 82.9988 80.6818C82.992 80.4565 82.8968 80.243 82.7338 80.0874C82.5708 79.9318 82.3531 79.8466 82.1278 79.8502C81.9025 79.8538 81.6876 79.9459 81.5297 80.1067L79.1963 82.5493C79.0395 82.7138 78.9544 82.9338 78.9597 83.1611C78.965 83.3883 79.0603 83.6042 79.2247 83.7612" fill="#F9CD55"/>
<path d="M79.2238 83.7621C79.0594 83.6051 78.9641 83.3893 78.9588 83.162C78.9535 82.9348 79.0386 82.7147 79.1954 82.5502L80.3534 81.338L81.5937 82.5227L80.436 83.7346C80.2789 83.8991 80.0629 83.9945 79.8355 83.9998C79.6081 84.0051 79.3878 83.9199 79.2232 83.763" fill="#F44D11"/>
<path d="M82.771 81.2924L81.5954 82.5242L80.9794 81.936L82.7472 80.0856C82.9098 80.243 83.0036 80.4584 83.008 80.6847C83.0125 80.911 82.9273 81.1298 82.771 81.2936" fill="#F9CD55"/>
<path d="M80.4374 83.7348C80.2809 83.8984 80.0661 83.9935 79.8398 83.9994C79.6135 84.0054 79.3941 83.9217 79.2292 83.7666L80.9786 81.9346L81.5946 82.5229L80.4374 83.7348Z" fill="#F44D11"/>
<path fill-rule="evenodd" clip-rule="evenodd" d="M80.5504 81.5264L79.3396 82.7939C79.3157 82.817 79.2967 82.8447 79.2837 82.8753C79.2708 82.906 79.2642 82.9389 79.2643 82.9722C79.2644 83.0054 79.2712 83.0383 79.2844 83.0688C79.2975 83.0994 79.3167 83.127 79.3407 83.1499C79.3648 83.1729 79.3932 83.1907 79.4244 83.2024C79.4555 83.2141 79.4887 83.2193 79.5219 83.2179C79.5551 83.2164 79.5877 83.2083 79.6177 83.1939C79.6477 83.1795 79.6744 83.1592 79.6964 83.1343L80.9075 81.8667L80.5504 81.5264Z" fill="#FFA484"/>
<path fill-rule="evenodd" clip-rule="evenodd" d="M81.044 81.0072L80.5499 81.5248L80.9076 81.8651L81.4016 81.3475C81.4439 81.2996 81.4659 81.2371 81.4631 81.1733C81.4603 81.1095 81.4329 81.0493 81.3866 81.0052C81.3403 80.9612 81.2788 80.9368 81.2149 80.9371C81.151 80.9375 81.0898 80.9626 81.044 81.0072Z" fill="#FFEBBC"/>
<path fill-rule="evenodd" clip-rule="evenodd" d="M82.8927 84.085C83.1428 84.3238 83.4775 84.4534 83.8231 84.4456C84.1688 84.4377 84.4972 84.2929 84.7362 84.0431L87.069 81.6008C87.1886 81.4773 87.2825 81.3314 87.3454 81.1715C87.4084 81.0116 87.439 80.8408 87.4357 80.669C87.4324 80.4971 87.3951 80.3277 87.326 80.1703C87.2569 80.013 87.1573 79.8708 87.0331 79.7521C86.9088 79.6334 86.7623 79.5404 86.602 79.4785C86.4417 79.4166 86.2707 79.387 86.0989 79.3915C85.9271 79.3959 85.7579 79.4343 85.601 79.5045C85.444 79.5746 85.3026 79.675 85.1846 79.8001L82.8513 82.2426C82.6125 82.4928 82.4829 82.8274 82.4908 83.1731C82.4986 83.5188 82.6434 83.8472 82.8932 84.0862" fill="#AABCDC"/>
<path d="M83.2012 83.762C83.3658 83.919 83.5859 84.0041 83.8133 83.9988C84.0406 83.9935 84.2566 83.8981 84.4137 83.7337L86.7473 81.2911C86.9006 81.1259 86.9827 80.907 86.9759 80.6818C86.969 80.4565 86.8738 80.243 86.7108 80.0874C86.5479 79.9318 86.3302 79.8466 86.1048 79.8502C85.8795 79.8538 85.6647 79.9459 85.5067 80.1067L83.1734 82.5493C83.0165 82.7138 82.9314 82.9338 82.9368 83.1611C82.9421 83.3883 83.0374 83.6042 83.2017 83.7612" fill="#F9CD55"/>
<path d="M83.2008 83.7621C83.0364 83.6051 82.9411 83.3893 82.9358 83.162C82.9305 82.9348 83.0156 82.7147 83.1724 82.5502L84.3307 81.338L85.5707 82.5227L84.4135 83.7346C84.2565 83.8991 84.0405 83.9944 83.8132 83.9997C83.5858 84.0051 83.3656 83.9199 83.201 83.763" fill="#F44D11"/>
<path d="M86.7471 81.2924L85.5715 82.5242L84.9554 81.936L86.723 80.0856C86.8857 80.243 86.9796 80.4583 86.9841 80.6846C86.9886 80.9109 86.9034 81.1298 86.7471 81.2936" fill="#F9CD55"/>
<path d="M84.4141 83.7348C84.2577 83.8983 84.0429 83.9935 83.8167 83.9994C83.5904 84.0054 83.371 83.9217 83.2062 83.7666L84.9556 81.9346L85.5716 82.5229L84.4141 83.7348Z" fill="#F44D11"/>
<path fill-rule="evenodd" clip-rule="evenodd" d="M84.527 81.5264L83.3162 82.7939C83.2747 82.8419 83.2533 82.9041 83.2563 82.9675C83.2594 83.0308 83.2867 83.0906 83.3327 83.1344C83.3787 83.1782 83.4397 83.2026 83.5032 83.2026C83.5666 83.2025 83.6277 83.1781 83.6736 83.1343L84.8838 81.8667L84.527 81.5264Z" fill="#FFA484"/>
<path fill-rule="evenodd" clip-rule="evenodd" d="M85.0216 81.0072L84.5278 81.5248L84.8852 81.8651L85.3796 81.3475C85.4218 81.2996 85.4438 81.2371 85.441 81.1733C85.4382 81.1095 85.4108 81.0493 85.3645 81.0052C85.3182 80.9612 85.2567 80.9368 85.1928 80.9371C85.1289 80.9375 85.0677 80.9626 85.0219 81.0072" fill="#FFEBBC"/>
<path fill-rule="evenodd" clip-rule="evenodd" d="M70.9643 91.148C71.2144 91.3868 71.5491 91.5164 71.8947 91.5086C72.2404 91.5007 72.5688 91.3559 72.8078 91.1061L75.1406 88.6635C75.2616 88.5403 75.3568 88.3943 75.4208 88.234C75.4849 88.0736 75.5164 87.9022 75.5136 87.7296C75.5108 87.5569 75.4738 87.3866 75.4046 87.2284C75.3355 87.0703 75.2355 86.9274 75.1107 86.8081C74.9859 86.6889 74.8386 86.5957 74.6774 86.5338C74.5162 86.472 74.3444 86.4428 74.1718 86.4479C73.9992 86.453 73.8294 86.4924 73.6722 86.5637C73.515 86.635 73.3735 86.7369 73.2559 86.8633L70.9229 89.3056C70.6842 89.5558 70.5546 89.8905 70.5625 90.2361C70.5704 90.5818 70.7152 90.9102 70.9651 91.1492" fill="#AABCDC"/>
<path d="M71.2715 90.8259C71.436 90.9829 71.6562 91.0682 71.8836 91.0628C72.111 91.0575 72.3269 90.9621 72.4839 90.7976L74.8167 88.3553C74.8965 88.2742 74.9593 88.1781 75.0015 88.0726C75.0438 87.967 75.0646 87.8542 75.0629 87.7405C75.0611 87.6268 75.0367 87.5146 74.9912 87.4104C74.9457 87.3063 74.8799 87.2122 74.7977 87.1336C74.7155 87.0551 74.6185 86.9937 74.5123 86.953C74.4062 86.9123 74.293 86.8931 74.1794 86.8966C74.0657 86.9 73.9539 86.926 73.8504 86.973C73.7469 87.0201 73.6538 87.0872 73.5765 87.1706L71.2434 89.6151C71.0865 89.7796 71.0013 89.9997 71.0066 90.227C71.012 90.4542 71.1073 90.6701 71.2717 90.8271" fill="#F9CD55"/>
<path d="M71.2717 90.8264C71.1073 90.6695 71.012 90.4536 71.0066 90.2263C71.0013 89.9991 71.0865 89.779 71.2434 89.6145L72.4008 88.4026L73.6414 89.5873L72.4842 90.7989C72.3272 90.9635 72.1112 91.0589 71.8839 91.0642C71.6565 91.0695 71.4363 90.9843 71.2717 90.8273" fill="#F44D11"/>
<path d="M74.8177 88.3566L73.6415 89.5872L73.0263 88.9987L74.7939 87.1483C74.9563 87.3059 75.05 87.5212 75.0545 87.7475C75.0589 87.9738 74.9738 88.1927 74.8177 88.3566Z" fill="#F9CD55"/>
<path d="M72.4859 90.7984C72.3294 90.962 72.1147 91.057 71.8884 91.0629C71.6622 91.0688 71.4427 90.9851 71.278 90.8299L73.0273 88.9983L73.6425 89.5868L72.4859 90.7984Z" fill="#F44D11"/>
<path fill-rule="evenodd" clip-rule="evenodd" d="M72.5981 88.5882L71.3873 89.856C71.363 89.879 71.3437 89.9067 71.3305 89.9374C71.3172 89.9682 71.3104 90.0012 71.3103 90.0347C71.3102 90.0681 71.317 90.1012 71.3301 90.132C71.3432 90.1627 71.3625 90.1905 71.3867 90.2136C71.4109 90.2367 71.4395 90.2546 71.4708 90.2663C71.5022 90.278 71.5355 90.2832 71.5689 90.2816C71.6023 90.28 71.6351 90.2716 71.6651 90.2569C71.6952 90.2423 71.722 90.2217 71.7438 90.1964L72.9552 88.9286L72.5981 88.5882Z" fill="#FFA484"/>
<path fill-rule="evenodd" clip-rule="evenodd" d="M73.0919 88.0701L72.5978 88.588L72.9549 88.9284L73.4495 88.411C73.49 88.3628 73.5107 88.301 73.5072 88.2381C73.5037 88.1753 73.4763 88.1161 73.4307 88.0727C73.3851 88.0293 73.3247 88.0049 73.2617 88.0045C73.1987 88.0042 73.138 88.0278 73.0919 88.0707" fill="#FFEBBC"/>
<path fill-rule="evenodd" clip-rule="evenodd" d="M74.9403 91.1483C75.1905 91.387 75.5251 91.5167 75.8708 91.5088C76.2165 91.5009 76.5449 91.3562 76.7839 91.1063L79.1173 88.6637C79.3387 88.4107 79.4538 88.082 79.4387 87.7461C79.4236 87.4102 79.2795 87.0932 79.0363 86.861C78.7931 86.6288 78.4697 86.4995 78.1335 86.5C77.7973 86.5005 77.4742 86.6307 77.2317 86.8636L74.8989 89.3059C74.6602 89.556 74.5306 89.8907 74.5386 90.2364C74.5465 90.5821 74.6913 90.9104 74.9412 91.1494" fill="#AABCDC"/>
<path d="M75.249 90.8259C75.4136 90.9829 75.6338 91.0681 75.8612 91.0628C76.0885 91.0575 76.3045 90.9621 76.4615 90.7975L78.7943 88.3553C78.8721 88.2738 78.9331 88.1779 78.9738 88.0729C79.0145 87.9679 79.0342 87.8559 79.0316 87.7434C79.029 87.6308 79.0043 87.5198 78.9589 87.4168C78.9134 87.3138 78.8481 87.2207 78.7667 87.1429C78.6853 87.0651 78.5893 87.0041 78.4843 86.9634C78.3793 86.9227 78.2674 86.9031 78.1548 86.9056C78.0422 86.9082 77.9312 86.9329 77.8282 86.9784C77.7252 87.0238 77.6321 87.0891 77.5543 87.1706L75.221 89.6151C75.1431 89.6965 75.0821 89.7924 75.0413 89.8974C75.0006 90.0024 74.981 90.1144 74.9836 90.227C74.9863 90.3395 75.0111 90.4505 75.0567 90.5535C75.1023 90.6564 75.1677 90.7494 75.2493 90.827" fill="#F9CD55"/>
<path d="M75.2484 90.8264C75.1668 90.7488 75.1014 90.6558 75.0558 90.5529C75.0102 90.4499 74.9854 90.3389 74.9827 90.2264C74.9801 90.1138 74.9997 90.0018 75.0404 89.8968C75.0811 89.7918 75.1422 89.6959 75.22 89.6145L76.3775 88.4026L77.6184 89.5873L76.4606 90.7989C76.3036 90.9635 76.0876 91.0589 75.8602 91.0642C75.6329 91.0695 75.4127 90.9843 75.2481 90.8273" fill="#F44D11"/>
<path d="M78.7951 88.3559L77.6195 89.5866L77.0043 88.998L78.7704 87.1474C78.933 87.3049 79.0268 87.5203 79.0312 87.7466C79.0357 87.9729 78.9505 88.1919 78.7942 88.3556" fill="#F9CD55"/>
<path d="M76.462 90.7984C76.3055 90.962 76.0907 91.057 75.8645 91.0629C75.6382 91.0688 75.4188 90.9851 75.254 90.8299L77.004 88.9983L77.6192 89.5868L76.462 90.7984Z" fill="#F44D11"/>
<path fill-rule="evenodd" clip-rule="evenodd" d="M76.5752 88.5882L75.3638 89.856C75.3396 89.8791 75.3204 89.9069 75.3072 89.9376C75.2941 89.9683 75.2873 90.0014 75.2873 90.0349C75.2873 90.0683 75.2941 90.1014 75.3073 90.1321C75.3205 90.1629 75.3397 90.1906 75.364 90.2137C75.3882 90.2367 75.4168 90.2546 75.4482 90.2663C75.4795 90.278 75.5129 90.2831 75.5463 90.2815C75.5797 90.2799 75.6124 90.2715 75.6425 90.2569C75.6725 90.2423 75.6993 90.2217 75.7212 90.1964L76.9322 88.9286L76.5752 88.5882Z" fill="#FFA484"/>
<path fill-rule="evenodd" clip-rule="evenodd" d="M77.0679 88.0701L76.5739 88.588L76.9309 88.9284L77.4256 88.411C77.4661 88.3628 77.4867 88.301 77.4832 88.2381C77.4798 88.1753 77.4524 88.1161 77.4068 88.0727C77.3612 88.0293 77.3007 88.0049 77.2378 88.0045C77.1748 88.0042 77.114 88.0278 77.0679 88.0707" fill="#FFEBBC"/>
<path fill-rule="evenodd" clip-rule="evenodd" d="M78.9177 91.1483C79.1679 91.387 79.5025 91.5167 79.8482 91.5088C80.1939 91.501 80.5223 91.3562 80.7613 91.1063L83.0941 88.6638C83.3238 88.4123 83.446 88.0808 83.4344 87.7404C83.4228 87.4 83.2784 87.0776 83.0321 86.8423C82.7857 86.6071 82.4571 86.4776 82.1165 86.4816C81.7759 86.4856 81.4504 86.6229 81.2097 86.8639L78.8769 89.3062C78.6382 89.5563 78.5086 89.891 78.5165 90.2367C78.5244 90.5824 78.6693 90.9108 78.9192 91.1497" fill="#AABCDC"/>
<path d="M79.224 90.8261C79.3886 90.9831 79.6088 91.0684 79.8362 91.063C80.0637 91.0577 80.2797 90.9623 80.4367 90.7977L82.7701 88.3555C82.9272 88.191 83.0125 87.9708 83.0073 87.7434C83.002 87.5159 82.9067 87.2999 82.7422 87.1428C82.5777 86.9857 82.3575 86.9004 82.1301 86.9057C81.9027 86.9109 81.6866 87.0063 81.5295 87.1708L79.1973 89.6153C79.0405 89.7799 78.9554 89.9999 78.9607 90.2271C78.966 90.4544 79.0613 90.6702 79.2257 90.8272" fill="#F9CD55"/>
<path d="M79.2238 90.8264C79.0594 90.6694 78.9641 90.4536 78.9588 90.2263C78.9535 89.9991 79.0386 89.779 79.1954 89.6145L80.3534 88.4026L81.5937 89.5873L80.436 90.7989C80.2789 90.9635 80.0629 91.0589 79.8355 91.0642C79.608 91.0695 79.3878 90.9843 79.2232 90.8273" fill="#F44D11"/>
<path d="M82.771 88.3566L81.5954 89.5872L80.9794 88.9987L82.7472 87.1483C82.9098 87.3058 83.0036 87.5212 83.008 87.7475C83.0125 87.9739 82.9273 88.1928 82.771 88.3566Z" fill="#F9CD55"/>
<path d="M80.4374 90.7985C80.2809 90.962 80.0661 91.057 79.8398 91.0629C79.6135 91.0688 79.394 90.9851 79.2292 90.8299L80.9786 88.9983L81.5946 89.5868L80.4374 90.7985Z" fill="#F44D11"/>
<path fill-rule="evenodd" clip-rule="evenodd" d="M80.5504 88.5882L79.3396 89.856C79.3157 89.8791 79.2967 89.9068 79.2837 89.9375C79.2708 89.9681 79.2642 90.001 79.2643 90.0343C79.2644 90.0675 79.2712 90.1004 79.2844 90.131C79.2975 90.1615 79.3167 90.1891 79.3407 90.212C79.3648 90.235 79.3932 90.2528 79.4244 90.2645C79.4555 90.2762 79.4887 90.2815 79.5219 90.28C79.5551 90.2785 79.5877 90.2704 79.6177 90.256C79.6477 90.2416 79.6744 90.2214 79.6964 90.1964L80.9075 88.9286L80.5504 88.5882Z" fill="#FFA484"/>
<path fill-rule="evenodd" clip-rule="evenodd" d="M81.044 88.0701L80.5499 88.588L80.9076 88.9284L81.4016 88.411C81.4422 88.3628 81.4628 88.301 81.4593 88.2381C81.4558 88.1753 81.4285 88.1161 81.3829 88.0727C81.3373 88.0293 81.2768 88.0049 81.2138 88.0045C81.1509 88.0042 81.0901 88.0278 81.044 88.0707" fill="#FFEBBC"/>
<path fill-rule="evenodd" clip-rule="evenodd" d="M82.8927 91.1479C83.1428 91.3866 83.4775 91.5163 83.8231 91.5084C84.1688 91.5006 84.4972 91.3558 84.7362 91.1059L87.069 88.6634C87.1872 88.5396 87.2799 88.3938 87.3418 88.2343C87.4036 88.0747 87.4334 87.9046 87.4295 87.7335C87.4256 87.5624 87.3881 87.3938 87.319 87.2373C87.2499 87.0807 87.1507 86.9393 87.0269 86.8211C86.9032 86.7029 86.7574 86.6102 86.5978 86.5484C86.4383 86.4865 86.2681 86.4567 86.0971 86.4606C85.926 86.4645 85.7574 86.5021 85.6008 86.5712C85.4443 86.6402 85.3028 86.7395 85.1846 86.8632L82.8513 89.3055C82.6125 89.5556 82.4829 89.8903 82.4908 90.236C82.4986 90.5816 82.6434 90.91 82.8932 91.1491" fill="#AABCDC"/>
<path d="M83.2012 90.8261C83.3657 90.9831 83.5859 91.0683 83.8133 91.063C84.0407 91.0577 84.2566 90.9623 84.4137 90.7977L86.7473 88.3555C86.9044 88.191 86.9897 87.9708 86.9845 87.7434C86.9793 87.5159 86.8839 87.2999 86.7194 87.1428C86.5549 86.9857 86.3347 86.9004 86.1073 86.9057C85.8799 86.9109 85.6638 87.0063 85.5067 87.1708L83.1734 89.6153C83.0165 89.7799 82.9314 89.9999 82.9368 90.2271C82.9421 90.4544 83.0374 90.6702 83.2017 90.8272" fill="#F9CD55"/>
<path d="M83.2008 90.8264C83.0364 90.6694 82.9411 90.4536 82.9358 90.2263C82.9305 89.9991 83.0156 89.779 83.1724 89.6145L84.3307 88.4026L85.5707 89.5873L84.4135 90.7989C84.2565 90.9635 84.0405 91.0589 83.8132 91.0642C83.5858 91.0695 83.3656 90.9843 83.201 90.8273" fill="#F44D11"/>
<path d="M86.7471 88.3566L85.5715 89.5872L84.9554 88.9987L86.723 87.1483C86.8856 87.3058 86.9795 87.5211 86.984 87.7475C86.9885 87.9738 86.9033 88.1927 86.7471 88.3566Z" fill="#F9CD55"/>
<path d="M84.4141 90.7984C84.2576 90.962 84.0429 91.057 83.8166 91.0629C83.5904 91.0688 83.371 90.9851 83.2062 90.8299L84.9556 88.9983L85.5716 89.5868L84.4141 90.7984Z" fill="#F44D11"/>
<path fill-rule="evenodd" clip-rule="evenodd" d="M84.5277 88.5882L83.3169 89.856C83.2927 89.8791 83.2734 89.9069 83.2603 89.9376C83.2471 89.9683 83.2403 90.0014 83.2404 90.0349C83.2404 90.0683 83.2472 90.1014 83.2603 90.1321C83.2735 90.1629 83.2928 90.1906 83.317 90.2137C83.3412 90.2367 83.3699 90.2546 83.4012 90.2663C83.4326 90.278 83.4659 90.2831 83.4993 90.2815C83.5327 90.2799 83.5655 90.2715 83.5955 90.2569C83.6256 90.2423 83.6524 90.2217 83.6742 90.1964L84.8845 88.9286L84.5277 88.5882Z" fill="#FFA484"/>
<path fill-rule="evenodd" clip-rule="evenodd" d="M85.0216 88.0705L84.5278 88.5884L84.8852 88.9287L85.3787 88.412C85.4192 88.3638 85.4399 88.3019 85.4364 88.2391C85.4329 88.1762 85.4055 88.117 85.3599 88.0736C85.3143 88.0302 85.2539 88.0058 85.1909 88.0054C85.1279 88.0051 85.0672 88.0287 85.0211 88.0716" fill="#FFEBBC"/>
<path fill-rule="evenodd" clip-rule="evenodd" d="M68.968 83.2317V87.6684C68.968 87.7114 68.9851 87.7526 69.0154 87.7829C69.0458 87.8133 69.087 87.8304 69.13 87.8304C69.1729 87.8304 69.2141 87.8133 69.2445 87.7829C69.2749 87.7526 69.2919 87.7114 69.2919 87.6684V83.2317C69.2919 83.1887 69.2749 83.1475 69.2445 83.1172C69.2141 83.0868 69.1729 83.0697 69.13 83.0697C69.087 83.0697 69.0458 83.0868 69.0154 83.1172C68.9851 83.1475 68.968 83.1887 68.968 83.2317Z" fill="#E1E9F6"/>
<path fill-rule="evenodd" clip-rule="evenodd" d="M89.0313 83.232V87.6687C89.0313 87.7117 89.0484 87.753 89.0788 87.7834C89.1093 87.8138 89.1505 87.8309 89.1935 87.8309C89.2366 87.8309 89.2778 87.8138 89.3083 87.7834C89.3387 87.753 89.3558 87.7117 89.3558 87.6687V83.232C89.3558 83.1889 89.3387 83.1477 89.3083 83.1173C89.2778 83.0868 89.2366 83.0697 89.1935 83.0697C89.1505 83.0697 89.1093 83.0868 89.0788 83.1173C89.0484 83.1477 89.0313 83.1889 89.0313 83.232Z" fill="#E1E9F6"/>
<path d="M52.0841 52.7786H41.9621V53.9196H52.0841V52.7786Z" fill="#B9CAE8"/>
<path fill-rule="evenodd" clip-rule="evenodd" d="M41.9421 52.5994H40.7716V54.0983H41.9421C42.0165 54.0981 42.0879 54.0685 42.1405 54.0159C42.1932 53.9633 42.2229 53.892 42.2232 53.8176V52.8802C42.223 52.8057 42.1933 52.7344 42.1406 52.6818C42.0879 52.6292 42.0166 52.5995 41.9421 52.5994Z" fill="#B9CAE8"/>
<path fill-rule="evenodd" clip-rule="evenodd" d="M46.1714 61.3412H54.4007C56.5387 61.3412 58.2889 63.1703 58.2889 65.4058V88.2052C58.2889 90.4413 56.5387 92.2695 54.4007 92.2695H46.1714C44.0326 92.2695 42.2826 90.4413 42.2826 88.2052V65.4058C42.2826 63.1703 44.0326 61.3412 46.1714 61.3412Z" fill="#4CB5FF"/>
<path fill-rule="evenodd" clip-rule="evenodd" d="M46.1714 61.3412H51.2896C53.4284 61.3412 55.1784 63.1703 55.1784 65.4058V88.2052C55.1784 90.4413 53.4284 92.2695 51.2896 92.2695H46.1714C44.0326 92.2695 42.2826 90.4413 42.2826 88.2052V65.4058C42.2826 63.1703 44.0326 61.3412 46.1714 61.3412Z" fill="#83C9FF"/>
<path d="M53.7207 55.5096H46.8516V56.8489H53.7207V55.5096Z" fill="#B9CAE8"/>
<path fill-rule="evenodd" clip-rule="evenodd" d="M45.7892 61.342H54.7823C55.1362 61.341 55.4754 61.1999 55.7256 60.9496C55.9759 60.6993 56.1169 60.3601 56.1179 60.0061V58.1847C56.1169 57.8308 55.9759 57.4916 55.7256 57.2413C55.4754 56.991 55.1362 56.8499 54.7823 56.8488H45.7892C45.4351 56.8498 45.0959 56.9909 44.8455 57.2412C44.5952 57.4915 44.4541 57.8307 44.453 58.1847V60.0061C44.4541 60.3602 44.5952 60.6994 44.8455 60.9497C45.0959 61.2 45.4351 61.341 45.7892 61.342Z" fill="#B9CAE8"/>
<path fill-rule="evenodd" clip-rule="evenodd" d="M46.1429 61.342H53.1201C53.474 61.341 53.8132 61.2 54.0635 60.9497C54.3138 60.6993 54.4547 60.3601 54.4556 60.0061V58.1847C54.4547 57.8307 54.3138 57.4915 54.0635 57.2412C53.8132 56.9909 53.474 56.8498 53.1201 56.8488H46.1429C45.7889 56.8497 45.4496 56.9908 45.1992 57.2411C44.9488 57.4914 44.8077 57.8307 44.8068 58.1847V60.0061C44.8077 60.3602 44.9488 60.6995 45.1992 60.9498C45.4496 61.2001 45.7889 61.3411 46.1429 61.342Z" fill="#E3ECFF"/>
<path d="M58.2895 69.8743H42.6252V84.1315H58.2895V69.8743Z" fill="#E8EFFF"/>
<path d="M58.2902 69.8743H55.1797V84.1315H58.2902V69.8743Z" fill="#C8D9FA"/>
<path fill-rule="evenodd" clip-rule="evenodd" d="M44.8527 66.2889C45.0703 66.2893 45.2789 66.3759 45.4328 66.5297C45.5866 66.6836 45.6733 66.8921 45.6738 67.1097V69.8748H44.0319V67.1097C44.0323 66.8922 44.1189 66.6836 44.2728 66.5298C44.4266 66.376 44.6351 66.2894 44.8527 66.2889Z" fill="#BCE1FF"/>
<path fill-rule="evenodd" clip-rule="evenodd" d="M45.6728 69.8752V78.8619C45.6688 79.0769 45.5806 79.2819 45.4271 79.4326C45.2736 79.5833 45.067 79.6677 44.8519 79.6677C44.6368 79.6677 44.4302 79.5833 44.2767 79.4326C44.1232 79.2819 44.0349 79.0769 44.0309 78.8619V69.8752H45.6728Z" fill="white"/>
<path fill-rule="evenodd" clip-rule="evenodd" d="M47.0285 55.9002H53.5419C54.1339 55.9002 54.7737 55.3948 54.6197 54.8225L53.9501 52.3614C53.7944 51.7902 53.4654 51.2851 52.8723 51.2851H47.6423C47.0504 51.2851 46.7092 51.7871 46.5645 52.3614L45.9502 54.8225C45.8084 55.3971 46.4349 55.9002 47.028 55.9002" fill="#B9CAE8"/>
<path fill-rule="evenodd" clip-rule="evenodd" d="M47.3724 55.9002H51.9808C52.5727 55.9002 53.2128 55.3948 53.0585 54.8225L52.3889 52.3614C52.2335 51.7902 51.9045 51.2851 51.3111 51.2851H47.9851C47.3931 51.2851 47.0519 51.7871 46.9073 52.3614L46.2947 54.8236C46.1529 55.3982 46.7794 55.9014 47.3724 55.9014" fill="#E3ECFF"/>
<path d="M51.4372 53.0446H42.2225V53.3863H51.4372V53.0446Z" fill="#E3ECFF"/>
<path fill-rule="evenodd" clip-rule="evenodd" d="M62.4447 69.9395H73.4464C74.873 69.9395 76.0399 71.8804 76.0399 73.307V89.7472C76.0399 91.1739 74.873 92.3407 73.4464 92.3407H62.4447C61.0183 92.3407 59.8512 91.1739 59.8512 89.7472V73.3064C59.8512 71.8798 61.0183 69.939 62.4447 69.939" fill="#5074B0"/>
<path fill-rule="evenodd" clip-rule="evenodd" d="M62.4447 69.9395H70.5603C71.4942 70.7592 72.4013 72.1399 72.4529 73.4114C72.4742 73.9242 72.4529 89.8201 72.4529 89.8201C72.4529 89.8201 72.3068 91.1064 71.2086 92.0789C71.1003 92.1745 71.0002 92.2616 70.9069 92.3407H62.4447C61.0183 92.3407 59.8512 91.1739 59.8512 89.7472V73.3064C59.8512 71.8798 61.0183 69.939 62.4447 69.939" fill="#6C8AC5"/>
<path fill-rule="evenodd" clip-rule="evenodd" d="M62.4446 69.939H70.5602C70.649 70.0172 70.7383 70.1003 70.826 70.188H61.5617C61.8377 70.0306 62.1349 69.939 62.4446 69.939Z" fill="#5074B0"/>
<path fill-rule="evenodd" clip-rule="evenodd" d="M61.7863 69.9387H74.1058C74.1832 69.9385 74.2574 69.9077 74.3122 69.853C74.3671 69.7984 74.3981 69.7243 74.3985 69.6469V69.0184C74.3984 68.9407 74.3675 68.8664 74.3126 68.8114C74.2578 68.7565 74.1834 68.7256 74.1058 68.7254H61.7863C61.7087 68.7256 61.6343 68.7565 61.5794 68.8114C61.5245 68.8663 61.4936 68.9407 61.4933 69.0184V69.6469C61.4935 69.7245 61.5244 69.799 61.5793 69.8539C61.6342 69.9088 61.7087 69.9397 61.7863 69.9398" fill="#E3ECFF"/>
<path fill-rule="evenodd" clip-rule="evenodd" d="M62.0466 68.726H73.8431V65.6515C73.8425 65.4299 73.7542 65.2174 73.5975 65.0607C73.4408 64.9039 73.2284 64.8155 73.0067 64.8148H62.7367C62.5536 64.8154 62.3781 64.8886 62.2488 65.0182C62.1195 65.1479 62.0468 65.3235 62.0466 65.5066V68.726Z" fill="#B9CAE8"/>
<path fill-rule="evenodd" clip-rule="evenodd" d="M71.48 64.8148H62.7367C62.3575 64.8148 62.0466 65.2028 62.0466 65.6774V68.2124H62.7823V65.8583C62.7823 65.6654 62.9086 65.5077 63.0631 65.5077C63.2177 65.5077 63.3434 65.6654 63.3434 65.8583V68.2124H63.975V65.8583C63.975 65.6654 64.1009 65.5077 64.2552 65.5077C64.4095 65.5077 64.536 65.6654 64.536 65.8583V68.2124H65.1673V65.8583C65.1673 65.6654 65.2936 65.5077 65.4478 65.5077C65.6021 65.5077 65.7283 65.6654 65.7283 65.8583V68.2124H66.3597V65.8583C66.3597 65.6654 66.4859 65.5077 66.6405 65.5077C66.7951 65.5077 66.921 65.6654 66.921 65.8583V68.2124H67.5523V65.8583C67.5523 65.6654 67.6785 65.5077 67.8328 65.5077C67.9871 65.5077 68.1133 65.6654 68.1133 65.8583V68.2124H68.7447V65.8583C68.7447 65.6654 68.8712 65.5077 69.0252 65.5077C69.1792 65.5077 69.306 65.6654 69.306 65.8583V68.2124H69.9373V65.8583C69.9373 65.6654 70.0633 65.5077 70.2178 65.5077C70.3724 65.5077 70.498 65.6654 70.498 65.8583V68.2124H71.48V64.8148Z" fill="#E3ECFF"/>
<path d="M76.0402 74.9689H59.8512V89.2337H76.0402V74.9689Z" fill="#BA3F0D"/>
<path fill-rule="evenodd" clip-rule="evenodd" d="M59.7995 74.9689H72.461C72.4667 78.5003 72.4571 86.9406 72.4539 89.2337H59.7995V74.9689Z" fill="#6632EC"/>
<path fill-rule="evenodd" clip-rule="evenodd" d="M63.2391 71.9884C63.5547 71.9896 63.857 72.1155 64.0801 72.3387C64.3033 72.5618 64.4292 72.8641 64.4304 73.1797V83.0106C64.4304 83.3268 64.3047 83.6301 64.0811 83.8537C63.8575 84.0773 63.5542 84.203 63.238 84.203C62.9218 84.203 62.6185 84.0773 62.3949 83.8537C62.1713 83.6301 62.0457 83.3268 62.0457 83.0106V73.1802C62.0468 72.8647 62.1727 72.5624 62.3959 72.3392C62.619 72.1161 62.9213 71.9902 63.2369 71.989" fill="#94ADD9"/>
<path fill-rule="evenodd" clip-rule="evenodd" d="M64.4313 74.9689V83.0113C64.4313 83.3275 64.3057 83.6308 64.0821 83.8544C63.8585 84.078 63.5552 84.2037 63.239 84.2037C62.9228 84.2037 62.6195 84.078 62.3959 83.8544C62.1723 83.6308 62.0466 83.3275 62.0466 83.0113V74.9689H64.4313Z" fill="#FF8B61"/>
<path d="M72.4562 85.8221H59.7995V87.8732H72.4562V85.8221Z" fill="#6C8AC5"/>
<path d="M76.0402 85.8221H72.4555V87.9075H76.0402V85.8221Z" fill="#5074B0"/>
<path fill-rule="evenodd" clip-rule="evenodd" d="M30.9353 69.6758H39.7325V90.6293C39.7313 91.0139 39.578 91.3825 39.3061 91.6545C39.0341 91.9265 38.6655 92.0798 38.2809 92.0809H32.5426C32.1167 92.0797 31.7086 91.91 31.4075 91.6089C31.1063 91.3078 30.9366 90.8997 30.9353 90.4739V69.6758Z" fill="#FF671B"/>
<path fill-rule="evenodd" clip-rule="evenodd" d="M30.9353 69.6758H38.8768V90.083C38.8768 91.1821 38.2244 92.0809 37.4252 92.0809H32.5426C31.6588 92.0809 30.9353 91.0857 30.9353 89.8686V69.6758Z" fill="#FF8045"/>
<path d="M39.7322 69.2269H30.9353V69.9651H39.7322V69.2269Z" fill="#FF671B"/>
<path fill-rule="evenodd" clip-rule="evenodd" d="M30.5951 69.2271H40.0732C40.1317 69.2288 40.1884 69.2072 40.231 69.167C40.2735 69.1269 40.2984 69.0715 40.3001 69.013V68.5535C40.2984 68.495 40.2735 68.4396 40.231 68.3995C40.1884 68.3593 40.1317 68.3377 40.0732 68.3394H30.5951C30.5366 68.3377 30.4798 68.3593 30.4373 68.3995C30.3947 68.4396 30.3699 68.495 30.3682 68.5535V69.013C30.3699 69.0715 30.3947 69.1269 30.4373 69.167C30.4798 69.2072 30.5366 69.2288 30.5951 69.2271Z" fill="#B9CAE8"/>
<path fill-rule="evenodd" clip-rule="evenodd" d="M30.8226 68.3398H40.05V65.532C40.05 65.0847 39.7488 64.7188 39.381 64.7188H31.376C31.0725 64.7188 30.824 64.8453 30.824 65.3899L30.8226 68.3398Z" fill="#E3ECFF"/>
<path d="M39.7325 76.4706H30.9353V85.3194H39.7325V76.4706Z" fill="#C8D9F5"/>
<path d="M38.8762 76.4706H31.1911V85.3194H38.8762V76.4706Z" fill="#DFE8F7"/>
<path fill-rule="evenodd" clip-rule="evenodd" d="M33.3648 85.1447V87.2557C33.3648 87.7325 33.0704 88.1225 32.7102 88.1225C32.35 88.1225 32.0556 87.7325 32.0556 87.2557V74.2397C32.0556 73.7632 32.3503 73.3729 32.7102 73.3729C33.0701 73.3729 33.3648 73.7632 33.3648 74.2397V85.1447Z" fill="#FB9E72"/>
<path fill-rule="evenodd" clip-rule="evenodd" d="M32.3403 65.7546C32.3812 65.7536 32.4208 65.7688 32.4506 65.7969C32.4803 65.825 32.4978 65.8637 32.4991 65.9046V67.515C32.4967 67.5554 32.479 67.5933 32.4495 67.621C32.4201 67.6487 32.3812 67.6641 32.3408 67.6641C32.3004 67.6641 32.2615 67.6487 32.2321 67.621C32.2027 67.5933 32.185 67.5554 32.1826 67.515V65.9046C32.1837 65.8637 32.201 65.8248 32.2306 65.7966C32.2603 65.7683 32.2999 65.7529 32.3408 65.7537M33.089 65.7537C33.1301 65.7528 33.1699 65.7681 33.1996 65.7964C33.2294 65.8246 33.2468 65.8636 33.2479 65.9046V67.515C33.2454 67.5554 33.2277 67.5933 33.1983 67.621C33.1689 67.6487 33.13 67.6641 33.0896 67.6641C33.0492 67.6641 33.0103 67.6487 32.9809 67.621C32.9515 67.5933 32.9338 67.5554 32.9313 67.515V65.9046C32.9327 65.8639 32.95 65.8254 32.9795 65.7973C33.009 65.7692 33.0483 65.7539 33.089 65.7546V65.7537ZM33.0885 65.7546C33.1294 65.7538 33.1691 65.7692 33.1987 65.7974C33.2283 65.8257 33.2456 65.8645 33.2467 65.9055V67.5159C33.2443 67.5562 33.2266 67.5941 33.1972 67.6218C33.1678 67.6495 33.1289 67.665 33.0885 67.665C33.0481 67.665 33.0092 67.6495 32.9798 67.6218C32.9503 67.5941 32.9326 67.5562 32.9302 67.5159V65.9046C32.9103 65.7844 32.939 65.6611 33.01 65.562C33.081 65.4629 33.1884 65.396 33.3087 65.3761C33.429 65.3562 33.5522 65.3849 33.6514 65.4559C33.7505 65.5269 33.8173 65.6343 33.8372 65.7546H33.0885ZM33.8367 65.7546C33.8776 65.7538 33.9173 65.7692 33.9469 65.7974C33.9765 65.8257 33.9938 65.8645 33.9949 65.9055V67.5159C33.9938 67.5569 33.9766 67.5957 33.9469 67.6241C33.9173 67.6524 33.8777 67.6678 33.8367 67.6671C33.7957 67.6678 33.7561 67.6524 33.7265 67.624C33.6969 67.5957 33.6797 67.5568 33.6787 67.5159V65.9046C33.6588 65.7844 33.6875 65.6612 33.7584 65.5621C33.8294 65.463 33.9368 65.3961 34.057 65.3762C34.1773 65.3563 34.3005 65.385 34.3996 65.456C34.4987 65.5269 34.5655 65.6344 34.5854 65.7546H33.8367ZM34.5849 65.7546C34.6258 65.7538 34.6655 65.7692 34.6951 65.7974C34.7247 65.8257 34.742 65.8645 34.7431 65.9055V67.5159C34.7407 67.5562 34.723 67.5941 34.6936 67.6218C34.6642 67.6495 34.6253 67.665 34.5849 67.665C34.5445 67.665 34.5056 67.6495 34.4762 67.6218C34.4467 67.5941 34.429 67.5562 34.4266 67.5159V65.9046C34.4067 65.7844 34.4354 65.6611 34.5064 65.562C34.5774 65.4629 34.6848 65.396 34.8051 65.3761C34.9254 65.3562 35.0486 65.3849 35.1478 65.4559C35.2469 65.5269 35.3137 65.6343 35.3336 65.7546H34.5849ZM35.3331 65.7546C35.353 65.6343 35.4198 65.5269 35.5189 65.4559C35.6181 65.3849 35.7413 65.3562 35.8616 65.3761C35.9819 65.396 36.0893 65.4629 36.1603 65.562C36.2313 65.6611 36.26 65.7844 36.2401 65.9046V67.515C36.2384 67.5558 36.221 67.5944 36.1915 67.6226C36.162 67.6508 36.1228 67.6666 36.082 67.6666C36.0412 67.6666 36.0019 67.6508 35.9725 67.6226C35.943 67.5944 35.9256 67.5558 35.9239 67.515V65.9046C35.9251 65.8639 35.9424 65.8252 35.972 65.7971C36.0016 65.769 36.041 65.7538 36.0818 65.7546H35.3331ZM36.0813 65.7546C36.1222 65.7538 36.1618 65.7692 36.1915 65.7974C36.2211 65.8257 36.2384 65.8645 36.2395 65.9055V67.5159C36.2384 67.5569 36.2212 67.5957 36.1915 67.6241C36.1619 67.6524 36.1223 67.6678 36.0813 67.6671C36.0403 67.6678 36.0007 67.6524 35.9711 67.624C35.9415 67.5957 35.9243 67.5568 35.9233 67.5159V65.9046C35.9034 65.7844 35.9321 65.6612 36.003 65.5621C36.074 65.463 36.1814 65.3961 36.3016 65.3762C36.4219 65.3563 36.5451 65.385 36.6442 65.456C36.7433 65.5269 36.8101 65.6344 36.83 65.7546H36.0813ZM36.8295 65.7546C36.8704 65.7538 36.91 65.7692 36.9397 65.7974C36.9693 65.8257 36.9866 65.8645 36.9877 65.9055V67.5159C36.9853 67.5562 36.9676 67.5941 36.9382 67.6218C36.9088 67.6495 36.8699 67.665 36.8295 67.665C36.7891 67.665 36.7502 67.6495 36.7208 67.6218C36.6913 67.5941 36.6736 67.5562 36.6712 67.5159V65.9046C36.6513 65.7844 36.68 65.6611 36.751 65.562C36.822 65.4629 36.9294 65.396 37.0497 65.3761C37.17 65.3562 37.2932 65.3849 37.3924 65.4559C37.4915 65.5269 37.5583 65.6343 37.5782 65.7546H36.8295ZM37.5777 65.7546C37.6186 65.7538 37.6582 65.7692 37.6879 65.7974C37.7175 65.8257 37.7348 65.8645 37.7359 65.9055V67.5159C37.7342 67.5567 37.7168 67.5952 37.6873 67.6235C37.6579 67.6517 37.6186 67.6675 37.5778 67.6675C37.537 67.6675 37.4978 67.6517 37.4683 67.6235C37.4388 67.5952 37.4214 67.5567 37.4197 67.5159V65.9046C37.3998 65.7844 37.4285 65.6612 37.4994 65.5621C37.5704 65.463 37.6778 65.3961 37.798 65.3762C37.9183 65.3563 38.0415 65.385 38.1406 65.456C38.2397 65.5269 38.3065 65.6344 38.3264 65.7546H37.5777ZM38.3259 65.7546C38.3357 65.6951 38.3572 65.6381 38.3891 65.5869C38.421 65.5356 38.4626 65.4912 38.5117 65.4561C38.5607 65.421 38.6162 65.3959 38.675 65.3822C38.7337 65.3685 38.7946 65.3665 38.8541 65.3764C38.9136 65.3862 38.9706 65.4077 39.0218 65.4396C39.0731 65.4715 39.1175 65.5131 39.1526 65.5622C39.1877 65.6112 39.2129 65.6667 39.2265 65.7255C39.2402 65.7842 39.2422 65.8451 39.2323 65.9046V67.515C39.2306 67.5558 39.2132 67.5944 39.1837 67.6226C39.1543 67.6508 39.115 67.6666 39.0742 67.6666C39.0334 67.6666 38.9942 67.6508 38.9647 67.6226C38.9352 67.5944 38.9178 67.5558 38.9161 67.515V65.9046C38.9173 65.8638 38.9347 65.825 38.9644 65.7969C38.9941 65.7688 39.0337 65.7536 39.0746 65.7546H38.3259ZM30.8439 65.7546C30.8848 65.7538 30.9244 65.7692 30.954 65.7974C30.9836 65.8257 31.0008 65.8646 31.0018 65.9055V67.5159C31.0001 67.5567 30.9827 67.5952 30.9532 67.6235C30.9238 67.6517 30.8845 67.6675 30.8437 67.6675C30.8029 67.6675 30.7637 67.6517 30.7342 67.6235C30.7047 67.5952 30.6873 67.5567 30.6856 67.5159V65.9046C30.6657 65.7844 30.6944 65.6611 30.7654 65.562C30.8364 65.4629 30.9438 65.396 31.0641 65.3761C31.1844 65.3562 31.3076 65.3849 31.4068 65.4559C31.5059 65.5269 31.5727 65.6343 31.5926 65.7546H30.8439Z" fill="#B9CAE8"/>
<path d="M33.3648 76.4706H32.0556V85.3194H33.3648V76.4706Z" fill="white"/>
<path d="M40.05 68.0262H30.6176V68.3393H40.05V68.0262Z" fill="#B9CAE8"/>
<path fill-rule="evenodd" clip-rule="evenodd" d="M19.6613 83.676C19.6483 83.6739 19.6355 83.6711 19.6228 83.6675H19.6188L19.5936 83.6602V83.6573H19.5868L19.5643 83.6491H19.5601C19.5276 83.636 19.4964 83.6201 19.4668 83.6015H19.4645C19.4552 83.5952 19.4458 83.5893 19.4362 83.5825C19.4162 83.5676 19.3973 83.5515 19.3794 83.5342L19.3607 83.5152C19.3471 83.5007 19.3342 83.4854 19.3221 83.4696V83.4662H19.3196C19.3102 83.4537 19.3011 83.4404 19.2929 83.427C19.2895 83.4219 19.2864 83.4165 19.2833 83.4109V83.4021H19.2813C19.262 83.3684 19.2463 83.3327 19.2345 83.2957C19.2308 83.2846 19.2277 83.2733 19.2249 83.2622V83.2566C19.2217 83.2427 19.2189 83.2282 19.2166 83.2143V83.1979H19.2093C19.2062 83.1745 19.2046 83.151 19.2047 83.1275V81.0344C19.2047 81.011 19.2061 80.9876 19.209 80.9643H19.2115V80.9476C19.2158 80.9202 19.2222 80.8932 19.2305 80.8668C19.2334 80.8574 19.2368 80.8483 19.2402 80.8384C19.2504 80.8115 19.2626 80.7854 19.2768 80.7604H19.2793V80.7564C19.2821 80.7511 19.2852 80.746 19.2887 80.7411C19.2949 80.7312 19.3011 80.7218 19.3077 80.7127C19.3196 80.6959 19.3325 80.6797 19.3462 80.6642L19.355 80.6549C19.361 80.6486 19.3669 80.6424 19.3732 80.6365L19.3825 80.6279C19.3975 80.6142 19.4132 80.6013 19.4296 80.5894H19.4362V80.588C19.4607 80.57 19.4867 80.5542 19.5139 80.5406C19.5462 80.5243 19.5801 80.5113 19.6151 80.502H19.6211V80.5003C19.6327 80.4969 19.6446 80.4946 19.6568 80.4921H19.6602C19.6875 80.4869 19.715 80.4838 19.7427 80.4827H31.1997C31.2428 80.4844 31.2855 80.491 31.3271 80.5023L31.3554 80.5108H31.3583C31.3806 80.5185 31.4025 80.5275 31.4238 80.5378V80.54H31.428C31.4332 80.5426 31.4383 80.5451 31.4431 80.548V80.5499H31.4465C31.4522 80.5528 31.4573 80.5559 31.4626 80.559C31.4863 80.573 31.5089 80.5887 31.5301 80.6061V80.6078H31.5321L31.5398 80.6143V80.6174H31.5435C31.5669 80.6376 31.5886 80.6598 31.6081 80.6838V80.6858H31.6098C31.6272 80.7068 31.6429 80.7291 31.6569 80.7525V80.7542C31.6601 80.7593 31.6629 80.7644 31.6657 80.7695V80.7737H31.668C31.6786 80.792 31.6881 80.811 31.6964 80.8304C31.6998 80.8384 31.7029 80.8469 31.7057 80.8548V80.8597H31.7074C31.7103 80.8682 31.7131 80.8773 31.7154 80.886V80.8889C31.7254 80.9247 31.7316 80.9615 31.7341 80.9986V81.0159C31.7341 81.0227 31.7341 81.0298 31.7341 81.0369V83.1301C31.7341 83.1372 31.7341 83.1445 31.7341 83.1516V83.1684C31.7315 83.2057 31.7252 83.2426 31.7154 83.2787V83.281C31.7128 83.2898 31.71 83.2991 31.7071 83.3079H31.7057V83.3119C31.7029 83.3204 31.6995 83.3289 31.6964 83.3371C31.691 83.3502 31.6853 83.3632 31.6791 83.3757H31.6768V83.3799C31.6742 83.3853 31.6717 83.3902 31.6688 83.395H31.6669V83.3987C31.664 83.4041 31.6609 83.4094 31.6578 83.4145C31.6436 83.4382 31.6277 83.4608 31.6101 83.482C31.6079 83.4849 31.6056 83.4877 31.603 83.4903H31.6005V83.4937C31.5828 83.5138 31.5638 83.5327 31.5438 83.5504H31.5406V83.553L31.5321 83.56C31.5056 83.5815 31.4771 83.6005 31.447 83.6168H31.4445L31.4283 83.6256H31.4252V83.6273L31.4076 83.6352H31.4051C31.3895 83.6423 31.3736 83.6483 31.3574 83.6539C31.3334 83.6618 31.3088 83.668 31.284 83.6726H31.2794C31.247 83.6787 31.214 83.6817 31.181 83.6817H19.7635C19.7292 83.6817 19.695 83.6784 19.6613 83.6718" fill="#6C8AC5"/>
<path fill-rule="evenodd" clip-rule="evenodd" d="M19.9672 84.3212H30.9763C31.1782 84.3219 31.3715 84.4024 31.5142 84.5452C31.6569 84.688 31.7373 84.8814 31.7378 85.0833V91.319C31.7373 91.5209 31.6569 91.7143 31.5142 91.8571C31.3715 91.9998 31.1781 92.0803 30.9763 92.0809H19.9672C19.7653 92.0803 19.5719 91.9998 19.4292 91.8571C19.2865 91.7143 19.2062 91.5209 19.2056 91.319V85.0833C19.2062 84.8814 19.2865 84.688 19.4292 84.5452C19.5719 84.4024 19.7653 84.3219 19.9672 84.3212Z" fill="#4CB5FF"/>
<path d="M30.9677 83.6636H19.9759V84.4019H30.9677V83.6636Z" fill="#3A9DE5"/>
<path fill-rule="evenodd" clip-rule="evenodd" d="M19.9672 84.3212H29.8166C30.0184 84.3219 30.2118 84.4024 30.3545 84.5452C30.4972 84.688 30.5776 84.8814 30.5781 85.0833V91.319C30.5776 91.5209 30.4972 91.7143 30.3545 91.8571C30.2118 91.9998 30.0184 92.0803 29.8166 92.0809H19.9672C19.7653 92.0803 19.5719 91.9998 19.4292 91.8571C19.2865 91.7143 19.2062 91.5209 19.2056 91.319V85.0833C19.2062 84.8814 19.2865 84.688 19.4292 84.5452C19.5719 84.4024 19.7653 84.3219 19.9672 84.3212Z" fill="#83C9FF"/>
<path d="M27.7044 85.7057H19.1003V90.6952H27.7044V85.7057Z" fill="#E8EFFF"/>
<path fill-rule="evenodd" clip-rule="evenodd" d="M21.1597 80.9802C21.2216 80.9803 21.2809 81.0049 21.3247 81.0487C21.3685 81.0924 21.3932 81.1517 21.3934 81.2136V82.4958C21.3934 82.5578 21.3688 82.6173 21.325 82.6611C21.2811 82.7049 21.2217 82.7295 21.1597 82.7295C21.0977 82.7295 21.0383 82.7049 20.9944 82.6611C20.9506 82.6173 20.926 82.5578 20.926 82.4958V81.2147C20.9262 81.1528 20.9509 81.0935 20.9947 81.0498C21.0385 81.0061 21.0978 80.9814 21.1597 80.9813M22.1983 80.9813C22.2602 80.9815 22.3195 81.0062 22.3632 81.0499C22.407 81.0936 22.4317 81.1528 22.432 81.2147V82.4958C22.4331 82.5272 22.4279 82.5585 22.4166 82.5879C22.4054 82.6172 22.3883 82.6439 22.3665 82.6665C22.3447 82.6891 22.3185 82.7071 22.2896 82.7194C22.2607 82.7317 22.2296 82.738 22.1982 82.738C22.1668 82.738 22.1357 82.7317 22.1068 82.7194C22.0779 82.7071 22.0517 82.6891 22.0299 82.6665C22.0081 82.6439 21.991 82.6172 21.9797 82.5879C21.9685 82.5585 21.9632 82.5272 21.9643 82.4958V81.2147C21.9643 81.1526 21.989 81.093 22.0328 81.0491C22.0767 81.0051 22.1362 80.9803 22.1983 80.9802V80.9813ZM22.198 80.9802C22.26 80.9803 22.3193 81.0049 22.3631 81.0487C22.407 81.0924 22.4317 81.1517 22.432 81.2136V82.4958C22.4331 82.5272 22.4279 82.5585 22.4166 82.5879C22.4054 82.6172 22.3883 82.6439 22.3665 82.6665C22.3447 82.6891 22.3185 82.7071 22.2896 82.7194C22.2607 82.7317 22.2296 82.738 22.1982 82.738C22.1668 82.738 22.1357 82.7317 22.1068 82.7194C22.0779 82.7071 22.0517 82.6891 22.0299 82.6665C22.0081 82.6439 21.991 82.6172 21.9797 82.5879C21.9685 82.5585 21.9632 82.5272 21.9643 82.4958V81.2147C21.9332 81.0461 21.9704 80.872 22.0676 80.7308C22.1648 80.5896 22.3142 80.4928 22.4828 80.4617C22.6514 80.4306 22.8255 80.4677 22.9667 80.565C23.1079 80.6622 23.2047 80.8115 23.2358 80.9802H22.198ZM23.2367 80.9802C23.2986 80.9803 23.3579 81.0049 23.4018 81.0487C23.4456 81.0924 23.4704 81.1517 23.4707 81.2136V82.4958C23.4718 82.5272 23.4665 82.5585 23.4553 82.5879C23.444 82.6172 23.427 82.6439 23.4051 82.6665C23.3833 82.6891 23.3572 82.7071 23.3282 82.7194C23.2993 82.7317 23.2682 82.738 23.2368 82.738C23.2054 82.738 23.1743 82.7317 23.1454 82.7194C23.1165 82.7071 23.0903 82.6891 23.0685 82.6665C23.0467 82.6439 23.0296 82.6172 23.0184 82.5879C23.0071 82.5585 23.0019 82.5272 23.003 82.4958V81.2147C22.9719 81.046 23.0091 80.8718 23.1064 80.7305C23.2037 80.5892 23.3531 80.4924 23.5219 80.4613C23.6906 80.4302 23.8648 80.4674 24.0061 80.5647C24.1473 80.662 24.2442 80.8114 24.2753 80.9802H23.2367ZM24.2756 80.9802C24.3375 80.9803 24.3968 81.0049 24.4406 81.0487C24.4844 81.0924 24.5091 81.1517 24.5093 81.2136V82.4958C24.5104 82.5272 24.5052 82.5585 24.4939 82.5879C24.4826 82.6172 24.4656 82.6439 24.4438 82.6665C24.4219 82.6891 24.3958 82.7071 24.3669 82.7194C24.338 82.7317 24.3069 82.738 24.2754 82.738C24.244 82.738 24.2129 82.7317 24.184 82.7194C24.1551 82.7071 24.129 82.6891 24.1071 82.6665C24.0853 82.6439 24.0683 82.6172 24.057 82.5879C24.0457 82.5585 24.0405 82.5272 24.0416 82.4958V81.2147C24.0262 81.1312 24.0274 81.0454 24.0452 80.9623C24.0629 80.8792 24.0968 80.8004 24.145 80.7304C24.1932 80.6604 24.2547 80.6006 24.3261 80.5544C24.3974 80.5082 24.4771 80.4765 24.5606 80.4611C24.6442 80.4457 24.73 80.4469 24.8131 80.4647C24.8962 80.4824 24.9749 80.5164 25.0449 80.5646C25.1149 80.6128 25.1747 80.6743 25.2209 80.7456C25.2671 80.8169 25.2988 80.8966 25.3142 80.9802H24.2756ZM25.3139 80.9802C25.3758 80.9803 25.4351 81.0049 25.4789 81.0487C25.5227 81.0924 25.5474 81.1517 25.5476 81.2136V82.4958C25.5476 82.5578 25.523 82.6173 25.4792 82.6611C25.4354 82.7049 25.3759 82.7295 25.3139 82.7295C25.252 82.7295 25.1925 82.7049 25.1487 82.6611C25.1049 82.6173 25.0802 82.5578 25.0802 82.4958V81.2147C25.0491 81.046 25.0863 80.8718 25.1836 80.7305C25.2809 80.5892 25.4304 80.4924 25.5991 80.4613C25.7678 80.4302 25.942 80.4674 26.0833 80.5647C26.2246 80.662 26.3215 80.8114 26.3526 80.9802H25.3139ZM26.3526 80.9802C26.4145 80.9803 26.4738 81.0049 26.5176 81.0487C26.5613 81.0924 26.586 81.1517 26.5863 81.2136V82.4958C26.5863 82.5578 26.5617 82.6173 26.5178 82.6611C26.474 82.7049 26.4146 82.7295 26.3526 82.7295C26.2906 82.7295 26.2311 82.7049 26.1873 82.6611C26.1435 82.6173 26.1189 82.5578 26.1189 82.4958V81.2147C26.0878 81.046 26.125 80.8718 26.2223 80.7305C26.3196 80.5892 26.469 80.4924 26.6378 80.4613C26.8065 80.4302 26.9806 80.4674 27.1219 80.5647C27.2632 80.662 27.3601 80.8114 27.3912 80.9802H26.3526ZM27.3912 80.9802C27.4531 80.9803 27.5124 81.0049 27.5562 81.0487C27.6 81.0924 27.6247 81.1517 27.6249 81.2136V82.4958C27.6249 82.5578 27.6003 82.6173 27.5565 82.6611C27.5126 82.7049 27.4532 82.7295 27.3912 82.7295C27.3292 82.7295 27.2698 82.7049 27.2259 82.6611C27.1821 82.6173 27.1575 82.5578 27.1575 82.4958V81.2147C27.1264 81.046 27.1636 80.8718 27.2609 80.7305C27.3582 80.5892 27.5077 80.4924 27.6764 80.4613C27.8451 80.4302 28.0193 80.4674 28.1606 80.5647C28.3019 80.662 28.3987 80.8114 28.4298 80.9802H27.3912ZM28.4298 80.9802C28.4917 80.9803 28.551 81.0049 28.5948 81.0487C28.6386 81.0924 28.6633 81.1517 28.6635 81.2136V82.4958C28.6635 82.5578 28.6389 82.6173 28.5951 82.6611C28.5513 82.7049 28.4918 82.7295 28.4298 82.7295C28.3678 82.7295 28.3084 82.7049 28.2646 82.6611C28.2207 82.6173 28.1961 82.5578 28.1961 82.4958V81.2147C28.165 81.046 28.2022 80.8718 28.2995 80.7305C28.3968 80.5892 28.5463 80.4924 28.715 80.4613C28.8837 80.4302 29.0579 80.4674 29.1992 80.5647C29.3405 80.662 29.4374 80.8114 29.4685 80.9802H28.4298ZM19.0824 80.9802C19.1443 80.9803 19.2036 81.0049 19.2474 81.0487C19.2912 81.0924 19.3159 81.1517 19.3161 81.2136V82.4958C19.3161 82.5578 19.2915 82.6173 19.2477 82.6611C19.2039 82.7049 19.1444 82.7295 19.0824 82.7295C19.0205 82.7295 18.961 82.7049 18.9172 82.6611C18.8734 82.6173 18.8487 82.5578 18.8487 82.4958V81.2147C18.8176 81.046 18.8548 80.8718 18.9521 80.7305C19.0494 80.5892 19.1989 80.4924 19.3676 80.4613C19.5363 80.4302 19.7105 80.4674 19.8518 80.5647C19.9931 80.662 20.09 80.8114 20.1211 80.9802H19.0824Z" fill="#5074B0"/>
<path fill-rule="evenodd" clip-rule="evenodd" d="M20.7973 84.8754C20.9464 84.8759 21.0893 84.9354 21.1947 85.0409C21.3 85.1464 21.3594 85.2893 21.3598 85.4384V89.3498C21.3615 89.4248 21.3481 89.4993 21.3206 89.569C21.2931 89.6387 21.2519 89.7023 21.1995 89.7559C21.1471 89.8094 21.0846 89.852 21.0155 89.8811C20.9464 89.9102 20.8722 89.9252 20.7972 89.9252C20.7222 89.9252 20.648 89.9102 20.579 89.8811C20.5099 89.852 20.4473 89.8094 20.3949 89.7559C20.3425 89.7023 20.3013 89.6387 20.2738 89.569C20.2463 89.4993 20.233 89.4248 20.2346 89.3498V85.4384C20.235 85.2892 20.2944 85.1463 20.3998 85.0408C20.5053 84.9353 20.6482 84.8758 20.7973 84.8754Z" fill="white"/>
<path fill-rule="evenodd" clip-rule="evenodd" d="M20.7975 84.8754C20.9466 84.8759 21.0894 84.9354 21.1948 85.0409C21.3002 85.1464 21.3595 85.2893 21.3599 85.4384V85.7061H20.2345V85.4384C20.2349 85.2892 20.2943 85.1462 20.3998 85.0407C20.5053 84.9352 20.6483 84.8757 20.7975 84.8754Z" fill="#BCE1FF"/>
<path d="M30.1028 91.1477C30.1028 91.7081 29.6773 92.1619 29.1506 92.1619H25.3991C24.873 92.1619 24.447 91.7081 24.447 91.1477C24.447 90.5873 24.8725 90.1343 25.3991 90.1343H29.1506C29.6762 90.1343 30.1028 90.5881 30.1028 91.1477Z" fill="#F9CD55"/>
<path d="M30.1034 91.1477C30.1034 90.5878 29.678 90.1343 29.1513 90.1343H27.2899V92.1619H29.1513C29.6768 92.1619 30.1034 91.7081 30.1034 91.1477Z" fill="#F44D11"/>
<path d="M25.3986 92.1621H27.2889V91.1558H24.447C24.4507 91.7123 24.8753 92.1621 25.3986 92.1621Z" fill="#F9CD55"/>
<path d="M29.1501 92.1621C29.6736 92.1621 30.0979 91.7123 30.1022 91.1558H27.2889V92.1621H29.1501Z" fill="#F44D11"/>
<path fill-rule="evenodd" clip-rule="evenodd" d="M27.2899 90.4548H29.2366C29.3875 90.4548 29.5109 90.5858 29.5109 90.7464C29.5109 90.9069 29.3875 91.0379 29.2366 91.0379H27.2899V90.4548Z" fill="#FFA484"/>
<path fill-rule="evenodd" clip-rule="evenodd" d="M26.4937 90.4548H27.2878V91.0379H26.4937C26.3425 91.0379 26.2194 90.9069 26.2194 90.7464C26.2194 90.5858 26.3425 90.4548 26.4937 90.4548Z" fill="#FFEBBC"/>
<path d="M26.8272 88.0346C27.1545 88.4739 27.0859 89.1106 26.6747 89.4592L23.7375 91.9432C23.3256 92.2918 22.7266 92.2192 22.3993 91.7798C22.072 91.3405 22.1407 90.7043 22.5525 90.356L25.4894 87.8721C25.9012 87.5235 26.4999 87.5964 26.8272 88.0346Z" fill="#F9CD55"/>
<path d="M26.827 88.0343C26.4997 87.5961 25.901 87.5238 25.4891 87.8718L24.0305 89.1042L25.2157 90.6925L26.6733 89.4598C27.0845 89.1113 27.1532 88.4745 26.8259 88.0352" fill="#F44D11"/>
<path d="M23.7364 91.9436L25.2163 90.6925L24.6281 89.9043L22.4031 91.7865C22.7315 92.2198 23.3266 92.291 23.7361 91.9444" fill="#F9CD55"/>
<path d="M26.6735 89.4596C27.0834 89.1124 27.1526 88.4791 26.8307 88.0414L24.6281 89.904L25.2163 90.6922L26.6735 89.4596Z" fill="#F44D11"/>
<path fill-rule="evenodd" clip-rule="evenodd" d="M24.2189 89.3557L25.7431 88.0669C25.7707 88.0429 25.803 88.025 25.838 88.0143C25.873 88.0035 25.9098 88.0002 25.9461 88.0045C25.9824 88.0087 26.0174 88.0205 26.0489 88.0391C26.0804 88.0576 26.1077 88.0826 26.1291 88.1123C26.1742 88.1738 26.1946 88.25 26.1864 88.3259C26.1783 88.4018 26.142 88.4718 26.0848 88.5224L24.5598 89.814L24.2189 89.3557Z" fill="#FFA484"/>
<path fill-rule="evenodd" clip-rule="evenodd" d="M23.5951 89.8809L24.2177 89.3548L24.558 89.8123L23.9358 90.3387C23.9079 90.3623 23.8755 90.3799 23.8405 90.3903C23.8056 90.4007 23.7688 90.4038 23.7326 90.3993C23.6964 90.3949 23.6615 90.3829 23.6301 90.3643C23.5987 90.3457 23.5716 90.3207 23.5503 90.291C23.5052 90.2295 23.4847 90.1533 23.4928 90.0775C23.501 90.0016 23.5371 89.9315 23.5943 89.8809" fill="#FFEBBC"/>
<path d="M62.3095 91.3333C62.3095 91.8935 61.8841 92.347 61.3574 92.347H57.6059C57.08 92.347 56.6537 91.8932 56.6537 91.3333C56.6537 90.7735 57.0792 90.3199 57.6059 90.3199H61.3574C61.8832 90.3199 62.3095 90.7737 62.3095 91.3333Z" fill="#F9CD55"/>
<path d="M62.3098 91.3333C62.3098 90.7735 61.8844 90.3199 61.3577 90.3199H59.4966V92.347H61.3577C61.8836 92.347 62.3098 91.8932 62.3098 91.3333Z" fill="#F44D11"/>
<path d="M61.3577 92.3475C61.8813 92.3475 62.3056 91.8979 62.3098 91.3415H59.4966V92.3475H61.3577Z" fill="#F44D11"/>
<path fill-rule="evenodd" clip-rule="evenodd" d="M59.4966 90.6414H61.4434C61.5943 90.6414 61.7176 90.7727 61.7176 90.9326C61.7176 91.0926 61.5943 91.2248 61.4434 91.2248H59.4966V90.6414Z" fill="#FFA484"/>
<path fill-rule="evenodd" clip-rule="evenodd" d="M58.7022 90.6414H59.4964V91.2248H58.7022C58.5514 91.2248 58.428 91.0935 58.428 90.9326C58.428 90.7718 58.5514 90.6414 58.7022 90.6414Z" fill="#FFEBBC"/>
<path fill-rule="evenodd" clip-rule="evenodd" d="M47.8008 51.552H51.0942C51.1534 51.552 51.2102 51.5755 51.2521 51.6174C51.2939 51.6593 51.3174 51.716 51.3174 51.7752C51.3174 51.8344 51.2939 51.8912 51.2521 51.9331C51.2102 51.9749 51.1534 51.9985 51.0942 51.9985H47.8008C47.7416 51.9985 47.6848 51.9749 47.643 51.9331C47.6011 51.8912 47.5776 51.8344 47.5776 51.7752C47.5776 51.716 47.6011 51.6593 47.643 51.6174C47.6848 51.5755 47.7416 51.552 47.8008 51.552Z" fill="white"/>
<path fill-rule="evenodd" clip-rule="evenodd" d="M19.7844 92.423H88.3475C88.5046 92.423 88.6326 92.5387 88.6326 92.6802C88.6326 92.8218 88.5043 92.937 88.3475 92.937H19.7844C19.6273 92.937 19.4993 92.8213 19.4993 92.6802C19.4993 92.5392 19.6289 92.423 19.7844 92.423Z" fill="#6632EC"/>
<path fill-rule="evenodd" clip-rule="evenodd" d="M30.8345 69.2271H40.0732C40.1317 69.2288 40.1884 69.2072 40.231 69.167C40.2735 69.1269 40.2984 69.0715 40.3001 69.013V68.5535C40.2984 68.495 40.2735 68.4396 40.231 68.3995C40.1884 68.3593 40.1317 68.3377 40.0732 68.3394H30.8345C30.7762 68.3381 30.7199 68.3599 30.6777 68.4C30.6355 68.4401 30.6109 68.4953 30.6093 68.5535V69.013C30.6109 69.0712 30.6355 69.1264 30.6777 69.1665C30.7199 69.2066 30.7762 69.2284 30.8345 69.2271Z" fill="#E3ECFF"/>
<path fill-rule="evenodd" clip-rule="evenodd" d="M37.9314 79.682H45.478C45.6915 79.6826 45.8961 79.7678 46.0471 79.9187C46.198 80.0697 46.2831 80.2743 46.2838 80.4877V91.2748C46.2831 91.4883 46.1979 91.6927 46.047 91.8437C45.896 91.9946 45.6915 92.0796 45.478 92.0803H37.9314C37.718 92.0796 37.5136 91.9944 37.3627 91.8435C37.2119 91.6926 37.1268 91.4882 37.1262 91.2748V80.4877C37.1268 80.2743 37.2118 80.0698 37.3626 79.9188C37.5135 79.7679 37.7179 79.6827 37.9314 79.682Z" fill="#B1D2FC"/>
<path d="M41.3744 82.3577C41.3745 82.6825 41.2782 83.0001 41.0978 83.2702C40.9173 83.5404 40.6608 83.7509 40.3607 83.8753C40.0606 83.9996 39.7304 84.0322 39.4118 83.9689C39.0932 83.9056 38.8005 83.7492 38.5707 83.5196C38.341 83.2899 38.1845 82.9973 38.1211 82.6787C38.0577 82.3601 38.0901 82.0298 38.2144 81.7297C38.3387 81.4295 38.5491 81.173 38.8192 80.9924C39.0893 80.8119 39.4068 80.7155 39.7317 80.7155C40.1672 80.7155 40.585 80.8885 40.8931 81.1964C41.2011 81.5044 41.3743 81.9221 41.3744 82.3577Z" fill="#CBE2E7"/>
<path d="M41.1548 82.3569C41.1547 82.6384 41.0712 82.9136 40.9148 83.1476C40.7584 83.3816 40.5361 83.564 40.276 83.6716C40.016 83.7793 39.7298 83.8075 39.4537 83.7525C39.1777 83.6976 38.9241 83.562 38.7251 83.3629C38.5261 83.1639 38.3906 82.9103 38.3357 82.6342C38.2808 82.3581 38.309 82.072 38.4167 81.812C38.5244 81.5519 38.7069 81.3297 38.9409 81.1733C39.1749 81.0169 39.4501 80.9334 39.7316 80.9334C40.1091 80.9335 40.4711 81.0835 40.738 81.3505C41.0049 81.6174 41.1548 81.9795 41.1548 82.3569Z" fill="white"/>
<path d="M38.7555 83.5326L38.735 83.5198L38.7458 83.403L38.7796 83.3258L40.5236 81.2622L40.5936 81.2151L40.7091 81.1856L40.7238 81.2038L38.7555 83.5326Z" fill="#9FC1D1"/>
<path d="M45.1374 82.3577C45.1374 82.6825 45.0411 83 44.8607 83.27C44.6802 83.5401 44.4238 83.7506 44.1237 83.8748C43.8236 83.9991 43.4934 84.0317 43.1749 83.9683C42.8563 83.9049 42.5637 83.7485 42.3341 83.5189C42.1044 83.2892 41.948 82.9966 41.8846 82.678C41.8213 82.3595 41.8538 82.0293 41.9781 81.7292C42.1024 81.4292 42.3129 81.1727 42.5829 80.9922C42.853 80.8118 43.1705 80.7155 43.4953 80.7155C43.9308 80.7155 44.3485 80.8885 44.6565 81.1965C44.9644 81.5044 45.1374 81.9221 45.1374 82.3577Z" fill="#CBE2E7"/>
<path d="M44.9181 82.3569C44.9181 82.6385 44.8346 82.9137 44.6782 83.1478C44.5218 83.3819 44.2995 83.5644 44.0394 83.6721C43.7793 83.7798 43.493 83.808 43.2169 83.7531C42.9408 83.6982 42.6871 83.5626 42.488 83.3635C42.289 83.1644 42.1534 82.9108 42.0985 82.6347C42.0435 82.3585 42.0717 82.0723 42.1795 81.8122C42.2872 81.5521 42.4697 81.3298 42.7038 81.1733C42.9378 81.0169 43.2131 80.9334 43.4946 80.9334C43.8721 80.9335 44.2342 81.0835 44.5011 81.3505C44.768 81.6174 44.918 81.9794 44.9181 82.3569Z" fill="white"/>
<path d="M42.5201 83.5326L42.4996 83.5198L42.5101 83.403L42.5442 83.3258L44.2882 81.2622L44.3582 81.2151L44.4734 81.1856L44.4884 81.2038L42.5201 83.5326Z" fill="#9FC1D1"/>
<path d="M41.3744 86.0954C41.3743 86.4202 41.2779 86.7377 41.0973 87.0077C40.9168 87.2777 40.6603 87.4882 40.3602 87.6124C40.06 87.7366 39.7298 87.7691 39.4113 87.7057C39.0927 87.6423 38.8001 87.4858 38.5704 87.2561C38.3408 87.0264 38.1844 86.7338 38.121 86.4152C38.0577 86.0966 38.0902 85.7664 38.2145 85.4663C38.3388 85.1663 38.5492 84.9098 38.8193 84.7293C39.0893 84.5488 39.4068 84.4524 39.7317 84.4524C40.1672 84.4524 40.585 84.6254 40.8931 84.9333C41.2011 85.2413 41.3743 85.659 41.3744 86.0945" fill="#CBE2E7"/>
<path d="M41.3744 89.8354C41.3744 90.1602 41.2781 90.4778 41.0976 90.7479C40.9172 91.018 40.6607 91.2285 40.3606 91.3528C40.0604 91.4771 39.7302 91.5097 39.4116 91.4463C39.093 91.383 38.8004 91.2266 38.5706 90.9969C38.3409 90.7672 38.1845 90.4746 38.1211 90.156C38.0577 89.8374 38.0902 89.5072 38.2144 89.207C38.3387 88.9069 38.5492 88.6504 38.8192 88.4699C39.0893 88.2894 39.4068 88.193 39.7317 88.1929C40.1673 88.1929 40.5851 88.366 40.8932 88.674C41.2012 88.982 41.3743 89.3998 41.3744 89.8354Z" fill="#CBE2E7"/>
<path d="M41.1548 86.0957C41.1547 86.3772 41.0712 86.6523 40.9148 86.8863C40.7584 87.1203 40.5361 87.3027 40.276 87.4104C40.016 87.5181 39.7298 87.5462 39.4537 87.4912C39.1777 87.4363 38.9241 87.3007 38.7251 87.1017C38.5261 86.9026 38.3906 86.649 38.3357 86.373C38.2808 86.0969 38.309 85.8107 38.4167 85.5507C38.5244 85.2906 38.7069 85.0684 38.9409 84.912C39.1749 84.7556 39.4501 84.6722 39.7316 84.6722C40.1091 84.6723 40.4711 84.8223 40.738 85.0892C41.0049 85.3562 41.1548 85.7182 41.1548 86.0957Z" fill="white"/>
<path d="M41.1548 89.8347C41.1547 90.1161 41.0711 90.3913 40.9147 90.6252C40.7582 90.8592 40.5359 91.0415 40.2758 91.1492C40.0158 91.2568 39.7296 91.2849 39.4536 91.2299C39.1775 91.1749 38.924 91.0393 38.725 90.8403C38.526 90.6412 38.3905 90.3876 38.3357 90.1116C38.2808 89.8355 38.309 89.5494 38.4167 89.2893C38.5245 89.0293 38.7069 88.8071 38.9409 88.6507C39.175 88.4943 39.4501 88.4109 39.7316 88.4109C39.9185 88.4109 40.1036 88.4478 40.2763 88.5194C40.449 88.5909 40.6059 88.6958 40.7381 88.828C40.8702 88.9602 40.975 89.1172 41.0465 89.2899C41.1181 89.4626 41.1548 89.6477 41.1548 89.8347Z" fill="white"/>
<path d="M38.7555 87.2725L38.735 87.2595L38.7458 87.1426L38.7796 87.0657L40.5236 85.0021L40.5936 84.9547L40.7091 84.9252L40.7238 84.9434L38.7555 87.2725Z" fill="#9FC1D1"/>
<path d="M38.7555 91.0109L38.735 90.9979L38.7458 90.8813L38.7796 90.8045L40.5236 88.7408L40.5936 88.6934L40.7091 88.6639L40.7238 88.6821L38.7555 91.0109Z" fill="#9FC1D1"/>
<path d="M45.1374 86.0955C45.1374 86.4203 45.0411 86.7378 44.8607 87.0078C44.6802 87.2779 44.4238 87.4883 44.1237 87.6126C43.8236 87.7369 43.4934 87.7694 43.1749 87.7061C42.8563 87.6427 42.5637 87.4863 42.3341 87.2567C42.1044 87.027 41.948 86.7344 41.8846 86.4158C41.8213 86.0973 41.8538 85.7671 41.9781 85.467C42.1024 85.167 42.3129 84.9105 42.5829 84.73C42.853 84.5496 43.1705 84.4533 43.4953 84.4533C43.9308 84.4533 44.3485 84.6263 44.6565 84.9343C44.9644 85.2422 45.1374 85.6599 45.1374 86.0955Z" fill="#CBE2E7"/>
<path d="M45.1374 89.8354C45.1374 90.1602 45.041 90.4776 44.8606 90.7477C44.6801 91.0177 44.4236 91.2281 44.1235 91.3524C43.8234 91.4766 43.4933 91.5091 43.1747 91.4457C42.8562 91.3823 42.5636 91.2259 42.334 90.9962C42.1043 90.7665 41.948 90.4739 41.8846 90.1554C41.8213 89.8368 41.8538 89.5067 41.9781 89.2066C42.1024 88.9066 42.3129 88.6501 42.583 88.4697C42.853 88.2892 43.1705 88.1929 43.4953 88.1929C43.7109 88.1929 43.9245 88.2354 44.1238 88.318C44.323 88.4005 44.5041 88.5215 44.6566 88.674C44.8091 88.8265 44.93 89.0076 45.0125 89.2069C45.095 89.4061 45.1375 89.6197 45.1374 89.8354Z" fill="#CBE2E7"/>
<path d="M44.9181 86.0957C44.9181 86.3772 44.8346 86.6525 44.6782 86.8865C44.5218 87.1206 44.2995 87.3031 44.0394 87.4108C43.7793 87.5186 43.493 87.5468 43.2169 87.4918C42.9408 87.4369 42.6871 87.3013 42.488 87.1023C42.289 86.9032 42.1534 86.6495 42.0985 86.3734C42.0435 86.0973 42.0717 85.811 42.1795 85.5509C42.2872 85.2908 42.4697 85.0685 42.7038 84.9121C42.9378 84.7557 43.2131 84.6722 43.4946 84.6722C43.6816 84.6722 43.8667 84.709 44.0394 84.7805C44.2121 84.8521 44.369 84.9569 44.5012 85.0891C44.6334 85.2213 44.7382 85.3782 44.8098 85.5509C44.8813 85.7236 44.9181 85.9088 44.9181 86.0957Z" fill="white"/>
<path d="M44.9181 89.8347C44.9181 90.1162 44.8345 90.3914 44.6781 90.6255C44.5216 90.8595 44.2993 91.0419 44.0392 91.1496C43.7791 91.2573 43.4928 91.2855 43.2167 91.2305C42.9406 91.1756 42.687 91.04 42.4879 90.8409C42.2889 90.6418 42.1533 90.3881 42.0984 90.112C42.0435 89.8359 42.0717 89.5497 42.1795 89.2896C42.2872 89.0295 42.4697 88.8072 42.7038 88.6508C42.9379 88.4944 43.2131 88.4109 43.4946 88.4109C43.6816 88.4109 43.8667 88.4477 44.0394 88.5193C44.2122 88.5908 44.3691 88.6957 44.5013 88.8279C44.6335 88.9601 44.7383 89.1171 44.8098 89.2898C44.8814 89.4626 44.9182 89.6477 44.9181 89.8347Z" fill="white"/>
<path d="M42.5201 87.2725L42.4996 87.2595L42.5101 87.1426L42.5442 87.0657L44.2882 85.0021L44.3582 84.9547L44.4734 84.9252L44.4884 84.9434L42.5201 87.2725Z" fill="#9FC1D1"/>
<path d="M42.5201 91.0109L42.4996 90.9979L42.5101 90.8813L42.5442 90.8045L44.2882 88.7408L44.3582 88.6934L44.4734 88.6639L44.4884 88.6821L42.5201 91.0109Z" fill="#9FC1D1"/>
</svg>
