<svg width="101" height="100" viewBox="0 0 101 100" fill="none" xmlns="http://www.w3.org/2000/svg">
<rect width="100.155" height="93.064" rx="12" fill="#6632EC"/>
<path d="M15.2521 23.7602C14.003 23.7602 13.0723 23.45 12.4602 22.8296C11.8563 22.2009 11.5543 21.2744 11.5543 20.0501V14.8881H13.155V20.0377C13.155 20.8153 13.3205 21.4026 13.6514 21.7997C13.9906 22.1967 14.5241 22.3953 15.2521 22.3953C15.947 22.3953 16.4681 22.1967 16.8156 21.7997C17.1713 21.4026 17.3491 20.8153 17.3491 20.0377V14.8881H18.925V20.0501C18.925 21.2744 18.6148 22.2009 17.9944 22.8296C17.3822 23.45 16.4681 23.7602 15.2521 23.7602ZM23.8417 23.7602C23.1386 23.7602 22.4892 23.6734 21.8936 23.4996C21.3062 23.3177 20.8016 23.0695 20.3797 22.7551L20.8761 21.5019C21.1573 21.7004 21.451 21.87 21.7571 22.0106C22.0631 22.143 22.3899 22.2464 22.7373 22.3208C23.0848 22.387 23.4529 22.4201 23.8417 22.4201C24.4952 22.4201 24.9667 22.3126 25.2563 22.0975C25.5458 21.8824 25.6906 21.6011 25.6906 21.2537C25.6906 20.9476 25.5913 20.716 25.3928 20.5588C25.1942 20.3934 24.8385 20.2569 24.3256 20.1493L22.9235 19.8639C22.1211 19.6985 21.5213 19.4214 21.1242 19.0326C20.7272 18.6438 20.5286 18.1226 20.5286 17.4691C20.5286 16.9231 20.6734 16.4475 20.9629 16.0421C21.2525 15.6368 21.6578 15.3224 22.179 15.0991C22.7001 14.8757 23.3081 14.764 24.003 14.764C24.6234 14.764 25.1984 14.855 25.7278 15.037C26.2572 15.2107 26.6998 15.463 27.0555 15.7939L26.5592 16.9852C26.2035 16.6874 25.8147 16.4681 25.3928 16.3275C24.9709 16.1786 24.4994 16.1042 23.9782 16.1042C23.3909 16.1042 22.9317 16.22 22.6008 16.4516C22.2782 16.6749 22.1169 16.9852 22.1169 17.3822C22.1169 17.6883 22.2162 17.9323 22.4147 18.1143C22.6215 18.2963 22.969 18.437 23.457 18.5362L24.8468 18.8092C25.674 18.9747 26.2862 19.2477 26.6833 19.6282C27.0803 20.0004 27.2789 20.5051 27.2789 21.142C27.2789 21.6632 27.1382 22.1223 26.857 22.5194C26.5757 22.9082 26.1786 23.2142 25.6658 23.4376C25.1529 23.6527 24.5449 23.7602 23.8417 23.7602ZM28.7869 23.6361V14.8881H34.6809V16.1414H30.3256V18.561H34.3956V19.8267H30.3256V22.3705H34.6809V23.6361H28.7869ZM39.2863 19.2559C39.2863 18.3377 39.4517 17.5435 39.7826 16.8735C40.1218 16.2034 40.6057 15.6864 41.2344 15.3224C41.8631 14.9502 42.6118 14.764 43.4803 14.764C44.3407 14.764 45.0852 14.9502 45.7139 15.3224C46.3426 15.6864 46.8265 16.2034 47.1657 16.8735C47.5131 17.5435 47.6868 18.3336 47.6868 19.2435C47.6868 20.1617 47.5131 20.96 47.1657 21.6384C46.8265 22.3084 46.3426 22.8296 45.7139 23.2018C45.0852 23.5741 44.3407 23.7602 43.4803 23.7602C42.6118 23.7602 41.8631 23.5741 41.2344 23.2018C40.614 22.8296 40.1342 22.3084 39.795 21.6384C39.4558 20.96 39.2863 20.1659 39.2863 19.2559ZM40.9614 19.2559C40.9614 20.2403 41.1724 21.0097 41.5943 21.5639C42.0161 22.1182 42.6448 22.3953 43.4803 22.3953C44.291 22.3953 44.9156 22.1182 45.354 21.5639C45.7925 21.0097 46.0117 20.2403 46.0117 19.2559C46.0117 18.2632 45.7925 17.4939 45.354 16.9479C44.9239 16.402 44.2993 16.129 43.4803 16.129C42.6448 16.129 42.0161 16.402 41.5943 16.9479C41.1724 17.4939 40.9614 18.2632 40.9614 19.2559ZM49.3385 23.6361V14.8881H55.1085V16.1414H50.9392V18.6231H54.8231V19.8764H50.9392V23.6361H49.3385ZM11.604 39.6361V30.8881H14.7806C15.7815 30.8881 16.6253 31.0618 17.3119 31.4093C18.0068 31.7484 18.5321 32.2448 18.8878 32.8983C19.2435 33.5435 19.4214 34.3294 19.4214 35.2559C19.4214 36.1742 19.2435 36.96 18.8878 37.6135C18.5321 38.2671 18.0068 38.7675 17.3119 39.115C16.6253 39.4624 15.7815 39.6361 14.7806 39.6361H11.604ZM13.2047 38.3084H14.6813C15.7402 38.3084 16.526 38.0561 17.0389 37.5515C17.5518 37.0469 17.8082 36.2817 17.8082 35.2559C17.8082 34.2219 17.5518 33.4567 17.0389 32.9603C16.526 32.4557 15.7402 32.2034 14.6813 32.2034H13.2047V38.3084ZM21.0558 39.6361V30.8881H24.8776C25.8372 30.8881 26.5776 31.1156 27.0987 31.5706C27.6282 32.0256 27.8929 32.6584 27.8929 33.4691C27.8929 34.0068 27.7729 34.4659 27.533 34.8464C27.3014 35.227 26.9664 35.5206 26.528 35.7274C26.0895 35.926 25.5725 36.0253 24.9769 36.0253L25.1506 35.7895H25.5725C25.9199 35.7895 26.2302 35.8805 26.5031 36.0625C26.7761 36.2445 26.9995 36.5216 27.1732 36.8939L28.4513 39.6361H26.6893L25.3988 36.7946C25.283 36.5051 25.1051 36.3148 24.8652 36.2238C24.6336 36.1328 24.3523 36.0873 24.0214 36.0873H22.6565V39.6361H21.0558ZM22.6565 34.9085H24.617C25.1796 34.9085 25.6056 34.7927 25.8951 34.561C26.1929 34.3211 26.3418 33.9737 26.3418 33.5187C26.3418 33.0637 26.1929 32.7204 25.8951 32.4888C25.6056 32.2572 25.1796 32.1414 24.617 32.1414H22.6565V34.9085ZM33.4165 39.7602C32.1674 39.7602 31.2368 39.45 30.6246 38.8296C30.0207 38.2009 29.7188 37.2744 29.7188 36.0501V30.8881H31.3195V36.0377C31.3195 36.8153 31.4849 37.4026 31.8158 37.7997C32.155 38.1967 32.6886 38.3953 33.4165 38.3953C34.1114 38.3953 34.6326 38.1967 34.98 37.7997C35.3357 37.4026 35.5136 36.8153 35.5136 36.0377V30.8881H37.0895V36.0501C37.0895 37.2744 36.7793 38.2009 36.1588 38.8296C35.5467 39.45 34.6326 39.7602 33.4165 39.7602ZM43.1726 39.7602C42.1881 39.7602 41.3609 39.5782 40.6908 39.2142C40.0208 38.8503 39.5162 38.3332 39.177 37.6632C38.8378 36.9931 38.6683 36.199 38.6683 35.2807C38.6683 34.3542 38.8502 33.556 39.2142 32.8859C39.5782 32.2076 40.0994 31.6864 40.7777 31.3224C41.4643 30.9502 42.2874 30.764 43.247 30.764C43.884 30.764 44.4424 30.8509 44.9222 31.0246C45.402 31.1901 45.8238 31.4341 46.1878 31.7567L45.6543 32.9976C45.3896 32.7908 45.1372 32.6253 44.8973 32.5012C44.6574 32.3771 44.4093 32.2903 44.1528 32.2406C43.8964 32.1827 43.5986 32.1538 43.2594 32.1538C42.2998 32.1538 41.5719 32.4268 41.0755 32.9728C40.5874 33.5105 40.3434 34.2839 40.3434 35.2932C40.3434 36.3024 40.575 37.0717 41.0383 37.6011C41.5098 38.1306 42.2461 38.3953 43.247 38.3953C43.5862 38.3953 43.9253 38.3622 44.2645 38.296C44.6119 38.2298 44.9511 38.1347 45.282 38.0106L44.9842 38.6807V36.0625H42.9368V34.8961H46.3119V39.1026C45.9066 39.3094 45.4226 39.4707 44.8601 39.5865C44.2976 39.7023 43.7351 39.7602 43.1726 39.7602ZM51.1914 39.7602C50.4882 39.7602 49.8389 39.6734 49.2432 39.4996C48.6559 39.3177 48.1513 39.0695 47.7294 38.7551L48.2257 37.5019C48.507 37.7004 48.8007 37.87 49.1067 38.0106C49.4128 38.143 49.7396 38.2464 50.087 38.3208C50.4345 38.387 50.8026 38.4201 51.1914 38.4201C51.8449 38.4201 52.3164 38.3126 52.606 38.0975C52.8955 37.8824 53.0403 37.6011 53.0403 37.2537C53.0403 36.9476 52.941 36.716 52.7425 36.5588C52.5439 36.3934 52.1882 36.2569 51.6753 36.1493L50.2732 35.8639C49.4707 35.6985 48.871 35.4214 48.4739 35.0326C48.0768 34.6438 47.8783 34.1226 47.8783 33.4691C47.8783 32.9231 48.0231 32.4475 48.3126 32.0421C48.6021 31.6368 49.0075 31.3224 49.5286 31.0991C50.0498 30.8757 50.6578 30.764 51.3527 30.764C51.9731 30.764 52.5481 30.855 53.0775 31.037C53.6069 31.2107 54.0495 31.463 54.4052 31.7939L53.9089 32.9852C53.5531 32.6874 53.1643 32.4681 52.7425 32.3275C52.3206 32.1786 51.849 32.1042 51.3279 32.1042C50.7405 32.1042 50.2814 32.22 49.9505 32.4516C49.6279 32.6749 49.4666 32.9852 49.4666 33.3822C49.4666 33.6883 49.5659 33.9323 49.7644 34.1143C49.9712 34.2963 50.3186 34.437 50.8067 34.5362L52.1965 34.8092C53.0237 34.9747 53.6359 35.2477 54.0329 35.6282C54.43 36.0004 54.6285 36.5051 54.6285 37.142C54.6285 37.6632 54.4879 38.1223 54.2067 38.5194C53.9254 38.9082 53.5283 39.2142 53.0154 39.4376C52.5026 39.6527 51.8945 39.7602 51.1914 39.7602Z" fill="white"/>
<path fill-rule="evenodd" clip-rule="evenodd" d="M30.6176 68.0949H40.0503V65.1061C40.0503 64.6588 39.7491 64.293 39.3812 64.293H31.1695C30.866 64.293 30.6176 64.5947 30.6176 64.964V68.0949Z" fill="#B9CAE8"/>
<path fill-rule="evenodd" clip-rule="evenodd" d="M68.316 80.5471V89.8633C68.316 91.1112 69.1969 92.1322 70.273 92.1322H88.0139C89.0917 92.1322 89.9709 91.1112 89.9709 89.8633V80.5471C89.9709 79.2991 89.0917 78.2781 88.0139 78.2781H70.2733C69.1955 78.2781 68.3163 79.2991 68.3163 80.5471" fill="#B9CAE8"/>
<path fill-rule="evenodd" clip-rule="evenodd" d="M70.2065 85.2052C70.2065 85.2772 70.3137 85.3362 70.4434 85.3362H88.0232C88.1534 85.3362 88.26 85.2772 88.26 85.2052C88.26 85.1332 88.1534 85.0739 88.0232 85.0739H70.4434C70.3137 85.0739 70.2065 85.1329 70.2065 85.2052Z" fill="#E1E9F6"/>
<path fill-rule="evenodd" clip-rule="evenodd" d="M70.9643 83.8389C71.2144 84.0777 71.5491 84.2073 71.8947 84.1995C72.2404 84.1916 72.5688 84.0468 72.8078 83.797L75.1406 81.3547C75.3613 81.1016 75.476 80.7732 75.4607 80.4378C75.4455 80.1024 75.3015 79.7858 75.0587 79.5538C74.8159 79.3218 74.4931 79.1924 74.1573 79.1924C73.8215 79.1925 73.4987 79.322 73.2559 79.554L70.9229 81.9965C70.6842 82.2467 70.5546 82.5814 70.5625 82.9271C70.5704 83.2727 70.7152 83.6011 70.9651 83.8401" fill="#AABCDC"/>
<path d="M71.2715 83.5176C71.436 83.6745 71.6562 83.7597 71.8836 83.7544C72.1109 83.749 72.3269 83.6537 72.4839 83.4892L74.8168 81.0467C74.9738 80.8822 75.0591 80.662 75.0539 80.4347C75.0486 80.2073 74.9533 79.9914 74.7888 79.8343C74.6243 79.6772 74.4042 79.5919 74.1769 79.5972C73.9495 79.6024 73.7335 79.6978 73.5765 79.8622L71.2434 82.3048C71.0865 82.4693 71.0013 82.6894 71.0066 82.9166C71.012 83.1439 71.1073 83.3598 71.2717 83.5167" fill="#F9CD55"/>
<path d="M71.2717 83.5173C71.1073 83.3604 71.012 83.1445 71.0066 82.9172C71.0013 82.69 71.0865 82.4699 71.2434 82.3054L72.4008 81.0932L73.6414 82.2787L72.4842 83.4907C72.3272 83.6551 72.1112 83.7505 71.8839 83.7558C71.6565 83.7611 71.4363 83.676 71.2717 83.519" fill="#F44D11"/>
<path d="M74.8186 81.0476L73.6424 82.2794L73.0272 81.6912L74.7948 79.8408C74.9572 79.9983 75.0509 80.2136 75.0554 80.4399C75.0598 80.6661 74.9747 80.8849 74.8186 81.0487" fill="#F9CD55"/>
<path d="M72.4859 83.49C72.3295 83.6535 72.1147 83.7486 71.8885 83.7546C71.6622 83.7605 71.4428 83.6769 71.278 83.5217L73.0273 81.6898L73.6425 82.2792L72.4859 83.49Z" fill="#F44D11"/>
<path fill-rule="evenodd" clip-rule="evenodd" d="M72.5971 81.2816L71.3863 82.5491C71.3621 82.5721 71.3427 82.5998 71.3295 82.6305C71.3162 82.6613 71.3094 82.6943 71.3093 82.7278C71.3093 82.7612 71.316 82.7943 71.3291 82.8251C71.3423 82.8558 71.3615 82.8836 71.3857 82.9067C71.4099 82.9298 71.4385 82.9477 71.4698 82.9594C71.5012 82.9711 71.5346 82.9763 71.568 82.9747C71.6014 82.9731 71.6341 82.9647 71.6642 82.95C71.6942 82.9354 71.721 82.9148 71.7428 82.8895L72.9542 81.622L72.5971 81.2816Z" fill="#FFA484"/>
<path fill-rule="evenodd" clip-rule="evenodd" d="M73.0919 80.7624L72.5978 81.28L72.9549 81.6203L73.4495 81.1027C73.4917 81.0548 73.5138 80.9924 73.511 80.9285C73.5082 80.8647 73.4807 80.8045 73.4345 80.7604C73.3882 80.7164 73.3267 80.692 73.2628 80.6924C73.1989 80.6927 73.1376 80.7178 73.0919 80.7624Z" fill="#FFEBBC"/>
<path fill-rule="evenodd" clip-rule="evenodd" d="M74.9403 83.8386C75.1905 84.0773 75.5251 84.207 75.8708 84.1991C76.2165 84.1912 76.5449 84.0465 76.7839 83.7966L79.1173 81.3543C79.3401 81.1015 79.4565 80.7723 79.4421 80.4356C79.4276 80.0989 79.2834 79.7808 79.0397 79.548C78.796 79.3153 78.4716 79.1859 78.1346 79.1869C77.7976 79.1879 77.474 79.3193 77.2317 79.5536L74.8989 81.9962C74.6602 82.2463 74.5306 82.581 74.5386 82.9267C74.5465 83.2724 74.6913 83.6008 74.9412 83.8397" fill="#AABCDC"/>
<path d="M75.249 83.5185C75.4136 83.6754 75.6338 83.7606 75.8611 83.7553C76.0885 83.7499 76.3045 83.6546 76.4615 83.4901L78.7943 81.0475C78.8727 80.9662 78.9342 80.8703 78.9754 80.7651C79.0166 80.66 79.0366 80.5477 79.0342 80.4348C79.0319 80.3219 79.0073 80.2106 78.9618 80.1072C78.9163 80.0039 78.8509 79.9105 78.7692 79.8325C78.6876 79.7545 78.5913 79.6934 78.486 79.6527C78.3806 79.612 78.2683 79.5926 78.1554 79.5954C78.0425 79.5982 77.9313 79.6234 77.8282 79.6693C77.725 79.7152 77.632 79.7811 77.5543 79.8631L75.221 82.3057C75.1431 82.3871 75.0821 82.483 75.0413 82.588C75.0006 82.693 74.981 82.805 74.9836 82.9175C74.9863 83.0301 75.0111 83.1411 75.0567 83.2441C75.1023 83.347 75.1677 83.44 75.2493 83.5176" fill="#F9CD55"/>
<path d="M75.2484 83.5173C75.1668 83.4397 75.1014 83.3467 75.0558 83.2438C75.0102 83.1408 74.9854 83.0298 74.9827 82.9173C74.9801 82.8047 74.9997 82.6927 75.0404 82.5877C75.0811 82.4827 75.1422 82.3868 75.22 82.3054L76.3775 81.0932L77.6184 82.2779L76.4606 83.4898C76.3035 83.6543 76.0876 83.7496 75.8602 83.755C75.6329 83.7603 75.4127 83.6751 75.2481 83.5182" fill="#F44D11"/>
<path d="M78.7941 81.0482L77.6185 82.28L77.0033 81.6917L78.7694 79.8408C78.932 79.9982 79.0258 80.2136 79.0302 80.4399C79.0347 80.6661 78.9495 80.885 78.7932 81.0487" fill="#F9CD55"/>
<path d="M76.462 83.49C76.3055 83.6535 76.0908 83.7486 75.8645 83.7546C75.6383 83.7605 75.4189 83.6769 75.254 83.5217L77.004 81.6898L77.6192 82.2781L76.462 83.49Z" fill="#F44D11"/>
<path fill-rule="evenodd" clip-rule="evenodd" d="M76.5745 81.2816L75.3632 82.5491C75.3217 82.5971 75.3002 82.6593 75.3033 82.7227C75.3063 82.7861 75.3337 82.8459 75.3797 82.8896C75.4256 82.9334 75.4867 82.9578 75.5501 82.9578C75.6136 82.9577 75.6746 82.9333 75.7205 82.8895L76.9316 81.622L76.5745 81.2816Z" fill="#FFA484"/>
<path fill-rule="evenodd" clip-rule="evenodd" d="M77.0679 80.7624L76.5739 81.28L76.9309 81.6203L77.4256 81.1027C77.4678 81.0548 77.4898 80.9924 77.487 80.9285C77.4842 80.8647 77.4568 80.8045 77.4105 80.7604C77.3643 80.7164 77.3027 80.692 77.2388 80.6924C77.175 80.6927 77.1137 80.7178 77.0679 80.7624Z" fill="#FFEBBC"/>
<path fill-rule="evenodd" clip-rule="evenodd" d="M78.9177 83.8393C79.1679 84.078 79.5025 84.2077 79.8482 84.1998C80.1939 84.192 80.5223 84.0472 80.7613 83.7973L83.0941 81.355C83.3094 81.1013 83.4196 80.7748 83.4021 80.4424C83.3847 80.1101 83.2408 79.7969 83 79.5672C82.7593 79.3374 82.4398 79.2083 82.107 79.2063C81.7742 79.2044 81.4532 79.3297 81.2097 79.5566L78.8769 81.9992C78.6382 82.2493 78.5086 82.584 78.5165 82.9297C78.5244 83.2754 78.6693 83.6037 78.9192 83.8427" fill="#AABCDC"/>
<path d="M79.2241 83.5172C79.3888 83.6742 79.609 83.7594 79.8364 83.7541C80.0638 83.7487 80.2798 83.6534 80.4369 83.4889L82.7703 81.0463C82.9235 80.8811 83.0056 80.6622 82.9988 80.437C82.992 80.2117 82.8968 79.9982 82.7338 79.8426C82.5708 79.687 82.3531 79.6018 82.1278 79.6054C81.9025 79.609 81.6876 79.7011 81.5297 79.8619L79.1963 82.3045C79.0395 82.469 78.9544 82.6891 78.9597 82.9163C78.965 83.1435 79.0603 83.3594 79.2247 83.5164" fill="#F9CD55"/>
<path d="M79.2238 83.5173C79.0594 83.3603 78.9641 83.1445 78.9588 82.9172C78.9535 82.69 79.0386 82.4699 79.1954 82.3054L80.3534 81.0932L81.5937 82.2779L80.436 83.4898C80.2789 83.6543 80.0629 83.7497 79.8355 83.755C79.6081 83.7603 79.3878 83.6751 79.2232 83.5182" fill="#F44D11"/>
<path d="M82.771 81.0476L81.5954 82.2794L80.9794 81.6912L82.7472 79.8408C82.9098 79.9982 83.0036 80.2136 83.008 80.4399C83.0125 80.6661 82.9273 80.885 82.771 81.0487" fill="#F9CD55"/>
<path d="M80.4374 83.49C80.2809 83.6535 80.0661 83.7487 79.8398 83.7546C79.6135 83.7606 79.3941 83.6769 79.2292 83.5217L80.9786 81.6898L81.5946 82.2781L80.4374 83.49Z" fill="#F44D11"/>
<path fill-rule="evenodd" clip-rule="evenodd" d="M80.5504 81.2816L79.3396 82.5491C79.3157 82.5722 79.2967 82.5999 79.2837 82.6306C79.2708 82.6612 79.2642 82.6941 79.2643 82.7274C79.2644 82.7606 79.2712 82.7935 79.2844 82.8241C79.2975 82.8546 79.3167 82.8822 79.3407 82.9051C79.3648 82.9281 79.3932 82.9459 79.4244 82.9576C79.4555 82.9693 79.4887 82.9746 79.5219 82.9731C79.5551 82.9716 79.5877 82.9635 79.6177 82.9491C79.6477 82.9347 79.6744 82.9145 79.6964 82.8895L80.9075 81.622L80.5504 81.2816Z" fill="#FFA484"/>
<path fill-rule="evenodd" clip-rule="evenodd" d="M81.044 80.7624L80.5499 81.28L80.9076 81.6203L81.4016 81.1027C81.4439 81.0548 81.4659 80.9924 81.4631 80.9285C81.4603 80.8647 81.4329 80.8045 81.3866 80.7604C81.3403 80.7164 81.2788 80.692 81.2149 80.6924C81.151 80.6927 81.0898 80.7178 81.044 80.7624Z" fill="#FFEBBC"/>
<path fill-rule="evenodd" clip-rule="evenodd" d="M82.8927 83.8402C83.1428 84.079 83.4775 84.2086 83.8231 84.2008C84.1688 84.1929 84.4972 84.0481 84.7362 83.7983L87.069 81.356C87.1886 81.2325 87.2825 81.0866 87.3454 80.9267C87.4084 80.7668 87.439 80.596 87.4357 80.4241C87.4324 80.2523 87.3951 80.0828 87.326 79.9255C87.2569 79.7681 87.1573 79.626 87.0331 79.5073C86.9088 79.3885 86.7623 79.2956 86.602 79.2337C86.4417 79.1718 86.2707 79.1422 86.0989 79.1467C85.9271 79.1511 85.7579 79.1895 85.601 79.2597C85.444 79.3298 85.3026 79.4302 85.1846 79.5553L82.8513 81.9978C82.6125 82.2479 82.4829 82.5826 82.4908 82.9283C82.4986 83.274 82.6434 83.6024 82.8932 83.8414" fill="#AABCDC"/>
<path d="M83.2012 83.5172C83.3658 83.6742 83.5859 83.7593 83.8133 83.754C84.0406 83.7487 84.2566 83.6533 84.4137 83.4889L86.7473 81.0463C86.9006 80.8811 86.9827 80.6622 86.9759 80.437C86.969 80.2117 86.8738 79.9982 86.7108 79.8426C86.5479 79.687 86.3302 79.6018 86.1048 79.6054C85.8795 79.609 85.6647 79.7011 85.5067 79.8619L83.1734 82.3045C83.0165 82.469 82.9314 82.6891 82.9368 82.9163C82.9421 83.1435 83.0374 83.3594 83.2017 83.5164" fill="#F9CD55"/>
<path d="M83.2008 83.5173C83.0364 83.3603 82.9411 83.1445 82.9358 82.9172C82.9305 82.69 83.0156 82.4699 83.1724 82.3054L84.3307 81.0932L85.5707 82.2779L84.4135 83.4898C84.2565 83.6543 84.0405 83.7496 83.8132 83.755C83.5858 83.7603 83.3656 83.6751 83.201 83.5182" fill="#F44D11"/>
<path d="M86.7471 81.0476L85.5715 82.2794L84.9554 81.6912L86.723 79.8408C86.8857 79.9982 86.9796 80.2135 86.9841 80.4398C86.9886 80.6661 86.9034 80.885 86.7471 81.0487" fill="#F9CD55"/>
<path d="M84.4141 83.49C84.2577 83.6535 84.0429 83.7486 83.8167 83.7546C83.5904 83.7605 83.371 83.6769 83.2062 83.5217L84.9556 81.6898L85.5716 82.2781L84.4141 83.49Z" fill="#F44D11"/>
<path fill-rule="evenodd" clip-rule="evenodd" d="M84.527 81.2816L83.3162 82.5491C83.2747 82.5971 83.2533 82.6593 83.2563 82.7227C83.2594 82.7861 83.2867 82.8459 83.3327 82.8896C83.3787 82.9334 83.4397 82.9578 83.5032 82.9578C83.5666 82.9577 83.6277 82.9333 83.6736 82.8895L84.8838 81.622L84.527 81.2816Z" fill="#FFA484"/>
<path fill-rule="evenodd" clip-rule="evenodd" d="M85.0216 80.7624L84.5278 81.28L84.8852 81.6203L85.3796 81.1027C85.4218 81.0548 85.4438 80.9924 85.441 80.9285C85.4382 80.8647 85.4108 80.8045 85.3645 80.7604C85.3182 80.7164 85.2567 80.692 85.1928 80.6924C85.1289 80.6927 85.0677 80.7178 85.0219 80.7624" fill="#FFEBBC"/>
<path fill-rule="evenodd" clip-rule="evenodd" d="M70.9643 90.9032C71.2144 91.1419 71.5491 91.2716 71.8947 91.2637C72.2404 91.2559 72.5688 91.1111 72.8078 90.8612L75.1406 88.4187C75.2616 88.2955 75.3568 88.1495 75.4208 87.9891C75.4849 87.8288 75.5164 87.6574 75.5136 87.4848C75.5108 87.3121 75.4738 87.1418 75.4046 86.9836C75.3355 86.8254 75.2355 86.6826 75.1107 86.5633C74.9859 86.4441 74.8386 86.3508 74.6774 86.289C74.5162 86.2272 74.3444 86.198 74.1718 86.2031C73.9992 86.2082 73.8294 86.2476 73.6722 86.3189C73.515 86.3902 73.3735 86.4921 73.2559 86.6185L70.9229 89.0608C70.6842 89.311 70.5546 89.6457 70.5625 89.9913C70.5704 90.337 70.7152 90.6654 70.9651 90.9044" fill="#AABCDC"/>
<path d="M71.2715 90.5812C71.436 90.7382 71.6562 90.8234 71.8836 90.8181C72.111 90.8127 72.3269 90.7173 72.4839 90.5528L74.8167 88.1105C74.8965 88.0295 74.9593 87.9334 75.0015 87.8278C75.0438 87.7223 75.0646 87.6094 75.0629 87.4957C75.0611 87.382 75.0367 87.2698 74.9912 87.1657C74.9457 87.0615 74.8799 86.9674 74.7977 86.8889C74.7155 86.8103 74.6185 86.7489 74.5123 86.7082C74.4062 86.6675 74.293 86.6484 74.1794 86.6518C74.0657 86.6552 73.9539 86.6812 73.8504 86.7283C73.7469 86.7753 73.6538 86.8425 73.5765 86.9258L71.2434 89.3704C71.0865 89.5349 71.0013 89.7549 71.0066 89.9822C71.012 90.2095 71.1073 90.4253 71.2717 90.5823" fill="#F9CD55"/>
<path d="M71.2717 90.5807C71.1073 90.4237 71.012 90.2079 71.0066 89.9806C71.0013 89.7534 71.0865 89.5333 71.2434 89.3688L72.4008 88.1569L73.6414 89.3416L72.4842 90.5532C72.3272 90.7177 72.1112 90.8131 71.8839 90.8185C71.6565 90.8238 71.4363 90.7386 71.2717 90.5816" fill="#F44D11"/>
<path d="M74.8177 88.1109L73.6415 89.3415L73.0263 88.753L74.7939 86.9026C74.9563 87.0602 75.05 87.2755 75.0545 87.5018C75.0589 87.7281 74.9738 87.947 74.8177 88.1109Z" fill="#F9CD55"/>
<path d="M72.4859 90.5536C72.3294 90.7172 72.1147 90.8122 71.8884 90.8181C71.6622 90.824 71.4427 90.7403 71.278 90.5851L73.0273 88.7535L73.6425 89.342L72.4859 90.5536Z" fill="#F44D11"/>
<path fill-rule="evenodd" clip-rule="evenodd" d="M72.5981 88.3434L71.3873 89.6112C71.363 89.6342 71.3437 89.6619 71.3305 89.6926C71.3172 89.7233 71.3104 89.7564 71.3103 89.7899C71.3102 89.8233 71.317 89.8564 71.3301 89.8872C71.3432 89.9179 71.3625 89.9457 71.3867 89.9688C71.4109 89.9919 71.4395 90.0098 71.4708 90.0215C71.5022 90.0332 71.5355 90.0384 71.5689 90.0368C71.6023 90.0352 71.6351 90.0268 71.6651 90.0121C71.6952 89.9975 71.722 89.9769 71.7438 89.9516L72.9552 88.6838L72.5981 88.3434Z" fill="#FFA484"/>
<path fill-rule="evenodd" clip-rule="evenodd" d="M73.0919 87.8253L72.5978 88.3432L72.9549 88.6835L73.4495 88.1662C73.49 88.118 73.5107 88.0562 73.5072 87.9933C73.5037 87.9304 73.4763 87.8713 73.4307 87.8279C73.3851 87.7845 73.3247 87.7601 73.2617 87.7597C73.1987 87.7593 73.138 87.783 73.0919 87.8259" fill="#FFEBBC"/>
<path fill-rule="evenodd" clip-rule="evenodd" d="M74.9403 90.9025C75.1905 91.1413 75.5251 91.2709 75.8708 91.2631C76.2165 91.2552 76.5449 91.1104 76.7839 90.8606L79.1173 88.418C79.3387 88.165 79.4538 87.8362 79.4387 87.5004C79.4236 87.1645 79.2795 86.8474 79.0363 86.6153C78.7931 86.3831 78.4697 86.2538 78.1335 86.2542C77.7973 86.2547 77.4742 86.385 77.2317 86.6178L74.8989 89.0601C74.6602 89.3103 74.5306 89.645 74.5386 89.9906C74.5465 90.3363 74.6913 90.6647 74.9412 90.9037" fill="#AABCDC"/>
<path d="M75.249 90.5811C75.4136 90.7381 75.6338 90.8233 75.8612 90.818C76.0885 90.8127 76.3045 90.7173 76.4615 90.5527L78.7943 88.1104C78.8721 88.029 78.9331 87.9331 78.9738 87.8281C79.0145 87.7231 79.0342 87.6111 79.0316 87.4985C79.029 87.386 79.0043 87.275 78.9589 87.172C78.9134 87.0689 78.8481 86.9759 78.7667 86.8981C78.6853 86.8203 78.5893 86.7593 78.4843 86.7186C78.3793 86.6779 78.2674 86.6583 78.1548 86.6608C78.0422 86.6634 77.9312 86.6881 77.8282 86.7336C77.7252 86.779 77.6321 86.8443 77.5543 86.9258L75.221 89.3703C75.1431 89.4517 75.0821 89.5476 75.0413 89.6526C75.0006 89.7576 74.981 89.8696 74.9836 89.9822C74.9863 90.0947 75.0111 90.2057 75.0567 90.3087C75.1023 90.4116 75.1677 90.5046 75.2493 90.5822" fill="#F9CD55"/>
<path d="M75.2484 90.5807C75.1668 90.5031 75.1014 90.4101 75.0558 90.3071C75.0102 90.2042 74.9854 90.0932 74.9827 89.9806C74.9801 89.868 74.9997 89.7561 75.0404 89.6511C75.0811 89.5461 75.1422 89.4501 75.22 89.3688L76.3775 88.1569L77.6184 89.3416L76.4606 90.5532C76.3036 90.7177 76.0876 90.8131 75.8602 90.8185C75.6329 90.8238 75.4127 90.7386 75.2481 90.5816" fill="#F44D11"/>
<path d="M78.7951 88.1102L77.6195 89.3408L77.0043 88.7523L78.7704 86.9017C78.933 87.0592 79.0268 87.2745 79.0312 87.5009C79.0357 87.7272 78.9505 87.9461 78.7942 88.1099" fill="#F9CD55"/>
<path d="M76.462 90.5536C76.3055 90.7172 76.0907 90.8122 75.8645 90.8181C75.6382 90.824 75.4188 90.7403 75.254 90.5851L77.004 88.7535L77.6192 89.342L76.462 90.5536Z" fill="#F44D11"/>
<path fill-rule="evenodd" clip-rule="evenodd" d="M76.5752 88.3434L75.3638 89.6112C75.3396 89.6343 75.3204 89.662 75.3072 89.6928C75.2941 89.7235 75.2873 89.7566 75.2873 89.7901C75.2873 89.8235 75.2941 89.8566 75.3073 89.8873C75.3205 89.918 75.3397 89.9458 75.364 89.9688C75.3882 89.9919 75.4168 90.0098 75.4482 90.0215C75.4795 90.0331 75.5129 90.0383 75.5463 90.0367C75.5797 90.0351 75.6124 90.0267 75.6425 90.0121C75.6725 89.9974 75.6993 89.9769 75.7212 89.9516L76.9322 88.6838L76.5752 88.3434Z" fill="#FFA484"/>
<path fill-rule="evenodd" clip-rule="evenodd" d="M77.0679 87.8253L76.5739 88.3432L76.9309 88.6835L77.4256 88.1662C77.4661 88.118 77.4867 88.0562 77.4832 87.9933C77.4798 87.9304 77.4524 87.8713 77.4068 87.8279C77.3612 87.7845 77.3007 87.7601 77.2378 87.7597C77.1748 87.7593 77.114 87.783 77.0679 87.8259" fill="#FFEBBC"/>
<path fill-rule="evenodd" clip-rule="evenodd" d="M78.9177 90.9035C79.1679 91.1422 79.5025 91.2719 79.8482 91.264C80.1939 91.2561 80.5223 91.1114 80.7613 90.8615L83.0941 88.419C83.3238 88.1675 83.446 87.836 83.4344 87.4956C83.4228 87.1552 83.2784 86.8328 83.0321 86.5975C82.7857 86.3622 82.4571 86.2328 82.1165 86.2368C81.7759 86.2408 81.4504 86.378 81.2097 86.6191L78.8769 89.0614C78.6382 89.3115 78.5086 89.6462 78.5165 89.9919C78.5244 90.3376 78.6693 90.666 78.9192 90.9049" fill="#AABCDC"/>
<path d="M79.224 90.5813C79.3886 90.7383 79.6088 90.8235 79.8362 90.8182C80.0637 90.8129 80.2797 90.7175 80.4367 90.5529L82.7701 88.1106C82.9272 87.9461 83.0125 87.726 83.0073 87.4985C83.002 87.2711 82.9067 87.0551 82.7422 86.898C82.5777 86.7409 82.3575 86.6556 82.1301 86.6608C81.9027 86.6661 81.6866 86.7614 81.5295 86.926L79.1973 89.3705C79.0405 89.535 78.9554 89.7551 78.9607 89.9823C78.966 90.2096 79.0613 90.4254 79.2257 90.5824" fill="#F9CD55"/>
<path d="M79.2238 90.5807C79.0594 90.4237 78.9641 90.2079 78.9588 89.9806C78.9535 89.7534 79.0386 89.5333 79.1954 89.3688L80.3534 88.1569L81.5937 89.3416L80.436 90.5532C80.2789 90.7177 80.0629 90.8132 79.8355 90.8185C79.608 90.8238 79.3878 90.7386 79.2232 90.5816" fill="#F44D11"/>
<path d="M82.771 88.1109L81.5954 89.3415L80.9794 88.753L82.7472 86.9026C82.9098 87.0601 83.0036 87.2755 83.008 87.5018C83.0125 87.7282 82.9273 87.9471 82.771 88.1109Z" fill="#F9CD55"/>
<path d="M80.4374 90.5536C80.2809 90.7172 80.0661 90.8122 79.8398 90.8181C79.6135 90.824 79.394 90.7403 79.2292 90.5851L80.9786 88.7535L81.5946 89.342L80.4374 90.5536Z" fill="#F44D11"/>
<path fill-rule="evenodd" clip-rule="evenodd" d="M80.5504 88.3434L79.3396 89.6112C79.3157 89.6343 79.2967 89.662 79.2837 89.6926C79.2708 89.7233 79.2642 89.7562 79.2643 89.7895C79.2644 89.8227 79.2712 89.8556 79.2844 89.8861C79.2975 89.9167 79.3167 89.9443 79.3407 89.9672C79.3648 89.9902 79.3932 90.008 79.4244 90.0197C79.4555 90.0314 79.4887 90.0366 79.5219 90.0352C79.5551 90.0337 79.5877 90.0256 79.6177 90.0112C79.6477 89.9968 79.6744 89.9765 79.6964 89.9516L80.9075 88.6838L80.5504 88.3434Z" fill="#FFA484"/>
<path fill-rule="evenodd" clip-rule="evenodd" d="M81.044 87.8253L80.5499 88.3432L80.9076 88.6835L81.4016 88.1662C81.4422 88.118 81.4628 88.0562 81.4593 87.9933C81.4558 87.9304 81.4285 87.8713 81.3829 87.8279C81.3373 87.7845 81.2768 87.7601 81.2138 87.7597C81.1509 87.7593 81.0901 87.783 81.044 87.8259" fill="#FFEBBC"/>
<path fill-rule="evenodd" clip-rule="evenodd" d="M82.8927 90.9022C83.1428 91.1409 83.4775 91.2706 83.8231 91.2627C84.1688 91.2548 84.4972 91.1101 84.7362 90.8602L87.069 88.4176C87.1872 88.2939 87.2799 88.1481 87.3418 87.9886C87.4036 87.829 87.4334 87.6589 87.4295 87.4878C87.4256 87.3167 87.3881 87.1481 87.319 86.9915C87.2499 86.835 87.1507 86.6936 87.0269 86.5754C86.9032 86.4572 86.7574 86.3645 86.5978 86.3026C86.4383 86.2408 86.2681 86.211 86.0971 86.2149C85.926 86.2188 85.7574 86.2564 85.6008 86.3254C85.4443 86.3945 85.3028 86.4938 85.1846 86.6175L82.8513 89.0598C82.6125 89.3099 82.4829 89.6446 82.4908 89.9902C82.4986 90.3359 82.6434 90.6643 82.8932 90.9033" fill="#AABCDC"/>
<path d="M83.2012 90.5813C83.3657 90.7383 83.5859 90.8235 83.8133 90.8182C84.0407 90.8129 84.2566 90.7175 84.4137 90.5529L86.7473 88.1106C86.9044 87.9461 86.9897 87.726 86.9845 87.4985C86.9793 87.2711 86.8839 87.0551 86.7194 86.898C86.5549 86.7409 86.3347 86.6556 86.1073 86.6608C85.8799 86.6661 85.6638 86.7614 85.5067 86.926L83.1734 89.3705C83.0165 89.535 82.9314 89.7551 82.9368 89.9823C82.9421 90.2096 83.0374 90.4254 83.2017 90.5824" fill="#F9CD55"/>
<path d="M83.2008 90.5807C83.0364 90.4237 82.9411 90.2079 82.9358 89.9806C82.9305 89.7534 83.0156 89.5333 83.1724 89.3688L84.3307 88.1569L85.5707 89.3416L84.4135 90.5532C84.2565 90.7177 84.0405 90.8131 83.8132 90.8185C83.5858 90.8238 83.3656 90.7386 83.201 90.5816" fill="#F44D11"/>
<path d="M86.7471 88.1109L85.5715 89.3415L84.9554 88.753L86.723 86.9026C86.8856 87.0601 86.9795 87.2754 86.984 87.5018C86.9885 87.7281 86.9033 87.947 86.7471 88.1109Z" fill="#F9CD55"/>
<path d="M84.4141 90.5536C84.2576 90.7172 84.0429 90.8122 83.8166 90.8181C83.5904 90.824 83.371 90.7403 83.2062 90.5851L84.9556 88.7535L85.5716 89.342L84.4141 90.5536Z" fill="#F44D11"/>
<path fill-rule="evenodd" clip-rule="evenodd" d="M84.5277 88.3434L83.3169 89.6112C83.2927 89.6343 83.2734 89.662 83.2603 89.6928C83.2471 89.7235 83.2403 89.7566 83.2404 89.7901C83.2404 89.8235 83.2472 89.8566 83.2603 89.8873C83.2735 89.918 83.2928 89.9458 83.317 89.9688C83.3412 89.9919 83.3699 90.0098 83.4012 90.0215C83.4326 90.0331 83.4659 90.0383 83.4993 90.0367C83.5327 90.0351 83.5655 90.0267 83.5955 90.0121C83.6256 89.9974 83.6524 89.9769 83.6742 89.9516L84.8845 88.6838L84.5277 88.3434Z" fill="#FFA484"/>
<path fill-rule="evenodd" clip-rule="evenodd" d="M85.0216 87.8257L84.5278 88.3436L84.8852 88.6839L85.3787 88.1671C85.4192 88.1189 85.4399 88.0571 85.4364 87.9942C85.4329 87.9314 85.4055 87.8722 85.3599 87.8288C85.3143 87.7854 85.2539 87.761 85.1909 87.7606C85.1279 87.7603 85.0672 87.7839 85.0211 87.8268" fill="#FFEBBC"/>
<path fill-rule="evenodd" clip-rule="evenodd" d="M68.968 82.986V87.4227C68.968 87.4656 68.9851 87.5068 69.0154 87.5372C69.0458 87.5676 69.087 87.5846 69.13 87.5846C69.1729 87.5846 69.2141 87.5676 69.2445 87.5372C69.2749 87.5068 69.2919 87.4656 69.2919 87.4227V82.986C69.2919 82.943 69.2749 82.9018 69.2445 82.8714C69.2141 82.8411 69.1729 82.824 69.13 82.824C69.087 82.824 69.0458 82.8411 69.0154 82.8714C68.9851 82.9018 68.968 82.943 68.968 82.986Z" fill="#E1E9F6"/>
<path fill-rule="evenodd" clip-rule="evenodd" d="M89.0313 82.9862V87.423C89.0313 87.466 89.0484 87.5073 89.0788 87.5377C89.1093 87.5681 89.1505 87.5852 89.1935 87.5852C89.2366 87.5852 89.2778 87.5681 89.3083 87.5377C89.3387 87.5073 89.3558 87.466 89.3558 87.423V82.9862C89.3558 82.9432 89.3387 82.9019 89.3083 82.8715C89.2778 82.8411 89.2366 82.824 89.1935 82.824C89.1505 82.824 89.1093 82.8411 89.0788 82.8715C89.0484 82.9019 89.0313 82.9432 89.0313 82.9862Z" fill="#E1E9F6"/>
<path d="M52.0841 52.5338H41.9621V53.6748H52.0841V52.5338Z" fill="#B9CAE8"/>
<path fill-rule="evenodd" clip-rule="evenodd" d="M41.9421 52.3546H40.7716V53.8535H41.9421C42.0165 53.8533 42.0879 53.8237 42.1405 53.7711C42.1932 53.7185 42.2229 53.6472 42.2232 53.5727V52.6354C42.223 52.5609 42.1933 52.4896 42.1406 52.437C42.0879 52.3844 42.0166 52.3547 41.9421 52.3546Z" fill="#B9CAE8"/>
<path fill-rule="evenodd" clip-rule="evenodd" d="M46.1714 61.0964H54.4007C56.5387 61.0964 58.2889 62.9255 58.2889 65.161V87.9604C58.2889 90.1965 56.5387 92.0247 54.4007 92.0247H46.1714C44.0326 92.0247 42.2826 90.1965 42.2826 87.9604V65.161C42.2826 62.9255 44.0326 61.0964 46.1714 61.0964Z" fill="#4CB5FF"/>
<path fill-rule="evenodd" clip-rule="evenodd" d="M46.1714 61.0964H51.2896C53.4284 61.0964 55.1784 62.9255 55.1784 65.161V87.9604C55.1784 90.1965 53.4284 92.0247 51.2896 92.0247H46.1714C44.0326 92.0247 42.2826 90.1965 42.2826 87.9604V65.161C42.2826 62.9255 44.0326 61.0964 46.1714 61.0964Z" fill="#83C9FF"/>
<path d="M53.7207 55.2648H46.8516V56.6041H53.7207V55.2648Z" fill="#B9CAE8"/>
<path fill-rule="evenodd" clip-rule="evenodd" d="M45.7892 61.0963H54.7823C55.1362 61.0952 55.4754 60.9541 55.7256 60.7038C55.9759 60.4535 56.1169 60.1144 56.1179 59.7604V57.939C56.1169 57.585 55.9759 57.2459 55.7256 56.9956C55.4754 56.7453 55.1362 56.6042 54.7823 56.6031H45.7892C45.4351 56.6041 45.0959 56.7451 44.8455 56.9954C44.5952 57.2457 44.4541 57.585 44.453 57.939V59.7604C44.4541 60.1144 44.5952 60.4537 44.8455 60.704C45.0959 60.9543 45.4351 61.0953 45.7892 61.0963Z" fill="#B9CAE8"/>
<path fill-rule="evenodd" clip-rule="evenodd" d="M46.1429 61.0963H53.1201C53.474 61.0953 53.8132 60.9542 54.0635 60.7039C54.3138 60.4536 54.4547 60.1144 54.4556 59.7604V57.939C54.4547 57.585 54.3138 57.2458 54.0635 56.9955C53.8132 56.7452 53.474 56.6041 53.1201 56.6031H46.1429C45.7889 56.604 45.4496 56.745 45.1992 56.9954C44.9488 57.2457 44.8077 57.5849 44.8068 57.939V59.7604C44.8077 60.1145 44.9488 60.4537 45.1992 60.704C45.4496 60.9544 45.7889 61.0954 46.1429 61.0963Z" fill="#E3ECFF"/>
<path d="M58.2895 69.6295H42.6252V83.8867H58.2895V69.6295Z" fill="#E8EFFF"/>
<path d="M58.2902 69.6295H55.1797V83.8867H58.2902V69.6295Z" fill="#C8D9FA"/>
<path fill-rule="evenodd" clip-rule="evenodd" d="M44.8527 66.0441C45.0703 66.0445 45.2789 66.1311 45.4328 66.2849C45.5866 66.4388 45.6733 66.6473 45.6738 66.8649V69.63H44.0319V66.8649C44.0323 66.6474 44.1189 66.4389 44.2728 66.285C44.4266 66.1312 44.6351 66.0446 44.8527 66.0441Z" fill="#BCE1FF"/>
<path fill-rule="evenodd" clip-rule="evenodd" d="M45.6728 69.6295V78.6161C45.6688 78.8312 45.5806 79.0361 45.4271 79.1868C45.2736 79.3375 45.067 79.422 44.8519 79.422C44.6368 79.422 44.4302 79.3375 44.2767 79.1868C44.1232 79.0361 44.0349 78.8312 44.0309 78.6161V69.6295H45.6728Z" fill="white"/>
<path fill-rule="evenodd" clip-rule="evenodd" d="M47.0285 55.6545H53.5419C54.1339 55.6545 54.7737 55.1491 54.6197 54.5767L53.9501 52.1157C53.7944 51.5445 53.4654 51.0394 52.8723 51.0394H47.6423C47.0504 51.0394 46.7092 51.5414 46.5645 52.1157L45.9502 54.5767C45.8084 55.1513 46.4349 55.6545 47.028 55.6545" fill="#B9CAE8"/>
<path fill-rule="evenodd" clip-rule="evenodd" d="M47.3724 55.6545H51.9808C52.5727 55.6545 53.2128 55.1491 53.0585 54.5767L52.3889 52.1157C52.2335 51.5445 51.9045 51.0394 51.3111 51.0394H47.9851C47.3931 51.0394 47.0519 51.5414 46.9073 52.1157L46.2947 54.5779C46.1529 55.1525 46.7794 55.6556 47.3724 55.6556" fill="#E3ECFF"/>
<path d="M51.4372 52.7997H42.2225V53.1415H51.4372V52.7997Z" fill="#E3ECFF"/>
<path fill-rule="evenodd" clip-rule="evenodd" d="M62.4447 69.6947H73.4464C74.873 69.6947 76.0399 71.6356 76.0399 73.0622V89.5025C76.0399 90.9291 74.873 92.0959 73.4464 92.0959H62.4447C61.0183 92.0959 59.8512 90.9291 59.8512 89.5025V73.0616C59.8512 71.635 61.0183 69.6942 62.4447 69.6942" fill="#5074B0"/>
<path fill-rule="evenodd" clip-rule="evenodd" d="M62.4447 69.6947H70.5603C71.4942 70.5144 72.4013 71.8951 72.4529 73.1666C72.4742 73.6794 72.4529 89.5754 72.4529 89.5754C72.4529 89.5754 72.3068 90.8616 71.2086 91.8341C71.1003 91.9297 71.0002 92.0168 70.9069 92.0959H62.4447C61.0183 92.0959 59.8512 90.9291 59.8512 89.5025V73.0616C59.8512 71.635 61.0183 69.6942 62.4447 69.6942" fill="#6C8AC5"/>
<path fill-rule="evenodd" clip-rule="evenodd" d="M62.4446 69.6942H70.5602C70.649 69.7725 70.7383 69.8556 70.826 69.9432H61.5617C61.8377 69.7858 62.1349 69.6942 62.4446 69.6942Z" fill="#5074B0"/>
<path fill-rule="evenodd" clip-rule="evenodd" d="M61.7863 69.6939H74.1058C74.1832 69.6937 74.2574 69.6629 74.3122 69.6082C74.3671 69.5536 74.3981 69.4795 74.3985 69.4021V68.7735C74.3984 68.6959 74.3675 68.6215 74.3126 68.5666C74.2578 68.5117 74.1834 68.4808 74.1058 68.4806H61.7863C61.7087 68.4808 61.6343 68.5117 61.5794 68.5666C61.5245 68.6215 61.4936 68.6959 61.4933 68.7735V69.4021C61.4935 69.4797 61.5244 69.5541 61.5793 69.6091C61.6342 69.664 61.7087 69.6949 61.7863 69.695" fill="#E3ECFF"/>
<path fill-rule="evenodd" clip-rule="evenodd" d="M62.0466 68.4812H73.8431V65.4068C73.8425 65.1851 73.7542 64.9727 73.5975 64.8159C73.4408 64.6591 73.2284 64.5707 73.0067 64.5701H62.7367C62.5536 64.5707 62.3781 64.6438 62.2488 64.7734C62.1195 64.9031 62.0468 65.0787 62.0466 65.2618V68.4812Z" fill="#B9CAE8"/>
<path fill-rule="evenodd" clip-rule="evenodd" d="M71.48 64.5701H62.7367C62.3575 64.5701 62.0466 64.9581 62.0466 65.4326V67.9676H62.7823V65.6135C62.7823 65.4207 62.9086 65.263 63.0631 65.263C63.2177 65.263 63.3434 65.4207 63.3434 65.6135V67.9676H63.975V65.6135C63.975 65.4207 64.1009 65.263 64.2552 65.263C64.4095 65.263 64.536 65.4207 64.536 65.6135V67.9676H65.1673V65.6135C65.1673 65.4207 65.2936 65.263 65.4478 65.263C65.6021 65.263 65.7283 65.4207 65.7283 65.6135V67.9676H66.3597V65.6135C66.3597 65.4207 66.4859 65.263 66.6405 65.263C66.7951 65.263 66.921 65.4207 66.921 65.6135V67.9676H67.5523V65.6135C67.5523 65.4207 67.6785 65.263 67.8328 65.263C67.9871 65.263 68.1133 65.4207 68.1133 65.6135V67.9676H68.7447V65.6135C68.7447 65.4207 68.8712 65.263 69.0252 65.263C69.1792 65.263 69.306 65.4207 69.306 65.6135V67.9676H69.9373V65.6135C69.9373 65.4207 70.0633 65.263 70.2178 65.263C70.3724 65.263 70.498 65.4207 70.498 65.6135V67.9676H71.48V64.5701Z" fill="#E3ECFF"/>
<path d="M76.0402 74.7241H59.8512V88.9889H76.0402V74.7241Z" fill="#BA3F0D"/>
<path fill-rule="evenodd" clip-rule="evenodd" d="M59.7995 74.7241H72.461C72.4667 78.2555 72.4571 86.6958 72.4539 88.9889H59.7995V74.7241Z" fill="#6632EC"/>
<path fill-rule="evenodd" clip-rule="evenodd" d="M63.2391 71.7436C63.5547 71.7448 63.857 71.8707 64.0801 72.0938C64.3033 72.317 64.4292 72.6193 64.4304 72.9348V82.7658C64.4304 83.082 64.3047 83.3853 64.0811 83.6089C63.8575 83.8325 63.5542 83.9582 63.238 83.9582C62.9218 83.9582 62.6185 83.8325 62.3949 83.6089C62.1713 83.3853 62.0457 83.082 62.0457 82.7658V72.9354C62.0468 72.6198 62.1727 72.3175 62.3959 72.0944C62.619 71.8713 62.9213 71.7454 63.2369 71.7442" fill="#94ADD9"/>
<path fill-rule="evenodd" clip-rule="evenodd" d="M64.4313 74.7241V82.7665C64.4313 83.0827 64.3057 83.386 64.0821 83.6096C63.8585 83.8332 63.5552 83.9588 63.239 83.9588C62.9228 83.9588 62.6195 83.8332 62.3959 83.6096C62.1723 83.386 62.0466 83.0827 62.0466 82.7665V74.7241H64.4313Z" fill="#FF8B61"/>
<path d="M72.4562 85.5772H59.7995V87.6284H72.4562V85.5772Z" fill="#6C8AC5"/>
<path d="M76.0402 85.5772H72.4555V87.6627H76.0402V85.5772Z" fill="#5074B0"/>
<path fill-rule="evenodd" clip-rule="evenodd" d="M30.9353 69.4309H39.7325V90.3845C39.7313 90.7691 39.578 91.1377 39.3061 91.4097C39.0341 91.6817 38.6655 91.835 38.2809 91.8361H32.5426C32.1167 91.8349 31.7086 91.6652 31.4075 91.3641C31.1063 91.063 30.9366 90.6549 30.9353 90.2291V69.4309Z" fill="#FF671B"/>
<path fill-rule="evenodd" clip-rule="evenodd" d="M30.9353 69.4309H38.8768V89.8382C38.8768 90.9373 38.2244 91.8361 37.4252 91.8361H32.5426C31.6588 91.8361 30.9353 90.8408 30.9353 89.6238V69.4309Z" fill="#FF8045"/>
<path d="M39.7322 68.9821H30.9353V69.7204H39.7322V68.9821Z" fill="#FF671B"/>
<path fill-rule="evenodd" clip-rule="evenodd" d="M30.5951 68.9823H40.0732C40.1317 68.984 40.1884 68.9624 40.231 68.9223C40.2735 68.8821 40.2984 68.8267 40.3001 68.7682V68.3087C40.2984 68.2503 40.2735 68.1948 40.231 68.1547C40.1884 68.1145 40.1317 68.0929 40.0732 68.0946H30.5951C30.5366 68.0929 30.4798 68.1145 30.4373 68.1547C30.3947 68.1948 30.3699 68.2503 30.3682 68.3087V68.7682C30.3699 68.8267 30.3947 68.8821 30.4373 68.9223C30.4798 68.9624 30.5366 68.984 30.5951 68.9823Z" fill="#B9CAE8"/>
<path fill-rule="evenodd" clip-rule="evenodd" d="M30.8226 68.095H40.05V65.2871C40.05 64.8399 39.7488 64.474 39.381 64.474H31.376C31.0725 64.474 30.824 64.6005 30.824 65.1451L30.8226 68.095Z" fill="#E3ECFF"/>
<path d="M39.7325 76.2258H30.9353V85.0746H39.7325V76.2258Z" fill="#C8D9F5"/>
<path d="M38.8762 76.2258H31.1911V85.0746H38.8762V76.2258Z" fill="#DFE8F7"/>
<path fill-rule="evenodd" clip-rule="evenodd" d="M33.3648 84.8999V87.0109C33.3648 87.4877 33.0704 87.8777 32.7102 87.8777C32.35 87.8777 32.0556 87.4877 32.0556 87.0109V73.9949C32.0556 73.5184 32.3503 73.1281 32.7102 73.1281C33.0701 73.1281 33.3648 73.5184 33.3648 73.9949V84.8999Z" fill="#FB9E72"/>
<path fill-rule="evenodd" clip-rule="evenodd" d="M32.3403 65.5098C32.3812 65.5088 32.4208 65.524 32.4506 65.5521C32.4803 65.5802 32.4978 65.6189 32.4991 65.6599V67.2703C32.4967 67.3106 32.479 67.3485 32.4495 67.3762C32.4201 67.4039 32.3812 67.4193 32.3408 67.4193C32.3004 67.4193 32.2615 67.4039 32.2321 67.3762C32.2027 67.3485 32.185 67.3106 32.1826 67.2703V65.6599C32.1837 65.6189 32.201 65.5801 32.2306 65.5518C32.2603 65.5235 32.2999 65.5081 32.3408 65.509M33.089 65.509C33.1301 65.508 33.1699 65.5233 33.1996 65.5516C33.2294 65.5799 33.2468 65.6188 33.2479 65.6599V67.2703C33.2454 67.3106 33.2277 67.3485 33.1983 67.3762C33.1689 67.4039 33.13 67.4193 33.0896 67.4193C33.0492 67.4193 33.0103 67.4039 32.9809 67.3762C32.9515 67.3485 32.9338 67.3106 32.9313 67.2703V65.6599C32.9327 65.6191 32.95 65.5806 32.9795 65.5525C33.009 65.5245 33.0483 65.5091 33.089 65.5098V65.509ZM33.0885 65.5098C33.1294 65.509 33.1691 65.5244 33.1987 65.5526C33.2283 65.5809 33.2456 65.6198 33.2467 65.6607V67.2711C33.2443 67.3115 33.2266 67.3493 33.1972 67.377C33.1678 67.4048 33.1289 67.4202 33.0885 67.4202C33.0481 67.4202 33.0092 67.4048 32.9798 67.377C32.9503 67.3493 32.9326 67.3115 32.9302 67.2711V65.6599C32.9103 65.5396 32.939 65.4163 33.01 65.3172C33.081 65.2181 33.1884 65.1512 33.3087 65.1313C33.429 65.1114 33.5522 65.1401 33.6514 65.2111C33.7505 65.2821 33.8173 65.3895 33.8372 65.5098H33.0885ZM33.8367 65.5098C33.8776 65.509 33.9173 65.5244 33.9469 65.5526C33.9765 65.5809 33.9938 65.6198 33.9949 65.6607V67.2711C33.9938 67.3121 33.9766 67.351 33.9469 67.3793C33.9173 67.4076 33.8777 67.4231 33.8367 67.4223C33.7957 67.4231 33.7561 67.4076 33.7265 67.3793C33.6969 67.3509 33.6797 67.3121 33.6787 67.2711V65.6599C33.6588 65.5396 33.6875 65.4164 33.7584 65.3173C33.8294 65.2182 33.9368 65.1514 34.057 65.1315C34.1773 65.1116 34.3005 65.1402 34.3996 65.2112C34.4987 65.2822 34.5655 65.3896 34.5854 65.5098H33.8367ZM34.5849 65.5098C34.6258 65.509 34.6655 65.5244 34.6951 65.5526C34.7247 65.5809 34.742 65.6198 34.7431 65.6607V67.2711C34.7407 67.3115 34.723 67.3493 34.6936 67.377C34.6642 67.4048 34.6253 67.4202 34.5849 67.4202C34.5445 67.4202 34.5056 67.4048 34.4762 67.377C34.4467 67.3493 34.429 67.3115 34.4266 67.2711V65.6599C34.4067 65.5396 34.4354 65.4163 34.5064 65.3172C34.5774 65.2181 34.6848 65.1512 34.8051 65.1313C34.9254 65.1114 35.0486 65.1401 35.1478 65.2111C35.2469 65.2821 35.3137 65.3895 35.3336 65.5098H34.5849ZM35.3331 65.5098C35.353 65.3895 35.4198 65.2821 35.5189 65.2111C35.6181 65.1401 35.7413 65.1114 35.8616 65.1313C35.9819 65.1512 36.0893 65.2181 36.1603 65.3172C36.2313 65.4163 36.26 65.5396 36.2401 65.6599V67.2703C36.2384 67.311 36.221 67.3496 36.1915 67.3778C36.162 67.4061 36.1228 67.4218 36.082 67.4218C36.0412 67.4218 36.0019 67.4061 35.9725 67.3778C35.943 67.3496 35.9256 67.311 35.9239 67.2703V65.6599C35.9251 65.6191 35.9424 65.5804 35.972 65.5524C36.0016 65.5243 36.041 65.509 36.0818 65.5098H35.3331ZM36.0813 65.5098C36.1222 65.509 36.1618 65.5244 36.1915 65.5526C36.2211 65.5809 36.2384 65.6198 36.2395 65.6607V67.2711C36.2384 67.3121 36.2212 67.351 36.1915 67.3793C36.1619 67.4076 36.1223 67.4231 36.0813 67.4223C36.0403 67.4231 36.0007 67.4076 35.9711 67.3793C35.9415 67.3509 35.9243 67.3121 35.9233 67.2711V65.6599C35.9034 65.5396 35.9321 65.4164 36.003 65.3173C36.074 65.2182 36.1814 65.1514 36.3016 65.1315C36.4219 65.1116 36.5451 65.1402 36.6442 65.2112C36.7433 65.2822 36.8101 65.3896 36.83 65.5098H36.0813ZM36.8295 65.5098C36.8704 65.509 36.91 65.5244 36.9397 65.5526C36.9693 65.5809 36.9866 65.6198 36.9877 65.6607V67.2711C36.9853 67.3115 36.9676 67.3493 36.9382 67.377C36.9088 67.4048 36.8699 67.4202 36.8295 67.4202C36.7891 67.4202 36.7502 67.4048 36.7208 67.377C36.6913 67.3493 36.6736 67.3115 36.6712 67.2711V65.6599C36.6513 65.5396 36.68 65.4163 36.751 65.3172C36.822 65.2181 36.9294 65.1512 37.0497 65.1313C37.17 65.1114 37.2932 65.1401 37.3924 65.2111C37.4915 65.2821 37.5583 65.3895 37.5782 65.5098H36.8295ZM37.5777 65.5098C37.6186 65.509 37.6582 65.5244 37.6879 65.5526C37.7175 65.5809 37.7348 65.6198 37.7359 65.6607V67.2711C37.7342 67.3119 37.7168 67.3504 37.6873 67.3787C37.6579 67.4069 37.6186 67.4227 37.5778 67.4227C37.537 67.4227 37.4978 67.4069 37.4683 67.3787C37.4388 67.3504 37.4214 67.3119 37.4197 67.2711V65.6599C37.3998 65.5396 37.4285 65.4164 37.4994 65.3173C37.5704 65.2182 37.6778 65.1514 37.798 65.1315C37.9183 65.1116 38.0415 65.1402 38.1406 65.2112C38.2397 65.2822 38.3065 65.3896 38.3264 65.5098H37.5777ZM38.3259 65.5098C38.3357 65.4503 38.3572 65.3933 38.3891 65.3421C38.421 65.2909 38.4626 65.2464 38.5117 65.2113C38.5607 65.1762 38.6162 65.1511 38.675 65.1374C38.7337 65.1237 38.7946 65.1217 38.8541 65.1316C38.9136 65.1415 38.9706 65.1629 39.0218 65.1948C39.0731 65.2267 39.1175 65.2683 39.1526 65.3174C39.1877 65.3664 39.2129 65.4219 39.2265 65.4807C39.2402 65.5395 39.2422 65.6003 39.2323 65.6599V67.2703C39.2306 67.311 39.2132 67.3496 39.1837 67.3778C39.1543 67.4061 39.115 67.4218 39.0742 67.4218C39.0334 67.4218 38.9942 67.4061 38.9647 67.3778C38.9352 67.3496 38.9178 67.311 38.9161 67.2703V65.6599C38.9173 65.619 38.9347 65.5803 38.9644 65.5521C38.9941 65.524 39.0337 65.5088 39.0746 65.5098H38.3259ZM30.8439 65.5098C30.8848 65.509 30.9244 65.5244 30.954 65.5527C30.9836 65.5809 31.0008 65.6198 31.0018 65.6607V67.2711C31.0001 67.3119 30.9827 67.3504 30.9532 67.3787C30.9238 67.4069 30.8845 67.4227 30.8437 67.4227C30.8029 67.4227 30.7637 67.4069 30.7342 67.3787C30.7047 67.3504 30.6873 67.3119 30.6856 67.2711V65.6599C30.6657 65.5396 30.6944 65.4163 30.7654 65.3172C30.8364 65.2181 30.9438 65.1512 31.0641 65.1313C31.1844 65.1114 31.3076 65.1401 31.4068 65.2111C31.5059 65.2821 31.5727 65.3895 31.5926 65.5098H30.8439Z" fill="#B9CAE8"/>
<path d="M33.3648 76.2258H32.0556V85.0746H33.3648V76.2258Z" fill="white"/>
<path d="M40.05 67.7814H30.6176V68.0945H40.05V67.7814Z" fill="#B9CAE8"/>
<path fill-rule="evenodd" clip-rule="evenodd" d="M19.6613 83.4313C19.6483 83.4291 19.6355 83.4263 19.6228 83.4228H19.6188L19.5936 83.4154V83.4125H19.5868L19.5643 83.4043H19.5601C19.5276 83.3912 19.4964 83.3753 19.4668 83.3567H19.4645C19.4552 83.3504 19.4458 83.3445 19.4362 83.3377C19.4162 83.3228 19.3973 83.3067 19.3794 83.2895L19.3607 83.2705C19.3471 83.2559 19.3342 83.2406 19.3221 83.2248V83.2214H19.3196C19.3102 83.2089 19.3011 83.1956 19.2929 83.1822C19.2895 83.1771 19.2864 83.1718 19.2833 83.1661V83.1573H19.2813C19.262 83.1236 19.2463 83.0879 19.2345 83.0509C19.2308 83.0399 19.2277 83.0285 19.2249 83.0175V83.0118C19.2217 82.9979 19.2189 82.9834 19.2166 82.9695V82.9531H19.2093C19.2062 82.9298 19.2046 82.9063 19.2047 82.8827V80.7896C19.2047 80.7662 19.2061 80.7428 19.209 80.7195H19.2115V80.7028C19.2158 80.6754 19.2222 80.6484 19.2305 80.622C19.2334 80.6126 19.2368 80.6035 19.2402 80.5936C19.2504 80.5667 19.2626 80.5407 19.2768 80.5156H19.2793V80.5116C19.2821 80.5063 19.2852 80.5012 19.2887 80.4963C19.2949 80.4864 19.3011 80.477 19.3077 80.468C19.3196 80.4511 19.3325 80.4349 19.3462 80.4195L19.355 80.4101C19.361 80.4039 19.3669 80.3976 19.3732 80.3917L19.3825 80.3832C19.3975 80.3694 19.4132 80.3565 19.4296 80.3446H19.4362V80.3432C19.4607 80.3252 19.4867 80.3094 19.5139 80.2958C19.5462 80.2795 19.5801 80.2666 19.6151 80.2572H19.6211V80.2555C19.6327 80.2521 19.6446 80.2499 19.6568 80.2473H19.6602C19.6875 80.2422 19.715 80.239 19.7427 80.2379H31.1997C31.2428 80.2397 31.2855 80.2462 31.3271 80.2575L31.3554 80.266H31.3583C31.3806 80.2737 31.4025 80.2827 31.4238 80.293V80.2952H31.428C31.4332 80.2978 31.4383 80.3003 31.4431 80.3032V80.3052H31.4465C31.4522 80.308 31.4573 80.3111 31.4626 80.3142C31.4863 80.3282 31.5089 80.3439 31.5301 80.3613V80.363H31.5321L31.5398 80.3695V80.3727H31.5435C31.5669 80.3929 31.5886 80.4151 31.6081 80.439V80.441H31.6098C31.6272 80.462 31.6429 80.4843 31.6569 80.5077V80.5094C31.6601 80.5145 31.6629 80.5196 31.6657 80.5247V80.5289H31.668C31.6786 80.5473 31.6881 80.5662 31.6964 80.5857C31.6998 80.5936 31.7029 80.6021 31.7057 80.6101V80.6149H31.7074C31.7103 80.6234 31.7131 80.6325 31.7154 80.6413V80.6441C31.7254 80.6799 31.7316 80.7167 31.7341 80.7539V80.7712C31.7341 80.778 31.7341 80.7851 31.7341 80.7921V82.8853C31.7341 82.8924 31.7341 82.8998 31.7341 82.9068V82.9236C31.7315 82.9609 31.7252 82.9978 31.7154 83.0339V83.0362C31.7128 83.045 31.71 83.0543 31.7071 83.0631H31.7057V83.0671C31.7029 83.0756 31.6995 83.0841 31.6964 83.0923C31.691 83.1054 31.6853 83.1184 31.6791 83.1309H31.6768V83.1352C31.6742 83.1406 31.6717 83.1454 31.6688 83.1502H31.6669V83.1539C31.664 83.1593 31.6609 83.1647 31.6578 83.1698C31.6436 83.1934 31.6277 83.216 31.6101 83.2373C31.6079 83.2401 31.6056 83.2429 31.603 83.2455H31.6005V83.2489C31.5828 83.269 31.5638 83.2879 31.5438 83.3056H31.5406V83.3082L31.5321 83.3153C31.5056 83.3367 31.4771 83.3557 31.447 83.372H31.4445L31.4283 83.3808H31.4252V83.3825L31.4076 83.3904H31.4051C31.3895 83.3975 31.3736 83.4035 31.3574 83.4091C31.3334 83.417 31.3088 83.4232 31.284 83.4279H31.2794C31.247 83.4339 31.214 83.437 31.181 83.4369H19.7635C19.7292 83.437 19.695 83.4336 19.6613 83.427" fill="#6C8AC5"/>
<path fill-rule="evenodd" clip-rule="evenodd" d="M19.9672 84.0764H30.9763C31.1782 84.0771 31.3715 84.1576 31.5142 84.3004C31.6569 84.4432 31.7373 84.6367 31.7378 84.8385V91.0743C31.7373 91.2761 31.6569 91.4695 31.5142 91.6123C31.3715 91.755 31.1781 91.8355 30.9763 91.8361H19.9672C19.7653 91.8355 19.5719 91.755 19.4292 91.6123C19.2865 91.4695 19.2062 91.2761 19.2056 91.0743V84.8385C19.2062 84.6367 19.2865 84.4432 19.4292 84.3004C19.5719 84.1576 19.7653 84.0771 19.9672 84.0764Z" fill="#4CB5FF"/>
<path d="M30.9677 83.4179H19.9759V84.1562H30.9677V83.4179Z" fill="#3A9DE5"/>
<path fill-rule="evenodd" clip-rule="evenodd" d="M19.9672 84.0764H29.8166C30.0184 84.0771 30.2118 84.1576 30.3545 84.3004C30.4972 84.4432 30.5776 84.6367 30.5781 84.8385V91.0743C30.5776 91.2761 30.4972 91.4695 30.3545 91.6123C30.2118 91.755 30.0184 91.8355 29.8166 91.8361H19.9672C19.7653 91.8355 19.5719 91.755 19.4292 91.6123C19.2865 91.4695 19.2062 91.2761 19.2056 91.0743V84.8385C19.2062 84.6367 19.2865 84.4432 19.4292 84.3004C19.5719 84.1576 19.7653 84.0771 19.9672 84.0764Z" fill="#83C9FF"/>
<path d="M27.7044 85.4609H19.1003V90.4504H27.7044V85.4609Z" fill="#E8EFFF"/>
<path fill-rule="evenodd" clip-rule="evenodd" d="M21.1597 80.7354C21.2216 80.7355 21.2809 80.7602 21.3247 80.8039C21.3685 80.8476 21.3932 80.9069 21.3934 80.9688V82.2511C21.3934 82.313 21.3688 82.3725 21.325 82.4163C21.2811 82.4601 21.2217 82.4848 21.1597 82.4848C21.0977 82.4848 21.0383 82.4601 20.9944 82.4163C20.9506 82.3725 20.926 82.313 20.926 82.2511V80.9699C20.9262 80.908 20.9509 80.8488 20.9947 80.805C21.0385 80.7613 21.0978 80.7367 21.1597 80.7365M22.1983 80.7365C22.2602 80.7367 22.3195 80.7614 22.3632 80.8051C22.407 80.8488 22.4317 80.9081 22.432 80.9699V82.2511C22.4331 82.2825 22.4279 82.3137 22.4166 82.3431C22.4054 82.3724 22.3883 82.3992 22.3665 82.4218C22.3447 82.4444 22.3185 82.4623 22.2896 82.4746C22.2607 82.4869 22.2296 82.4932 22.1982 82.4932C22.1668 82.4932 22.1357 82.4869 22.1068 82.4746C22.0779 82.4623 22.0517 82.4444 22.0299 82.4218C22.0081 82.3992 21.991 82.3724 21.9797 82.3431C21.9685 82.3137 21.9632 82.2825 21.9643 82.2511V80.9699C21.9643 80.9078 21.989 80.8482 22.0328 80.8043C22.0767 80.7603 22.1362 80.7355 22.1983 80.7354V80.7365ZM22.198 80.7354C22.26 80.7355 22.3193 80.7601 22.3631 80.8039C22.407 80.8476 22.4317 80.9069 22.432 80.9688V82.2511C22.4331 82.2825 22.4279 82.3137 22.4166 82.3431C22.4054 82.3724 22.3883 82.3992 22.3665 82.4218C22.3447 82.4444 22.3185 82.4623 22.2896 82.4746C22.2607 82.4869 22.2296 82.4932 22.1982 82.4932C22.1668 82.4932 22.1357 82.4869 22.1068 82.4746C22.0779 82.4623 22.0517 82.4444 22.0299 82.4218C22.0081 82.3992 21.991 82.3724 21.9797 82.3431C21.9685 82.3137 21.9632 82.2825 21.9643 82.2511V80.9699C21.9332 80.8013 21.9704 80.6273 22.0676 80.486C22.1648 80.3448 22.3142 80.248 22.4828 80.2169C22.6514 80.1858 22.8255 80.223 22.9667 80.3202C23.1079 80.4174 23.2047 80.5668 23.2358 80.7354H22.198ZM23.2367 80.7354C23.2986 80.7355 23.3579 80.7601 23.4018 80.8039C23.4456 80.8476 23.4704 80.9069 23.4707 80.9688V82.2511C23.4718 82.2825 23.4665 82.3137 23.4553 82.3431C23.444 82.3724 23.427 82.3992 23.4051 82.4218C23.3833 82.4444 23.3572 82.4623 23.3282 82.4746C23.2993 82.4869 23.2682 82.4932 23.2368 82.4932C23.2054 82.4932 23.1743 82.4869 23.1454 82.4746C23.1165 82.4623 23.0903 82.4444 23.0685 82.4218C23.0467 82.3992 23.0296 82.3724 23.0184 82.3431C23.0071 82.3137 23.0019 82.2825 23.003 82.2511V80.9699C22.9719 80.8012 23.0091 80.627 23.1064 80.4857C23.2037 80.3444 23.3531 80.2476 23.5219 80.2165C23.6906 80.1854 23.8648 80.2226 24.0061 80.3199C24.1473 80.4172 24.2442 80.5667 24.2753 80.7354H23.2367ZM24.2756 80.7354C24.3375 80.7355 24.3968 80.7602 24.4406 80.8039C24.4844 80.8476 24.5091 80.9069 24.5093 80.9688V82.2511C24.5104 82.2825 24.5052 82.3137 24.4939 82.3431C24.4826 82.3724 24.4656 82.3992 24.4438 82.4218C24.4219 82.4444 24.3958 82.4623 24.3669 82.4746C24.338 82.4869 24.3069 82.4932 24.2754 82.4932C24.244 82.4932 24.2129 82.4869 24.184 82.4746C24.1551 82.4623 24.129 82.4444 24.1071 82.4218C24.0853 82.3992 24.0683 82.3724 24.057 82.3431C24.0457 82.3137 24.0405 82.2825 24.0416 82.2511V80.9699C24.0262 80.8864 24.0274 80.8006 24.0452 80.7175C24.0629 80.6344 24.0968 80.5556 24.145 80.4856C24.1932 80.4157 24.2547 80.3559 24.3261 80.3097C24.3974 80.2635 24.4771 80.2317 24.5606 80.2163C24.6442 80.2009 24.73 80.2022 24.8131 80.2199C24.8962 80.2376 24.9749 80.2716 25.0449 80.3198C25.1149 80.368 25.1747 80.4295 25.2209 80.5008C25.2671 80.5721 25.2988 80.6518 25.3142 80.7354H24.2756ZM25.3139 80.7354C25.3758 80.7355 25.4351 80.7602 25.4789 80.8039C25.5227 80.8476 25.5474 80.9069 25.5476 80.9688V82.2511C25.5476 82.313 25.523 82.3725 25.4792 82.4163C25.4354 82.4601 25.3759 82.4848 25.3139 82.4848C25.252 82.4848 25.1925 82.4601 25.1487 82.4163C25.1049 82.3725 25.0802 82.313 25.0802 82.2511V80.9699C25.0491 80.8012 25.0863 80.627 25.1836 80.4857C25.2809 80.3444 25.4304 80.2476 25.5991 80.2165C25.7678 80.1854 25.942 80.2226 26.0833 80.3199C26.2246 80.4172 26.3215 80.5667 26.3526 80.7354H25.3139ZM26.3526 80.7354C26.4145 80.7355 26.4738 80.7602 26.5176 80.8039C26.5613 80.8476 26.586 80.9069 26.5863 80.9688V82.2511C26.5863 82.313 26.5617 82.3725 26.5178 82.4163C26.474 82.4601 26.4146 82.4848 26.3526 82.4848C26.2906 82.4848 26.2311 82.4601 26.1873 82.4163C26.1435 82.3725 26.1189 82.313 26.1189 82.2511V80.9699C26.0878 80.8012 26.125 80.627 26.2223 80.4857C26.3196 80.3444 26.469 80.2476 26.6378 80.2165C26.8065 80.1854 26.9806 80.2226 27.1219 80.3199C27.2632 80.4172 27.3601 80.5667 27.3912 80.7354H26.3526ZM27.3912 80.7354C27.4531 80.7355 27.5124 80.7602 27.5562 80.8039C27.6 80.8476 27.6247 80.9069 27.6249 80.9688V82.2511C27.6249 82.313 27.6003 82.3725 27.5565 82.4163C27.5126 82.4601 27.4532 82.4848 27.3912 82.4848C27.3292 82.4848 27.2698 82.4601 27.2259 82.4163C27.1821 82.3725 27.1575 82.313 27.1575 82.2511V80.9699C27.1264 80.8012 27.1636 80.627 27.2609 80.4857C27.3582 80.3444 27.5077 80.2476 27.6764 80.2165C27.8451 80.1854 28.0193 80.2226 28.1606 80.3199C28.3019 80.4172 28.3987 80.5667 28.4298 80.7354H27.3912ZM28.4298 80.7354C28.4917 80.7355 28.551 80.7602 28.5948 80.8039C28.6386 80.8476 28.6633 80.9069 28.6635 80.9688V82.2511C28.6635 82.313 28.6389 82.3725 28.5951 82.4163C28.5513 82.4601 28.4918 82.4848 28.4298 82.4848C28.3678 82.4848 28.3084 82.4601 28.2646 82.4163C28.2207 82.3725 28.1961 82.313 28.1961 82.2511V80.9699C28.165 80.8012 28.2022 80.627 28.2995 80.4857C28.3968 80.3444 28.5463 80.2476 28.715 80.2165C28.8837 80.1854 29.0579 80.2226 29.1992 80.3199C29.3405 80.4172 29.4374 80.5667 29.4685 80.7354H28.4298ZM19.0824 80.7354C19.1443 80.7355 19.2036 80.7602 19.2474 80.8039C19.2912 80.8476 19.3159 80.9069 19.3161 80.9688V82.2511C19.3161 82.313 19.2915 82.3725 19.2477 82.4163C19.2039 82.4601 19.1444 82.4848 19.0824 82.4848C19.0205 82.4848 18.961 82.4601 18.9172 82.4163C18.8734 82.3725 18.8487 82.313 18.8487 82.2511V80.9699C18.8176 80.8012 18.8548 80.627 18.9521 80.4857C19.0494 80.3444 19.1989 80.2476 19.3676 80.2165C19.5363 80.1854 19.7105 80.2226 19.8518 80.3199C19.9931 80.4172 20.09 80.5667 20.1211 80.7354H19.0824Z" fill="#5074B0"/>
<path fill-rule="evenodd" clip-rule="evenodd" d="M20.7973 84.6296C20.9464 84.6302 21.0893 84.6897 21.1947 84.7951C21.3 84.9006 21.3594 85.0435 21.3598 85.1926V89.1041C21.3615 89.179 21.3481 89.2535 21.3206 89.3233C21.2931 89.393 21.2519 89.4565 21.1995 89.5101C21.1471 89.5637 21.0846 89.6063 21.0155 89.6354C20.9464 89.6645 20.8722 89.6794 20.7972 89.6794C20.7222 89.6794 20.648 89.6645 20.579 89.6354C20.5099 89.6063 20.4473 89.5637 20.3949 89.5101C20.3425 89.4565 20.3013 89.393 20.2738 89.3233C20.2463 89.2535 20.233 89.179 20.2346 89.1041V85.1926C20.235 85.0435 20.2944 84.9005 20.3998 84.795C20.5053 84.6896 20.6482 84.6301 20.7973 84.6296Z" fill="white"/>
<path fill-rule="evenodd" clip-rule="evenodd" d="M20.7975 84.6296C20.9466 84.6302 21.0894 84.6897 21.1948 84.7951C21.3002 84.9006 21.3595 85.0435 21.3599 85.1926V85.4604H20.2345V85.1926C20.2349 85.0434 20.2943 84.9004 20.3998 84.7949C20.5053 84.6894 20.6483 84.63 20.7975 84.6296Z" fill="#BCE1FF"/>
<path d="M30.1028 90.9029C30.1028 91.4634 29.6773 91.9172 29.1506 91.9172H25.3991C24.873 91.9172 24.447 91.4634 24.447 90.9029C24.447 90.3425 24.8725 89.8895 25.3991 89.8895H29.1506C29.6762 89.8895 30.1028 90.3433 30.1028 90.9029Z" fill="#F9CD55"/>
<path d="M30.1034 90.9029C30.1034 90.343 29.678 89.8895 29.1513 89.8895H27.2899V91.9172H29.1513C29.6768 91.9172 30.1034 91.4634 30.1034 90.9029Z" fill="#F44D11"/>
<path d="M25.3986 91.9164H27.2889V90.9101H24.447C24.4507 91.4666 24.8753 91.9164 25.3986 91.9164Z" fill="#F9CD55"/>
<path d="M29.1501 91.9164C29.6736 91.9164 30.0979 91.4666 30.1022 90.9101H27.2889V91.9164H29.1501Z" fill="#F44D11"/>
<path fill-rule="evenodd" clip-rule="evenodd" d="M27.2899 90.2091H29.2366C29.3875 90.2091 29.5109 90.3401 29.5109 90.5006C29.5109 90.6612 29.3875 90.7922 29.2366 90.7922H27.2899V90.2091Z" fill="#FFA484"/>
<path fill-rule="evenodd" clip-rule="evenodd" d="M26.4937 90.2091H27.2878V90.7922H26.4937C26.3425 90.7922 26.2194 90.6612 26.2194 90.5006C26.2194 90.3401 26.3425 90.2091 26.4937 90.2091Z" fill="#FFEBBC"/>
<path d="M26.8272 87.7898C27.1545 88.2291 27.0859 88.8658 26.6747 89.2144L23.7375 91.6984C23.3256 92.047 22.7266 91.9744 22.3993 91.535C22.072 91.0957 22.1407 90.4595 22.5525 90.1112L25.4894 87.6273C25.9012 87.2787 26.4999 87.3516 26.8272 87.7898Z" fill="#F9CD55"/>
<path d="M26.827 87.7895C26.4997 87.3513 25.901 87.279 25.4891 87.627L24.0305 88.8594L25.2157 90.4476L26.6733 89.215C27.0845 88.8664 27.1532 88.2297 26.8259 87.7904" fill="#F44D11"/>
<path d="M23.7364 91.6988L25.2163 90.4477L24.6281 89.6595L22.4031 91.5417C22.7315 91.975 23.3266 92.0462 23.7361 91.6997" fill="#F9CD55"/>
<path d="M26.6735 89.2138C27.0834 88.8667 27.1526 88.2333 26.8307 87.7957L24.6281 89.6583L25.2163 90.4465L26.6735 89.2138Z" fill="#F44D11"/>
<path fill-rule="evenodd" clip-rule="evenodd" d="M24.2189 89.1099L25.7431 87.8211C25.7707 87.7972 25.803 87.7793 25.838 87.7685C25.873 87.7578 25.9098 87.7545 25.9461 87.7587C25.9824 87.763 26.0174 87.7748 26.0489 87.7933C26.0804 87.8119 26.1077 87.8368 26.1291 87.8665C26.1742 87.9281 26.1946 88.0043 26.1864 88.0802C26.1783 88.156 26.142 88.2261 26.0848 88.2766L24.5598 89.5683L24.2189 89.1099Z" fill="#FFA484"/>
<path fill-rule="evenodd" clip-rule="evenodd" d="M23.5951 89.6361L24.2177 89.11L24.558 89.5675L23.9358 90.0939C23.9079 90.1175 23.8755 90.1351 23.8405 90.1455C23.8056 90.1559 23.7688 90.159 23.7326 90.1545C23.6964 90.1501 23.6615 90.1381 23.6301 90.1195C23.5987 90.1008 23.5716 90.0759 23.5503 90.0462C23.5052 89.9847 23.4847 89.9085 23.4928 89.8326C23.501 89.7568 23.5371 89.6867 23.5943 89.6361" fill="#FFEBBC"/>
<path d="M62.3095 91.0886C62.3095 91.6487 61.8841 92.1022 61.3574 92.1022H57.6059C57.08 92.1022 56.6537 91.6484 56.6537 91.0886C56.6537 90.5287 57.0792 90.0752 57.6059 90.0752H61.3574C61.8832 90.0752 62.3095 90.529 62.3095 91.0886Z" fill="#F9CD55"/>
<path d="M62.3098 91.0886C62.3098 90.5287 61.8844 90.0752 61.3577 90.0752H59.4966V92.1022H61.3577C61.8836 92.1022 62.3098 91.6484 62.3098 91.0886Z" fill="#F44D11"/>
<path d="M61.3577 92.1027C61.8813 92.1027 62.3056 91.6531 62.3098 91.0966H59.4966V92.1027H61.3577Z" fill="#F44D11"/>
<path fill-rule="evenodd" clip-rule="evenodd" d="M59.4966 90.3966H61.4434C61.5943 90.3966 61.7176 90.5279 61.7176 90.6879C61.7176 90.8478 61.5943 90.98 61.4434 90.98H59.4966V90.3966Z" fill="#FFA484"/>
<path fill-rule="evenodd" clip-rule="evenodd" d="M58.7022 90.3966H59.4964V90.98H58.7022C58.5514 90.98 58.428 90.8487 58.428 90.6879C58.428 90.527 58.5514 90.3966 58.7022 90.3966Z" fill="#FFEBBC"/>
<path fill-rule="evenodd" clip-rule="evenodd" d="M47.8008 51.3072H51.0942C51.1534 51.3072 51.2102 51.3307 51.2521 51.3726C51.2939 51.4145 51.3174 51.4712 51.3174 51.5304C51.3174 51.5896 51.2939 51.6464 51.2521 51.6883C51.2102 51.7301 51.1534 51.7536 51.0942 51.7536H47.8008C47.7416 51.7536 47.6848 51.7301 47.643 51.6883C47.6011 51.6464 47.5776 51.5896 47.5776 51.5304C47.5776 51.4712 47.6011 51.4145 47.643 51.3726C47.6848 51.3307 47.7416 51.3072 47.8008 51.3072Z" fill="white"/>
<path fill-rule="evenodd" clip-rule="evenodd" d="M19.7844 92.1772H88.3475C88.5046 92.1772 88.6326 92.293 88.6326 92.4345C88.6326 92.576 88.5043 92.6913 88.3475 92.6913H19.7844C19.6273 92.6913 19.4993 92.5756 19.4993 92.4345C19.4993 92.2935 19.6289 92.1772 19.7844 92.1772Z" fill="#6632EC"/>
<path fill-rule="evenodd" clip-rule="evenodd" d="M30.8345 68.9823H40.0732C40.1317 68.984 40.1884 68.9624 40.231 68.9223C40.2735 68.8821 40.2984 68.8267 40.3001 68.7682V68.3087C40.2984 68.2503 40.2735 68.1948 40.231 68.1547C40.1884 68.1145 40.1317 68.0929 40.0732 68.0946H30.8345C30.7762 68.0933 30.7199 68.1151 30.6777 68.1552C30.6355 68.1953 30.6109 68.2505 30.6093 68.3087V68.7682C30.6109 68.8264 30.6355 68.8816 30.6777 68.9217C30.7199 68.9618 30.7762 68.9836 30.8345 68.9823Z" fill="#E3ECFF"/>
<path fill-rule="evenodd" clip-rule="evenodd" d="M37.9314 79.4362H45.478C45.6915 79.4369 45.8961 79.522 46.0471 79.673C46.198 79.824 46.2831 80.0285 46.2838 80.242V91.0291C46.2831 91.2425 46.1979 91.447 46.047 91.5979C45.896 91.7488 45.6915 91.8339 45.478 91.8346H37.9314C37.718 91.8338 37.5136 91.7487 37.3627 91.5978C37.2119 91.4469 37.1268 91.2425 37.1262 91.0291V80.242C37.1268 80.0286 37.2118 79.8241 37.3626 79.6731C37.5135 79.5221 37.7179 79.437 37.9314 79.4362Z" fill="#B1D2FC"/>
<path d="M41.3744 82.1119C41.3745 82.4368 41.2782 82.7544 41.0978 83.0245C40.9173 83.2946 40.6608 83.5052 40.3607 83.6296C40.0606 83.7539 39.7304 83.7865 39.4118 83.7232C39.0932 83.6599 38.8005 83.5035 38.5707 83.2738C38.341 83.0442 38.1845 82.7515 38.1211 82.4329C38.0577 82.1143 38.0901 81.7841 38.2144 81.4839C38.3387 81.1838 38.5491 80.9272 38.8192 80.7467C39.0893 80.5662 39.4068 80.4698 39.7317 80.4698C40.1672 80.4698 40.585 80.6428 40.8931 80.9507C41.2011 81.2587 41.3743 81.6764 41.3744 82.1119Z" fill="#CBE2E7"/>
<path d="M41.1548 82.1122C41.1547 82.3936 41.0712 82.6688 40.9148 82.9028C40.7584 83.1368 40.5361 83.3192 40.276 83.4269C40.016 83.5345 39.7298 83.5627 39.4537 83.5077C39.1777 83.4528 38.9241 83.3172 38.7251 83.1182C38.5261 82.9191 38.3906 82.6655 38.3357 82.3894C38.2808 82.1134 38.309 81.8272 38.4167 81.5672C38.5244 81.3071 38.7069 81.0849 38.9409 80.9285C39.1749 80.7721 39.4501 80.6887 39.7316 80.6887C40.1091 80.6887 40.4711 80.8387 40.738 81.1057C41.0049 81.3726 41.1548 81.7347 41.1548 82.1122Z" fill="white"/>
<path d="M38.7555 83.2878L38.735 83.275L38.7458 83.1582L38.7796 83.081L40.5236 81.0174L40.5936 80.9703L40.7091 80.9408L40.7238 80.9589L38.7555 83.2878Z" fill="#9FC1D1"/>
<path d="M45.1374 82.1119C45.1374 82.4367 45.0411 82.7542 44.8607 83.0243C44.6802 83.2943 44.4238 83.5048 44.1237 83.6291C43.8236 83.7534 43.4934 83.7859 43.1749 83.7226C42.8563 83.6592 42.5637 83.5028 42.3341 83.2731C42.1044 83.0435 41.948 82.7509 41.8846 82.4323C41.8213 82.1138 41.8538 81.7836 41.9781 81.4835C42.1024 81.1834 42.3129 80.927 42.5829 80.7465C42.853 80.5661 43.1705 80.4698 43.4953 80.4698C43.9308 80.4698 44.3485 80.6428 44.6565 80.9507C44.9644 81.2587 45.1374 81.6764 45.1374 82.1119Z" fill="#CBE2E7"/>
<path d="M44.9181 82.1122C44.9181 82.3937 44.8346 82.6689 44.6782 82.903C44.5218 83.1371 44.2995 83.3196 44.0394 83.4273C43.7793 83.5351 43.493 83.5632 43.2169 83.5083C42.9408 83.4534 42.6871 83.3178 42.488 83.1187C42.289 82.9197 42.1534 82.666 42.0985 82.3899C42.0435 82.1137 42.0717 81.8275 42.1795 81.5674C42.2872 81.3073 42.4697 81.085 42.7038 80.9286C42.9378 80.7721 43.2131 80.6887 43.4946 80.6887C43.8721 80.6887 44.2342 80.8387 44.5011 81.1057C44.768 81.3726 44.918 81.7347 44.9181 82.1122Z" fill="white"/>
<path d="M42.5201 83.2878L42.4996 83.275L42.5101 83.1582L42.5442 83.081L44.2882 81.0174L44.3582 80.9703L44.4734 80.9408L44.4884 80.9589L42.5201 83.2878Z" fill="#9FC1D1"/>
<path d="M41.3744 85.8506C41.3743 86.1754 41.2779 86.4929 41.0973 86.7629C40.9168 87.0329 40.6603 87.2434 40.3602 87.3676C40.06 87.4918 39.7298 87.5243 39.4113 87.4609C39.0927 87.3975 38.8001 87.241 38.5704 87.0113C38.3408 86.7816 38.1844 86.489 38.121 86.1704C38.0577 85.8518 38.0902 85.5216 38.2145 85.2215C38.3388 84.9214 38.5492 84.6649 38.8193 84.4845C39.0893 84.304 39.4068 84.2076 39.7317 84.2076C40.1672 84.2076 40.585 84.3805 40.8931 84.6885C41.2011 84.9965 41.3743 85.4141 41.3744 85.8497" fill="#CBE2E7"/>
<path d="M41.3744 89.5897C41.3744 89.9145 41.2781 90.232 41.0976 90.5021C40.9172 90.7722 40.6607 90.9828 40.3606 91.1071C40.0604 91.2314 39.7302 91.2639 39.4116 91.2006C39.093 91.1372 38.8004 90.9808 38.5706 90.7512C38.3409 90.5215 38.1845 90.2289 38.1211 89.9103C38.0577 89.5917 38.0902 89.2614 38.2144 88.9613C38.3387 88.6612 38.5492 88.4047 38.8192 88.2241C39.0893 88.0436 39.4068 87.9473 39.7317 87.9472C40.1673 87.9472 40.5851 88.1202 40.8932 88.4283C41.2012 88.7363 41.3743 89.154 41.3744 89.5897Z" fill="#CBE2E7"/>
<path d="M41.1548 85.8509C41.1547 86.1324 41.0712 86.4075 40.9148 86.6415C40.7584 86.8755 40.5361 87.0579 40.276 87.1656C40.016 87.2732 39.7298 87.3014 39.4537 87.2464C39.1777 87.1915 38.9241 87.0559 38.7251 86.8569C38.5261 86.6578 38.3906 86.4042 38.3357 86.1281C38.2808 85.8521 38.309 85.5659 38.4167 85.3059C38.5244 85.0458 38.7069 84.8236 38.9409 84.6672C39.1749 84.5108 39.4501 84.4274 39.7316 84.4274C40.1091 84.4274 40.4711 84.5775 40.738 84.8444C41.0049 85.1114 41.1548 85.4734 41.1548 85.8509Z" fill="white"/>
<path d="M41.1548 89.5899C41.1547 89.8713 41.0711 90.1464 40.9147 90.3804C40.7582 90.6144 40.5359 90.7967 40.2758 90.9043C40.0158 91.012 39.7296 91.0401 39.4536 90.9851C39.1775 90.9301 38.924 90.7945 38.725 90.5955C38.526 90.3964 38.3905 90.1428 38.3357 89.8667C38.2808 89.5907 38.309 89.3046 38.4167 89.0445C38.5245 88.7845 38.7069 88.5623 38.9409 88.4059C39.175 88.2495 39.4501 88.1661 39.7316 88.1661C39.9185 88.1661 40.1036 88.203 40.2763 88.2745C40.449 88.3461 40.6059 88.451 40.7381 88.5832C40.8702 88.7154 40.975 88.8724 41.0465 89.0451C41.1181 89.2178 41.1548 89.4029 41.1548 89.5899Z" fill="white"/>
<path d="M38.7555 87.0277L38.735 87.0146L38.7458 86.8978L38.7796 86.8209L40.5236 84.7573L40.5936 84.7099L40.7091 84.6804L40.7238 84.6986L38.7555 87.0277Z" fill="#9FC1D1"/>
<path d="M38.7555 90.7652L38.735 90.7522L38.7458 90.6356L38.7796 90.5587L40.5236 88.4951L40.5936 88.4477L40.7091 88.4182L40.7238 88.4364L38.7555 90.7652Z" fill="#9FC1D1"/>
<path d="M45.1374 85.8506C45.1374 86.1754 45.0411 86.4929 44.8607 86.763C44.6802 87.033 44.4238 87.2435 44.1237 87.3678C43.8236 87.4921 43.4934 87.5246 43.1749 87.4613C42.8563 87.3979 42.5637 87.2415 42.3341 87.0118C42.1044 86.7822 41.948 86.4896 41.8846 86.171C41.8213 85.8525 41.8538 85.5223 41.9781 85.2222C42.1024 84.9221 42.3129 84.6657 42.5829 84.4852C42.853 84.3048 43.1705 84.2085 43.4953 84.2085C43.9308 84.2085 44.3485 84.3815 44.6565 84.6894C44.9644 84.9974 45.1374 85.4151 45.1374 85.8506Z" fill="#CBE2E7"/>
<path d="M45.1374 89.5897C45.1374 89.9145 45.041 90.2319 44.8606 90.5019C44.6801 90.772 44.4236 90.9824 44.1235 91.1066C43.8234 91.2309 43.4933 91.2634 43.1747 91.2C42.8562 91.1366 42.5636 90.9802 42.334 90.7505C42.1043 90.5208 41.948 90.2282 41.8846 89.9097C41.8213 89.5911 41.8538 89.2609 41.9781 88.9609C42.1024 88.6608 42.3129 88.4044 42.583 88.2239C42.853 88.0435 43.1705 87.9472 43.4953 87.9472C43.7109 87.9472 43.9245 87.9897 44.1238 88.0722C44.323 88.1548 44.5041 88.2758 44.6566 88.4283C44.8091 88.5808 44.93 88.7619 45.0125 88.9611C45.095 89.1604 45.1375 89.374 45.1374 89.5897Z" fill="#CBE2E7"/>
<path d="M44.9181 85.8509C44.9181 86.1324 44.8346 86.4076 44.6782 86.6417C44.5218 86.8758 44.2995 87.0583 44.0394 87.166C43.7793 87.2738 43.493 87.302 43.2169 87.247C42.9408 87.1921 42.6871 87.0565 42.488 86.8574C42.289 86.6584 42.1534 86.4047 42.0985 86.1286C42.0435 85.8525 42.0717 85.5662 42.1795 85.3061C42.2872 85.046 42.4697 84.8237 42.7038 84.6673C42.9378 84.5109 43.2131 84.4274 43.4946 84.4274C43.6816 84.4274 43.8667 84.4642 44.0394 84.5357C44.2121 84.6073 44.369 84.7121 44.5012 84.8443C44.6334 84.9765 44.7382 85.1334 44.8098 85.3061C44.8813 85.4788 44.9181 85.6639 44.9181 85.8509Z" fill="white"/>
<path d="M44.9181 89.5899C44.9181 89.8714 44.8345 90.1466 44.6781 90.3806C44.5216 90.6147 44.2993 90.7971 44.0392 90.9048C43.7791 91.0125 43.4928 91.0407 43.2167 90.9857C42.9406 90.9307 42.687 90.7951 42.4879 90.5961C42.2889 90.397 42.1533 90.1433 42.0984 89.8672C42.0435 89.5911 42.0717 89.3049 42.1795 89.0448C42.2872 88.7847 42.4697 88.5624 42.7038 88.406C42.9379 88.2496 43.2131 88.1661 43.4946 88.1661C43.6816 88.1661 43.8667 88.2029 44.0394 88.2745C44.2122 88.346 44.3691 88.4509 44.5013 88.5831C44.6335 88.7153 44.7383 88.8723 44.8098 89.045C44.8814 89.2178 44.9182 89.4029 44.9181 89.5899Z" fill="white"/>
<path d="M42.5201 87.0277L42.4996 87.0146L42.5101 86.8978L42.5442 86.8209L44.2882 84.7573L44.3582 84.7099L44.4734 84.6804L44.4884 84.6986L42.5201 87.0277Z" fill="#9FC1D1"/>
<path d="M42.5201 90.7652L42.4996 90.7522L42.5101 90.6356L42.5442 90.5587L44.2882 88.4951L44.3582 88.4477L44.4734 88.4182L44.4884 88.4364L42.5201 90.7652Z" fill="#9FC1D1"/>
</svg>
