<svg width="101" height="101" viewBox="0 0 101 101" fill="none" xmlns="http://www.w3.org/2000/svg">
<rect width="101" height="93.8496" rx="12" fill="#EC6632"/>
<path d="M15.3808 23.851C14.1212 23.851 13.1827 23.5382 12.5653 22.9125C11.9564 22.2785 11.6519 21.3442 11.6519 20.1096V14.904H13.2661V20.0971C13.2661 20.8812 13.4329 21.4735 13.7666 21.8739C14.1086 22.2744 14.6467 22.4746 15.3808 22.4746C16.0816 22.4746 16.6071 22.2744 16.9575 21.8739C17.3162 21.4735 17.4956 20.8812 17.4956 20.0971V14.904H19.0848V20.1096C19.0848 21.3442 18.7719 22.2785 18.1463 22.9125C17.5289 23.5382 16.6071 23.851 15.3808 23.851ZM24.0429 23.851C23.3339 23.851 22.679 23.7634 22.0784 23.5883C21.4861 23.4047 20.9772 23.1545 20.5517 22.8375L21.0523 21.5736C21.3359 21.7738 21.6321 21.9449 21.9407 22.0867C22.2494 22.2201 22.5789 22.3244 22.9293 22.3995C23.2796 22.4662 23.6509 22.4996 24.0429 22.4996C24.702 22.4996 25.1775 22.3912 25.4695 22.1743C25.7614 21.9574 25.9074 21.6737 25.9074 21.3234C25.9074 21.0147 25.8073 20.7811 25.6071 20.6226C25.4069 20.4558 25.0482 20.3181 24.531 20.2097L23.117 19.9219C22.3078 19.755 21.703 19.4756 21.3025 19.0835C20.9021 18.6914 20.7019 18.1658 20.7019 17.5068C20.7019 16.9562 20.8479 16.4765 21.1399 16.0678C21.4318 15.659 21.8406 15.342 22.3662 15.1168C22.8917 14.8915 23.5049 14.7789 24.2056 14.7789C24.8313 14.7789 25.4111 14.8707 25.945 15.0542C26.4789 15.2294 26.9252 15.4838 27.2839 15.8175L26.7834 17.0188C26.4246 16.7185 26.0326 16.4974 25.6071 16.3556C25.1817 16.2054 24.7062 16.1303 24.1806 16.1303C23.5883 16.1303 23.1253 16.2471 22.7916 16.4807C22.4663 16.706 22.3036 17.0188 22.3036 17.4192C22.3036 17.7279 22.4037 17.974 22.6039 18.1575C22.8125 18.341 23.1628 18.4828 23.655 18.583L25.0565 18.8582C25.8907 19.0251 26.5081 19.3004 26.9085 19.6841C27.3089 20.0595 27.5091 20.5684 27.5091 21.2107C27.5091 21.7363 27.3673 22.1993 27.0837 22.5997C26.8 22.9918 26.3996 23.3005 25.8824 23.5257C25.3652 23.7426 24.752 23.851 24.0429 23.851ZM29.0299 23.7259V14.904H34.9737V16.1679H30.5815V18.608H34.6859V19.8843H30.5815V22.4496H34.9737V23.7259H29.0299ZM39.6179 19.3087C39.6179 18.3827 39.7847 17.5819 40.1184 16.9062C40.4604 16.2305 40.9484 15.7091 41.5825 15.342C42.2165 14.9666 42.9714 14.7789 43.8474 14.7789C44.7149 14.7789 45.4657 14.9666 46.0997 15.342C46.7338 15.7091 47.2218 16.2305 47.5638 16.9062C47.9142 17.5819 48.0894 18.3786 48.0894 19.2962C48.0894 20.2222 47.9142 21.0272 47.5638 21.7113C47.2218 22.387 46.7338 22.9125 46.0997 23.2879C45.4657 23.6633 44.7149 23.851 43.8474 23.851C42.9714 23.851 42.2165 23.6633 41.5825 23.2879C40.9568 22.9125 40.4729 22.387 40.1309 21.7113C39.7889 21.0272 39.6179 20.2264 39.6179 19.3087ZM41.3072 19.3087C41.3072 20.3014 41.5199 21.0773 41.9453 21.6362C42.3708 22.1951 43.0048 22.4746 43.8474 22.4746C44.6649 22.4746 45.2947 22.1951 45.7369 21.6362C46.179 21.0773 46.4001 20.3014 46.4001 19.3087C46.4001 18.3077 46.179 17.5318 45.7369 16.9813C45.3031 16.4307 44.6732 16.1554 43.8474 16.1554C43.0048 16.1554 42.3708 16.4307 41.9453 16.9813C41.5199 17.5318 41.3072 18.3077 41.3072 19.3087ZM49.755 23.7259V14.904H55.5737V16.1679H51.3692V18.6705H55.2859V19.9344H51.3692V23.7259H49.755ZM11.7019 39.7259V30.904H14.9053C15.9147 30.904 16.7656 31.0792 17.458 31.4296C18.1588 31.7716 18.6885 32.2722 19.0472 32.9312C19.4059 33.5819 19.5853 34.3744 19.5853 35.3087C19.5853 36.2347 19.4059 37.0272 19.0472 37.6862C18.6885 38.3453 18.1588 38.85 17.458 39.2003C16.7656 39.5507 15.9147 39.7259 14.9053 39.7259H11.7019ZM13.3161 38.387H14.8052C15.873 38.387 16.6655 38.1325 17.1827 37.6237C17.7 37.1148 17.9586 36.3432 17.9586 35.3087C17.9586 34.2659 17.7 33.4943 17.1827 32.9938C16.6655 32.4849 15.873 32.2305 14.8052 32.2305H13.3161V38.387ZM21.2335 39.7259V30.904H25.0876C26.0553 30.904 26.8019 31.1335 27.3275 31.5923C27.8614 32.0511 28.1283 32.6893 28.1283 33.5068C28.1283 34.0491 28.0074 34.512 27.7655 34.8958C27.5319 35.2795 27.194 35.5757 26.7519 35.7842C26.3097 35.9844 25.7884 36.0845 25.1877 36.0845L25.3629 35.8468H25.7884C26.1387 35.8468 26.4516 35.9386 26.7269 36.1221C27.0021 36.3056 27.2274 36.5851 27.4026 36.9605L28.6914 39.7259H26.9145L25.6132 36.8604C25.4964 36.5684 25.317 36.3765 25.0751 36.2848C24.8415 36.193 24.5579 36.1471 24.2242 36.1471H22.8477V39.7259H21.2335ZM22.8477 34.9583H24.8248C25.3921 34.9583 25.8217 34.8416 26.1137 34.608C26.414 34.3661 26.5642 34.0157 26.5642 33.5569C26.5642 33.098 26.414 32.7518 26.1137 32.5183C25.8217 32.2847 25.3921 32.1679 24.8248 32.1679H22.8477V34.9583ZM33.6986 39.851C32.4389 39.851 31.5004 39.5382 30.8831 38.9125C30.2741 38.2785 29.9696 37.3442 29.9696 36.1096V30.904H31.5839V36.0971C31.5839 36.8812 31.7507 37.4735 32.0844 37.8739C32.4264 38.2744 32.9645 38.4746 33.6986 38.4746C34.3993 38.4746 34.9249 38.2744 35.2753 37.8739C35.634 37.4735 35.8133 36.8812 35.8133 36.0971V30.904H37.4025V36.1096C37.4025 37.3442 37.0897 38.2785 36.464 38.9125C35.8467 39.5382 34.9249 39.851 33.6986 39.851ZM43.537 39.851C42.5442 39.851 41.71 39.6675 41.0343 39.3005C40.3586 38.9334 39.8497 38.412 39.5077 37.7363C39.1657 37.0606 38.9946 36.2597 38.9946 35.3337C38.9946 34.3994 39.1782 33.5944 39.5452 32.9187C39.9123 32.2346 40.4378 31.7091 41.1219 31.342C41.8143 30.9666 42.6444 30.7789 43.612 30.7789C44.2544 30.7789 44.8175 30.8665 45.3013 31.0417C45.7852 31.2085 46.2106 31.4546 46.5777 31.78L46.0396 33.0313C45.7727 32.8227 45.5182 32.6559 45.2763 32.5308C45.0344 32.4056 44.7841 32.318 44.5255 32.268C44.2669 32.2096 43.9666 32.1804 43.6246 32.1804C42.6569 32.1804 41.9228 32.4557 41.4222 33.0063C40.93 33.5485 40.6839 34.3285 40.6839 35.3463C40.6839 36.364 40.9175 37.1398 41.3847 37.6737C41.8602 38.2076 42.6026 38.4746 43.612 38.4746C43.9541 38.4746 44.2961 38.4412 44.6381 38.3745C44.9885 38.3077 45.3305 38.2118 45.6642 38.0867L45.3639 38.7624V36.1221H43.2992V34.9458H46.7028V39.1878C46.2941 39.3964 45.806 39.5591 45.2388 39.6759C44.6715 39.7926 44.1042 39.851 43.537 39.851ZM51.6235 39.851C50.9144 39.851 50.2595 39.7634 49.6589 39.5883C49.0666 39.4047 48.5577 39.1545 48.1323 38.8375L48.6328 37.5736C48.9164 37.7738 49.2126 37.9449 49.5212 38.0867C49.8299 38.2201 50.1594 38.3244 50.5098 38.3995C50.8602 38.4662 51.2314 38.4996 51.6235 38.4996C52.2825 38.4996 52.758 38.3912 53.05 38.1743C53.342 37.9574 53.488 37.6737 53.488 37.3234C53.488 37.0147 53.3878 36.7811 53.1876 36.6226C52.9874 36.4558 52.6287 36.3181 52.1115 36.2097L50.6975 35.9219C49.8883 35.755 49.2835 35.4756 48.8831 35.0835C48.4826 34.6914 48.2824 34.1658 48.2824 33.5068C48.2824 32.9562 48.4284 32.4765 48.7204 32.0678C49.0124 31.659 49.4211 31.342 49.9467 31.1168C50.4723 30.8915 51.0854 30.7789 51.7861 30.7789C52.4118 30.7789 52.9916 30.8707 53.5255 31.0542C54.0594 31.2294 54.5057 31.4838 54.8644 31.8175L54.3639 33.0188C54.0052 32.7185 53.6131 32.4974 53.1876 32.3556C52.7622 32.2054 52.2867 32.1303 51.7611 32.1303C51.1688 32.1303 50.7058 32.2471 50.3721 32.4807C50.0468 32.706 49.8841 33.0188 49.8841 33.4192C49.8841 33.7279 49.9842 33.974 50.1845 34.1575C50.393 34.341 50.7434 34.4828 51.2356 34.583L52.6371 34.8582C53.4713 35.0251 54.0886 35.3004 54.489 35.6841C54.8894 36.0595 55.0897 36.5684 55.0897 37.2107C55.0897 37.7363 54.9478 38.1993 54.6642 38.5997C54.3806 38.9918 53.9801 39.3005 53.4629 39.5257C52.9457 39.7426 52.3326 39.851 51.6235 39.851Z" fill="white"/>
<path fill-rule="evenodd" clip-rule="evenodd" d="M30.8755 68.6704H40.3879V65.6564C40.3879 65.2053 40.0842 64.8364 39.7132 64.8364H31.4321C31.1261 64.8364 30.8755 65.1407 30.8755 65.5131V68.6704Z" fill="#B9CAE8"/>
<path fill-rule="evenodd" clip-rule="evenodd" d="M68.8922 81.2267V90.6215C68.8922 91.88 69.7805 92.9097 70.8657 92.9097H88.7564C89.8432 92.9097 90.7299 91.88 90.7299 90.6215V81.2267C90.7299 79.9682 89.8432 78.9386 88.7564 78.9386H70.866C69.7791 78.9386 68.8924 79.9682 68.8924 81.2267" fill="#B9CAE8"/>
<path fill-rule="evenodd" clip-rule="evenodd" d="M70.7987 85.9251C70.7987 85.9977 70.9068 86.0572 71.0375 86.0572H88.7658C88.897 86.0572 89.0046 85.9977 89.0046 85.9251C89.0046 85.8524 88.897 85.7927 88.7658 85.7927H71.0375C70.9068 85.7927 70.7987 85.8522 70.7987 85.9251Z" fill="#E1E9F6"/>
<path fill-rule="evenodd" clip-rule="evenodd" d="M71.5629 84.5473C71.8151 84.788 72.1526 84.9188 72.5012 84.9109C72.8498 84.9029 73.181 84.7569 73.422 84.505L75.7745 82.0421C75.9971 81.7869 76.1127 81.4557 76.0973 81.1175C76.0819 80.7792 75.9367 80.4599 75.6919 80.226C75.447 79.9921 75.1215 79.8615 74.7828 79.8616C74.4442 79.8616 74.1187 79.9922 73.8739 80.2261L71.5211 82.6893C71.2804 82.9416 71.1497 83.2791 71.1577 83.6277C71.1657 83.9763 71.3117 84.3075 71.5637 84.5484" fill="#AABCDC"/>
<path d="M71.8726 84.2232C72.0386 84.3815 72.2606 84.4674 72.4899 84.462C72.7192 84.4567 72.937 84.3605 73.0954 84.1946L75.4479 81.7314C75.6062 81.5656 75.6923 81.3436 75.687 81.1143C75.6817 80.885 75.5855 80.6673 75.4197 80.5089C75.2538 80.3505 75.0318 80.2645 74.8026 80.2697C74.5733 80.275 74.3555 80.3712 74.1971 80.537L71.8443 83.0002C71.6861 83.1661 71.6002 83.388 71.6056 83.6172C71.6109 83.8464 71.7071 84.0641 71.8729 84.2224" fill="#F9CD55"/>
<path d="M71.8729 84.223C71.7071 84.0647 71.6109 83.847 71.6056 83.6178C71.6002 83.3886 71.6861 83.1667 71.8443 83.0008L73.0116 81.7784L74.2626 82.9739L73.0956 84.1961C72.9372 84.3619 72.7195 84.4581 72.4902 84.4635C72.2609 84.4688 72.0389 84.383 71.8729 84.2247" fill="#F44D11"/>
<path d="M75.4497 81.7324L74.2636 82.9746L73.6432 82.3814L75.4257 80.5154C75.5895 80.6743 75.6839 80.8914 75.6884 81.1195C75.6929 81.3477 75.6071 81.5684 75.4497 81.7336" fill="#F9CD55"/>
<path d="M73.0973 84.1954C72.9395 84.3603 72.723 84.4563 72.4948 84.4623C72.2667 84.4683 72.0454 84.3839 71.8792 84.2274L73.6433 82.3801L74.2637 82.9744L73.0973 84.1954Z" fill="#F44D11"/>
<path fill-rule="evenodd" clip-rule="evenodd" d="M73.2095 81.9674L71.9885 83.2456C71.964 83.2688 71.9445 83.2968 71.9311 83.3278C71.9178 83.3587 71.9109 83.3921 71.9108 83.4258C71.9108 83.4595 71.9176 83.4929 71.9308 83.5239C71.944 83.5549 71.9634 83.5829 71.9878 83.6062C72.0122 83.6295 72.0411 83.6476 72.0727 83.6594C72.1043 83.6712 72.138 83.6764 72.1716 83.6748C72.2053 83.6732 72.2383 83.6647 72.2687 83.6499C72.299 83.6352 72.326 83.6144 72.348 83.5889L73.5696 82.3107L73.2095 81.9674Z" fill="#FFA484"/>
<path fill-rule="evenodd" clip-rule="evenodd" d="M73.7083 81.4448L73.2101 81.9667L73.5702 82.31L74.069 81.788C74.1116 81.7396 74.1338 81.6767 74.131 81.6123C74.1281 81.548 74.1005 81.4872 74.0538 81.4428C74.0072 81.3984 73.9451 81.3738 73.8807 81.3741C73.8163 81.3745 73.7545 81.3998 73.7083 81.4448Z" fill="#FFEBBC"/>
<path fill-rule="evenodd" clip-rule="evenodd" d="M75.5725 84.546C75.8247 84.7867 76.1622 84.9175 76.5108 84.9096C76.8594 84.9016 77.1906 84.7557 77.4316 84.5037L79.7846 82.0408C80.0094 81.7858 80.1268 81.4538 80.1122 81.1143C80.0976 80.7747 79.9522 80.454 79.7064 80.2192C79.4606 79.9845 79.1335 79.854 78.7937 79.855C78.4538 79.8561 78.1275 79.9886 77.8832 80.2249L75.5307 82.688C75.29 82.9403 75.1593 83.2778 75.1673 83.6264C75.1753 83.975 75.3213 84.3062 75.5733 84.5472" fill="#AABCDC"/>
<path d="M75.8838 84.2241C76.0498 84.3824 76.2718 84.4683 76.5011 84.4629C76.7303 84.4575 76.9481 84.3614 77.1065 84.1955L79.459 81.7323C79.538 81.6503 79.6001 81.5536 79.6416 81.4475C79.6831 81.3415 79.7033 81.2283 79.7009 81.1144C79.6986 81.0006 79.6738 80.8883 79.6279 80.7841C79.582 80.6798 79.516 80.5857 79.4337 80.507C79.3513 80.4284 79.2543 80.3668 79.1481 80.3257C79.0418 80.2847 78.9285 80.2651 78.8147 80.2679C78.7009 80.2708 78.5887 80.2961 78.4847 80.3425C78.3807 80.3888 78.2868 80.4552 78.2085 80.5379L75.8555 83.0011C75.777 83.0832 75.7154 83.1799 75.6743 83.2858C75.6333 83.3916 75.6135 83.5046 75.6161 83.6181C75.6188 83.7317 75.6438 83.8435 75.6898 83.9474C75.7358 84.0512 75.8018 84.145 75.8841 84.2233" fill="#F9CD55"/>
<path d="M75.8832 84.223C75.8009 84.1447 75.7349 84.0509 75.6889 83.9471C75.6429 83.8433 75.6179 83.7314 75.6152 83.6178C75.6126 83.5043 75.6323 83.3914 75.6734 83.2855C75.7145 83.1796 75.776 83.0829 75.8546 83.0008L77.0218 81.7784L78.2731 82.9731L77.1056 84.1952C76.9472 84.3611 76.7294 84.4573 76.5001 84.4626C76.2709 84.468 76.0489 84.3821 75.8829 84.2238" fill="#F44D11"/>
<path d="M79.4588 81.733L78.2732 82.9752L77.6528 82.382L79.4339 80.5154C79.5978 80.6742 79.6924 80.8913 79.6969 81.1195C79.7014 81.3477 79.6155 81.5685 79.4579 81.7336" fill="#F9CD55"/>
<path d="M77.1069 84.1954C76.9492 84.3603 76.7326 84.4563 76.5045 84.4623C76.2763 84.4683 76.055 84.3839 75.8888 84.2274L77.6535 82.3801L78.2739 82.9733L77.1069 84.1954Z" fill="#F44D11"/>
<path fill-rule="evenodd" clip-rule="evenodd" d="M77.2205 81.9674L75.9989 83.2456C75.957 83.2941 75.9354 83.3567 75.9385 83.4207C75.9416 83.4846 75.9691 83.5449 76.0155 83.589C76.0618 83.6332 76.1234 83.6578 76.1874 83.6577C76.2514 83.6577 76.3129 83.6331 76.3593 83.5889L77.5806 82.3107L77.2205 81.9674Z" fill="#FFA484"/>
<path fill-rule="evenodd" clip-rule="evenodd" d="M77.718 81.4448L77.2197 81.9667L77.5798 82.31L78.0786 81.788C78.1212 81.7396 78.1434 81.6767 78.1406 81.6123C78.1378 81.548 78.1101 81.4872 78.0635 81.4428C78.0168 81.3984 77.9547 81.3738 77.8903 81.3741C77.8259 81.3745 77.7641 81.3998 77.718 81.4448Z" fill="#FFEBBC"/>
<path fill-rule="evenodd" clip-rule="evenodd" d="M79.5834 84.5476C79.8357 84.7884 80.1732 84.9191 80.5217 84.9112C80.8703 84.9033 81.2015 84.7573 81.4425 84.5053L83.795 82.0424C84.0122 81.7865 84.1233 81.4573 84.1057 81.1221C84.088 80.7869 83.943 80.4712 83.7002 80.2394C83.4574 80.0077 83.1352 79.8775 82.7996 79.8756C82.4639 79.8736 82.1402 79.9999 81.8947 80.2288L79.5422 82.692C79.3015 82.9442 79.1708 83.2818 79.1788 83.6303C79.1868 83.9789 79.3328 84.3101 79.5849 84.5511" fill="#AABCDC"/>
<path d="M79.8924 84.2229C80.0585 84.3811 80.2805 84.467 80.5099 84.4617C80.7392 84.4563 80.957 84.3601 81.1154 84.1943L83.4685 81.7311C83.6231 81.5645 83.7059 81.3438 83.699 81.1166C83.6921 80.8895 83.5961 80.6742 83.4317 80.5172C83.2674 80.3603 83.0478 80.2744 82.8206 80.278C82.5934 80.2816 82.3767 80.3746 82.2175 80.5367L79.8644 82.9999C79.7062 83.1658 79.6204 83.3877 79.6258 83.6169C79.6311 83.846 79.7273 84.0637 79.893 84.222" fill="#F9CD55"/>
<path d="M79.892 84.223C79.7263 84.0646 79.6302 83.847 79.6248 83.6178C79.6194 83.3887 79.7053 83.1667 79.8634 83.0008L81.0312 81.7784L82.282 82.9731L81.1145 84.1952C80.956 84.3611 80.7382 84.4573 80.5089 84.4626C80.2796 84.468 80.0575 84.3821 79.8915 84.2238" fill="#F44D11"/>
<path d="M83.4693 81.7324L82.2837 82.9746L81.6625 82.3814L83.4452 80.5154C83.6092 80.6742 83.7037 80.8913 83.7082 81.1195C83.7128 81.3477 83.6268 81.5685 83.4693 81.7336" fill="#F9CD55"/>
<path d="M81.116 84.1954C80.9581 84.3604 80.7415 84.4563 80.5133 84.4623C80.2851 84.4683 80.0638 84.3839 79.8975 84.2274L81.6617 82.3801L82.2829 82.9733L81.116 84.1954Z" fill="#F44D11"/>
<path fill-rule="evenodd" clip-rule="evenodd" d="M81.2298 81.9674L80.0088 83.2456C79.9847 83.2689 79.9655 83.2969 79.9525 83.3278C79.9394 83.3587 79.9328 83.3919 79.9329 83.4254C79.933 83.4589 79.9399 83.4921 79.9531 83.5229C79.9663 83.5537 79.9857 83.5815 80.0099 83.6047C80.0342 83.6278 80.0629 83.6458 80.0943 83.6576C80.1257 83.6694 80.1591 83.6747 80.1926 83.6732C80.2261 83.6717 80.259 83.6635 80.2892 83.649C80.3195 83.6345 80.3465 83.6141 80.3686 83.5889L81.5899 82.3107L81.2298 81.9674Z" fill="#FFA484"/>
<path fill-rule="evenodd" clip-rule="evenodd" d="M81.7276 81.4448L81.2294 81.9667L81.59 82.31L82.0883 81.788C82.1309 81.7396 82.1531 81.6767 82.1503 81.6123C82.1474 81.548 82.1198 81.4872 82.0731 81.4428C82.0264 81.3984 81.9644 81.3738 81.9 81.3741C81.8355 81.3745 81.7738 81.3998 81.7276 81.4448Z" fill="#FFEBBC"/>
<path fill-rule="evenodd" clip-rule="evenodd" d="M83.5919 84.5477C83.8441 84.7884 84.1816 84.9192 84.5302 84.9113C84.8788 84.9033 85.21 84.7573 85.451 84.5054L87.8035 82.0425C87.924 81.9179 88.0188 81.7708 88.0822 81.6095C88.1457 81.4483 88.1766 81.276 88.1732 81.1028C88.1699 80.9295 88.1323 80.7586 88.0626 80.5999C87.9929 80.4412 87.8925 80.2979 87.7672 80.1782C87.6419 80.0584 87.4942 79.9646 87.3325 79.9022C87.1708 79.8398 86.9984 79.81 86.8251 79.8145C86.6519 79.819 86.4812 79.8577 86.323 79.9284C86.1648 79.9992 86.0221 80.1005 85.9032 80.2265L83.5501 82.6897C83.3094 82.942 83.1786 83.2794 83.1866 83.628C83.1945 83.9766 83.3405 84.3078 83.5924 84.5488" fill="#AABCDC"/>
<path d="M83.903 84.2229C84.069 84.3811 84.291 84.467 84.5203 84.4617C84.7495 84.4563 84.9673 84.3601 85.1257 84.1943L87.4791 81.7311C87.6336 81.5645 87.7164 81.3438 87.7095 81.1166C87.7027 80.8895 87.6067 80.6742 87.4423 80.5172C87.2779 80.3603 87.0584 80.2744 86.8312 80.278C86.6039 80.2816 86.3873 80.3746 86.228 80.5367L83.875 82.9999C83.7168 83.1658 83.631 83.3877 83.6363 83.6169C83.6417 83.846 83.7378 84.0637 83.9036 84.222" fill="#F9CD55"/>
<path d="M83.9026 84.223C83.7369 84.0646 83.6408 83.847 83.6354 83.6178C83.6301 83.3887 83.7159 83.1667 83.874 83.0008L85.0421 81.7784L86.2926 82.9731L85.1257 84.1952C84.9673 84.3611 84.7495 84.4573 84.5202 84.4626C84.2909 84.468 84.0689 84.3821 83.9029 84.2238" fill="#F44D11"/>
<path d="M87.4789 81.7324L86.2933 82.9746L85.6721 82.3814L87.4546 80.5154C87.6187 80.6741 87.7133 80.8913 87.7179 81.1195C87.7224 81.3477 87.6365 81.5684 87.4789 81.7336" fill="#F9CD55"/>
<path d="M85.1262 84.1954C84.9685 84.3603 84.7519 84.4563 84.5238 84.4623C84.2956 84.4683 84.0743 84.3839 83.9081 84.2274L85.6722 82.3801L86.2935 82.9733L85.1262 84.1954Z" fill="#F44D11"/>
<path fill-rule="evenodd" clip-rule="evenodd" d="M85.2401 81.9674L84.0191 83.2456C83.9772 83.2941 83.9556 83.3567 83.9587 83.4207C83.9618 83.4846 83.9893 83.5449 84.0357 83.589C84.082 83.6332 84.1436 83.6578 84.2076 83.6577C84.2716 83.6577 84.3331 83.6331 84.3795 83.5889L85.5999 82.3107L85.2401 81.9674Z" fill="#FFA484"/>
<path fill-rule="evenodd" clip-rule="evenodd" d="M85.7389 81.4448L85.2409 81.9667L85.6013 82.31L86.0998 81.788C86.1424 81.7396 86.1646 81.6767 86.1618 81.6123C86.159 81.548 86.1313 81.4872 86.0847 81.4428C86.038 81.3984 85.9759 81.3738 85.9115 81.3741C85.8471 81.3745 85.7853 81.3998 85.7391 81.4448" fill="#FFEBBC"/>
<path fill-rule="evenodd" clip-rule="evenodd" d="M71.5629 91.6712C71.8151 91.912 72.1526 92.0427 72.5012 92.0348C72.8498 92.0268 73.181 91.8809 73.422 91.6289L75.7745 89.1657C75.8964 89.0415 75.9925 88.8942 76.0571 88.7325C76.1216 88.5709 76.1534 88.398 76.1506 88.2239C76.1478 88.0498 76.1105 87.878 76.0407 87.7185C75.971 87.559 75.8702 87.4149 75.7443 87.2947C75.6184 87.1745 75.4699 87.0804 75.3073 87.018C75.1448 86.9557 74.9715 86.9262 74.7975 86.9314C74.6235 86.9366 74.4522 86.9763 74.2936 87.0482C74.1351 87.1201 73.9924 87.2228 73.8739 87.3503L71.5211 89.8132C71.2804 90.0655 71.1497 90.403 71.1577 90.7516C71.1657 91.1002 71.3117 91.4314 71.5637 91.6724" fill="#AABCDC"/>
<path d="M71.8726 91.3455C72.0386 91.5038 72.2606 91.5897 72.4899 91.5844C72.7192 91.579 72.937 91.4828 73.0954 91.3169L75.4479 88.854C75.5282 88.7722 75.5916 88.6753 75.6342 88.5689C75.6768 88.4625 75.6978 88.3486 75.696 88.234C75.6942 88.1193 75.6697 88.0062 75.6238 87.9012C75.5779 87.7961 75.5115 87.7012 75.4286 87.622C75.3457 87.5428 75.2479 87.4809 75.1409 87.4399C75.0338 87.3988 74.9197 87.3795 74.8051 87.3829C74.6905 87.3864 74.5777 87.4126 74.4733 87.4601C74.369 87.5075 74.2751 87.5752 74.1971 87.6593L71.8443 90.1245C71.6861 90.2904 71.6002 90.5123 71.6056 90.7415C71.6109 90.9706 71.7071 91.1883 71.8729 91.3466" fill="#F9CD55"/>
<path d="M71.8729 91.346C71.7071 91.1877 71.6109 90.97 71.6056 90.7408C71.6002 90.5116 71.6861 90.2897 71.8443 90.1238L73.0116 88.9017L74.2626 90.0964L73.0956 91.3182C72.9373 91.4841 72.7195 91.5804 72.4902 91.5857C72.2609 91.5911 72.0389 91.5052 71.8729 91.3468" fill="#F44D11"/>
<path d="M75.4488 88.8553L74.2626 90.0963L73.6423 89.5028L75.4247 87.6368C75.5886 87.7957 75.6831 88.0129 75.6876 88.2411C75.6921 88.4693 75.6062 88.69 75.4488 88.8553Z" fill="#F9CD55"/>
<path d="M73.0973 91.3187C72.9395 91.4836 72.7229 91.5794 72.4948 91.5854C72.2666 91.5913 72.0453 91.5069 71.8792 91.3504L73.6433 89.5033L74.2637 90.0968L73.0973 91.3187Z" fill="#F44D11"/>
<path fill-rule="evenodd" clip-rule="evenodd" d="M73.2104 89.0898L71.9894 90.3683C71.9649 90.3915 71.9454 90.4194 71.9321 90.4504C71.9187 90.4814 71.9118 90.5147 71.9117 90.5485C71.9117 90.5822 71.9185 90.6156 71.9317 90.6466C71.945 90.6776 71.9644 90.7056 71.9888 90.7289C72.0131 90.7522 72.042 90.7703 72.0736 90.782C72.1052 90.7938 72.1389 90.7991 72.1726 90.7974C72.2062 90.7958 72.2392 90.7874 72.2696 90.7726C72.2999 90.7578 72.3269 90.737 72.3489 90.7115L73.5705 89.433L73.2104 89.0898Z" fill="#FFA484"/>
<path fill-rule="evenodd" clip-rule="evenodd" d="M73.7083 88.5673L73.2101 89.0896L73.5702 89.4328L74.069 88.9111C74.1099 88.8625 74.1307 88.8002 74.1272 88.7367C74.1236 88.6733 74.0961 88.6137 74.0501 88.5699C74.0041 88.5261 73.9431 88.5015 73.8796 88.5012C73.8161 88.5008 73.7548 88.5247 73.7083 88.5679" fill="#FFEBBC"/>
<path fill-rule="evenodd" clip-rule="evenodd" d="M75.5725 91.6705C75.8247 91.9113 76.1622 92.042 76.5108 92.0341C76.8594 92.0262 77.1906 91.8802 77.4316 91.6282L79.7846 89.165C80.0079 88.9098 80.124 88.5783 80.1088 88.2396C80.0936 87.9009 79.9482 87.5812 79.703 87.347C79.4578 87.1129 79.1316 86.9825 78.7926 86.983C78.4535 86.9835 78.1278 87.1148 77.8832 87.3497L75.5307 89.8126C75.29 90.0648 75.1593 90.4023 75.1673 90.7509C75.1753 91.0995 75.3213 91.4307 75.5733 91.6717" fill="#AABCDC"/>
<path d="M75.8838 91.3464C76.0497 91.5047 76.2718 91.5906 76.5011 91.5853C76.7304 91.5799 76.9482 91.4837 77.1065 91.3178L79.459 88.8549C79.5375 88.7728 79.599 88.676 79.64 88.5701C79.6811 88.4642 79.7009 88.3513 79.6983 88.2378C79.6957 88.1243 79.6708 88.0124 79.6249 87.9085C79.5791 87.8046 79.5132 87.7107 79.4311 87.6323C79.349 87.5538 79.2523 87.4923 79.1464 87.4513C79.0405 87.4102 78.9276 87.3904 78.8141 87.393C78.7005 87.3956 78.5886 87.4205 78.4847 87.4664C78.3808 87.5122 78.287 87.5781 78.2085 87.6602L75.8555 90.1254C75.777 90.2074 75.7154 90.3041 75.6743 90.41C75.6333 90.5159 75.6135 90.6288 75.6161 90.7424C75.6188 90.8559 75.6438 90.9678 75.6898 91.0716C75.7358 91.1755 75.8018 91.2692 75.8841 91.3475" fill="#F9CD55"/>
<path d="M75.8832 91.346C75.8009 91.2677 75.7349 91.1739 75.6889 91.0701C75.6429 90.9663 75.6179 90.8544 75.6152 90.7408C75.6126 90.6273 75.6323 90.5143 75.6734 90.4085C75.7145 90.3026 75.776 90.2059 75.8546 90.1238L77.0218 88.9017L78.2731 90.0964L77.1056 91.3182C76.9472 91.4841 76.7295 91.5804 76.5002 91.5857C76.2709 91.5911 76.0488 91.5052 75.8829 91.3468" fill="#F44D11"/>
<path d="M79.4597 88.8546L78.2741 90.0956L77.6537 89.5022L79.4348 87.6359C79.5988 87.7947 79.6933 88.0119 79.6978 88.2402C79.7023 88.4684 79.6164 88.6892 79.4588 88.8543" fill="#F9CD55"/>
<path d="M77.1069 91.3187C76.9491 91.4836 76.7326 91.5794 76.5044 91.5854C76.2762 91.5913 76.055 91.5069 75.8888 91.3504L77.6535 89.5033L78.2739 90.0968L77.1069 91.3187Z" fill="#F44D11"/>
<path fill-rule="evenodd" clip-rule="evenodd" d="M77.2211 89.0898L75.9995 90.3683C75.9751 90.3916 75.9556 90.4196 75.9424 90.4506C75.9291 90.4816 75.9223 90.5149 75.9223 90.5487C75.9223 90.5824 75.9292 90.6157 75.9425 90.6467C75.9558 90.6777 75.9752 90.7057 75.9996 90.7289C76.024 90.7522 76.0529 90.7703 76.0845 90.782C76.1161 90.7938 76.1498 90.799 76.1835 90.7974C76.2171 90.7958 76.2501 90.7873 76.2805 90.7725C76.3108 90.7578 76.3378 90.737 76.3598 90.7115L77.5811 89.433L77.2211 89.0898Z" fill="#FFA484"/>
<path fill-rule="evenodd" clip-rule="evenodd" d="M77.718 88.5673L77.2197 89.0896L77.5798 89.4328L78.0786 88.9111C78.1195 88.8625 78.1403 88.8002 78.1368 88.7367C78.1333 88.6733 78.1057 88.6137 78.0597 88.5699C78.0137 88.5261 77.9527 88.5015 77.8892 88.5012C77.8257 88.5008 77.7645 88.5247 77.718 88.5679" fill="#FFEBBC"/>
<path fill-rule="evenodd" clip-rule="evenodd" d="M79.5834 91.6706C79.8357 91.9113 80.1732 92.042 80.5217 92.0341C80.8703 92.0262 81.2015 91.8802 81.4425 91.6282L83.795 89.165C84.0267 88.9114 84.1499 88.5772 84.1382 88.2339C84.1265 87.8906 83.9809 87.5655 83.7325 87.3282C83.4841 87.091 83.1527 86.9604 82.8092 86.9644C82.4657 86.9685 82.1374 87.1069 81.8947 87.35L79.5422 89.8129C79.3015 90.0651 79.1708 90.4027 79.1788 90.7512C79.1868 91.0998 79.3328 91.431 79.5849 91.672" fill="#AABCDC"/>
<path d="M79.8922 91.3466C80.0582 91.5049 80.2803 91.5909 80.5096 91.5855C80.739 91.5801 80.9568 91.4839 81.1152 91.318L83.4683 88.8551C83.6267 88.6892 83.7127 88.4671 83.7075 88.2378C83.7022 88.0085 83.606 87.7906 83.4401 87.6322C83.2742 87.4738 83.0522 87.3877 82.8228 87.393C82.5935 87.3983 82.3757 87.4945 82.2172 87.6604L79.8653 90.1256C79.7072 90.2915 79.6213 90.5134 79.6267 90.7426C79.6321 90.9717 79.7282 91.1894 79.8939 91.3477" fill="#F9CD55"/>
<path d="M79.892 91.346C79.7263 91.1876 79.6302 90.97 79.6248 90.7408C79.6194 90.5116 79.7053 90.2897 79.8634 90.1238L81.0312 88.9017L82.282 90.0964L81.1145 91.3182C80.9561 91.4842 80.7382 91.5804 80.5089 91.5857C80.2795 91.5911 80.0574 91.5052 79.8915 91.3468" fill="#F44D11"/>
<path d="M83.4693 88.8553L82.2837 90.0963L81.6625 89.5028L83.4452 87.6368C83.6092 87.7956 83.7038 88.0128 83.7083 88.2411C83.7128 88.4693 83.6269 88.6901 83.4693 88.8553Z" fill="#F9CD55"/>
<path d="M81.116 91.3187C80.9581 91.4836 80.7415 91.5795 80.5133 91.5854C80.2851 91.5914 80.0638 91.5069 79.8975 91.3504L81.6617 89.5033L82.2829 90.0968L81.116 91.3187Z" fill="#F44D11"/>
<path fill-rule="evenodd" clip-rule="evenodd" d="M81.2298 89.0898L80.0088 90.3683C79.9847 90.3916 79.9655 90.4195 79.9525 90.4504C79.9394 90.4813 79.9328 90.5145 79.9329 90.548C79.933 90.5816 79.9399 90.6147 79.9531 90.6455C79.9663 90.6764 79.9857 90.7042 80.0099 90.7273C80.0342 90.7505 80.0629 90.7685 80.0943 90.7802C80.1257 90.792 80.1591 90.7973 80.1926 90.7958C80.2261 90.7944 80.259 90.7861 80.2892 90.7717C80.3195 90.7572 80.3465 90.7367 80.3686 90.7115L81.5899 89.433L81.2298 89.0898Z" fill="#FFA484"/>
<path fill-rule="evenodd" clip-rule="evenodd" d="M81.7276 88.5673L81.2294 89.0896L81.59 89.4328L82.0883 88.9111C82.1292 88.8625 82.15 88.8002 82.1464 88.7367C82.1429 88.6733 82.1153 88.6137 82.0693 88.5699C82.0233 88.5261 81.9624 88.5015 81.8989 88.5012C81.8354 88.5008 81.7741 88.5247 81.7276 88.5679" fill="#FFEBBC"/>
<path fill-rule="evenodd" clip-rule="evenodd" d="M83.5919 91.6702C83.8441 91.9109 84.1816 92.0416 84.5302 92.0337C84.8788 92.0258 85.21 91.8798 85.451 91.6278L87.8035 89.1646C87.9227 89.0399 88.0161 88.8928 88.0785 88.7319C88.1409 88.571 88.171 88.3994 88.167 88.2269C88.1631 88.0544 88.1252 87.8844 88.0555 87.7265C87.9859 87.5686 87.8858 87.426 87.761 87.3068C87.6362 87.1876 87.4892 87.0942 87.3283 87.0318C87.1674 86.9694 86.9958 86.9393 86.8233 86.9433C86.6508 86.9472 86.4807 86.9851 86.3229 87.0548C86.165 87.1244 86.0224 87.2245 85.9032 87.3493L83.5501 89.8122C83.3094 90.0644 83.1786 90.4019 83.1866 90.7505C83.1945 91.0991 83.3405 91.4303 83.5924 91.6713" fill="#AABCDC"/>
<path d="M83.903 91.3466C84.0689 91.5049 84.291 91.5908 84.5203 91.5855C84.7496 91.5801 84.9673 91.4839 85.1257 91.318L87.4791 88.8551C87.6375 88.6892 87.7235 88.4671 87.7182 88.2378C87.713 88.0085 87.6168 87.7906 87.4509 87.6322C87.285 87.4738 87.063 87.3877 86.8336 87.393C86.6043 87.3983 86.3865 87.4945 86.228 87.6604L83.875 90.1256C83.7168 90.2915 83.631 90.5134 83.6363 90.7426C83.6417 90.9717 83.7378 91.1894 83.9036 91.3477" fill="#F9CD55"/>
<path d="M83.9026 91.346C83.7369 91.1876 83.6408 90.97 83.6354 90.7408C83.6301 90.5116 83.7159 90.2897 83.874 90.1238L85.0421 88.9017L86.2926 90.0964L85.1257 91.3182C84.9673 91.4841 84.7495 91.5804 84.5202 91.5857C84.2909 91.5911 84.0689 91.5052 83.9029 91.3468" fill="#F44D11"/>
<path d="M87.4789 88.8553L86.2933 90.0963L85.6721 89.5028L87.4546 87.6368C87.6186 87.7956 87.7132 88.0128 87.7178 88.241C87.7223 88.4693 87.6365 88.6901 87.4789 88.8553Z" fill="#F9CD55"/>
<path d="M85.1262 91.3187C84.9684 91.4836 84.7519 91.5794 84.5237 91.5854C84.2955 91.5913 84.0743 91.5069 83.9081 91.3504L85.6722 89.5033L86.2935 90.0968L85.1262 91.3187Z" fill="#F44D11"/>
<path fill-rule="evenodd" clip-rule="evenodd" d="M85.2407 89.0898L84.0197 90.3683C83.9953 90.3916 83.9758 90.4196 83.9626 90.4506C83.9493 90.4816 83.9425 90.5149 83.9425 90.5487C83.9425 90.5824 83.9494 90.6157 83.9627 90.6467C83.976 90.6777 83.9954 90.7057 84.0198 90.7289C84.0442 90.7522 84.0731 90.7703 84.1047 90.782C84.1363 90.7938 84.17 90.799 84.2037 90.7974C84.2373 90.7958 84.2703 90.7873 84.3007 90.7725C84.331 90.7578 84.358 90.737 84.38 90.7115L85.6005 89.433L85.2407 89.0898Z" fill="#FFA484"/>
<path fill-rule="evenodd" clip-rule="evenodd" d="M85.7389 88.5677L85.2409 89.0899L85.6013 89.4332L86.099 88.912C86.1398 88.8634 86.1606 88.8011 86.1571 88.7377C86.1536 88.6743 86.126 88.6146 86.08 88.5708C86.034 88.5271 85.9731 88.5025 85.9096 88.5021C85.8461 88.5017 85.7848 88.5256 85.7383 88.5688" fill="#FFEBBC"/>
<path fill-rule="evenodd" clip-rule="evenodd" d="M69.5497 83.6871V88.1613C69.5497 88.2046 69.5669 88.2461 69.5976 88.2768C69.6282 88.3074 69.6697 88.3246 69.7131 88.3246C69.7564 88.3246 69.7979 88.3074 69.8285 88.2768C69.8592 88.2461 69.8764 88.2046 69.8764 88.1613V83.6871C69.8764 83.6438 69.8592 83.6023 69.8285 83.5716C69.7979 83.541 69.7564 83.5238 69.7131 83.5238C69.6697 83.5238 69.6282 83.541 69.5976 83.5716C69.5669 83.6023 69.5497 83.6438 69.5497 83.6871Z" fill="#E1E9F6"/>
<path fill-rule="evenodd" clip-rule="evenodd" d="M89.7823 83.6874V88.1616C89.7823 88.205 89.7996 88.2466 89.8303 88.2773C89.8609 88.3079 89.9026 88.3252 89.9459 88.3252C89.9893 88.3252 90.031 88.3079 90.0616 88.2773C90.0923 88.2466 90.1096 88.205 90.1096 88.1616V83.6874C90.1096 83.644 90.0923 83.6024 90.0616 83.5717C90.031 83.541 89.9893 83.5238 89.9459 83.5238C89.9026 83.5238 89.8609 83.541 89.8303 83.5717C89.7996 83.6024 89.7823 83.644 89.7823 83.6874Z" fill="#E1E9F6"/>
<path d="M52.5233 52.9779H42.3159V54.1285H52.5233V52.9779Z" fill="#B9CAE8"/>
<path fill-rule="evenodd" clip-rule="evenodd" d="M42.2957 52.7972H41.1153V54.3088H42.2957C42.3707 54.3086 42.4427 54.2787 42.4958 54.2256C42.5489 54.1726 42.5788 54.1007 42.5791 54.0256V53.0804C42.5789 53.0053 42.549 52.9333 42.4958 52.8803C42.4427 52.8272 42.3708 52.7973 42.2957 52.7972Z" fill="#B9CAE8"/>
<path fill-rule="evenodd" clip-rule="evenodd" d="M46.5606 61.6128H54.8594C57.0154 61.6128 58.7804 63.4574 58.7804 65.7117V88.7036C58.7804 90.9585 57.0154 92.8022 54.8594 92.8022H46.5606C44.4038 92.8022 42.639 90.9585 42.639 88.7036V65.7117C42.639 63.4574 44.4038 61.6128 46.5606 61.6128Z" fill="#4CB5FF"/>
<path fill-rule="evenodd" clip-rule="evenodd" d="M46.5606 61.6128H51.7221C53.879 61.6128 55.6437 63.4574 55.6437 65.7117V88.7036C55.6437 90.9585 53.879 92.8022 51.7221 92.8022H46.5606C44.4038 92.8022 42.639 90.9585 42.639 88.7036V65.7117C42.639 63.4574 44.4038 61.6128 46.5606 61.6128Z" fill="#83C9FF"/>
<path d="M54.1737 55.7311H47.2466V57.0817H54.1737V55.7311Z" fill="#B9CAE8"/>
<path fill-rule="evenodd" clip-rule="evenodd" d="M46.1752 61.6127H55.2443C55.6012 61.6116 55.9432 61.4693 56.1956 61.2169C56.448 60.9645 56.5902 60.6225 56.5912 60.2655V58.4287C56.5902 58.0718 56.448 57.7298 56.1956 57.4773C55.9432 57.2249 55.6012 57.0826 55.2443 57.0816H46.1752C45.8182 57.0826 45.4761 57.2248 45.2237 57.4772C44.9712 57.7296 44.8289 58.0717 44.8278 58.4287V60.2655C44.8289 60.6225 44.9712 60.9646 45.2237 61.217C45.4761 61.4695 45.8182 61.6117 46.1752 61.6127Z" fill="#B9CAE8"/>
<path fill-rule="evenodd" clip-rule="evenodd" d="M46.5319 61.6127H53.568C53.9249 61.6117 54.267 61.4694 54.5194 61.217C54.7717 60.9646 54.9139 60.6225 54.9148 60.2655V58.4287C54.9139 58.0718 54.7717 57.7297 54.5194 57.4773C54.267 57.2248 53.9249 57.0826 53.568 57.0816H46.5319C46.1749 57.0825 45.8328 57.2247 45.5803 57.4771C45.3278 57.7296 45.1855 58.0717 45.1845 58.4287V60.2655C45.1855 60.6226 45.3278 60.9647 45.5803 61.2171C45.8328 61.4696 46.1749 61.6118 46.5319 61.6127Z" fill="#E3ECFF"/>
<path d="M58.7811 70.217H42.9846V84.5945H58.7811V70.217Z" fill="#E8EFFF"/>
<path d="M58.7818 70.217H55.645V84.5945H58.7818V70.217Z" fill="#C8D9FA"/>
<path fill-rule="evenodd" clip-rule="evenodd" d="M45.2308 66.6023C45.4503 66.6027 45.6606 66.69 45.8158 66.8451C45.971 67.0003 46.0584 67.2106 46.0588 67.43V70.2184H44.4031V67.43C44.4035 67.2106 44.4909 67.0004 44.646 66.8452C44.8011 66.6901 45.0114 66.6027 45.2308 66.6023Z" fill="#BCE1FF"/>
<path fill-rule="evenodd" clip-rule="evenodd" d="M46.0579 70.2179V79.2804C46.0539 79.4973 45.9649 79.704 45.8101 79.8559C45.6553 80.0079 45.447 80.093 45.23 80.093C45.0131 80.093 44.8048 80.0079 44.65 79.8559C44.4952 79.704 44.4062 79.4973 44.4022 79.2804V70.2179H46.0579Z" fill="white"/>
<path fill-rule="evenodd" clip-rule="evenodd" d="M47.4251 56.125H53.9935C54.5904 56.125 55.2356 55.6153 55.0803 55.0381L54.405 52.5563C54.248 51.9803 53.9162 51.4709 53.3182 51.4709H48.044C47.4471 51.4709 47.103 51.9771 46.9571 52.5563L46.3376 55.0381C46.1946 55.6176 46.8264 56.125 47.4245 56.125" fill="#B9CAE8"/>
<path fill-rule="evenodd" clip-rule="evenodd" d="M47.7718 56.125H52.4191C53.016 56.125 53.6615 55.6153 53.5059 55.0381L52.8306 52.5563C52.6739 51.9803 52.3421 51.4709 51.7438 51.4709H48.3896C47.7927 51.4709 47.4486 51.9771 47.3028 52.5563L46.685 55.0392C46.542 55.6187 47.1738 56.1261 47.7718 56.1261" fill="#E3ECFF"/>
<path d="M51.8709 53.2452H42.5785V53.5898H51.8709V53.2452Z" fill="#E3ECFF"/>
<path fill-rule="evenodd" clip-rule="evenodd" d="M62.9713 70.2837H74.0659C75.5046 70.2837 76.6813 72.2409 76.6813 73.6796V90.2586C76.6813 91.6973 75.5046 92.874 74.0659 92.874H62.9713C61.5329 92.874 60.356 91.6973 60.356 90.2586V73.679C60.356 72.2404 61.5329 70.2831 62.9713 70.2831" fill="#5074B0"/>
<path fill-rule="evenodd" clip-rule="evenodd" d="M62.9713 70.2837H71.1554C72.0973 71.1103 73.012 72.5026 73.064 73.7849C73.0855 74.302 73.064 90.3321 73.064 90.3321C73.064 90.3321 72.9167 91.6292 71.8092 92.61C71.7 92.7064 71.599 92.7942 71.5049 92.874H62.9713C61.5329 92.874 60.356 91.6973 60.356 90.2586V73.679C60.356 72.2404 61.5329 70.2831 62.9713 70.2831" fill="#6C8AC5"/>
<path fill-rule="evenodd" clip-rule="evenodd" d="M62.9713 70.2831H71.1554C71.2449 70.3621 71.335 70.4459 71.4234 70.5343H62.0809C62.3592 70.3755 62.659 70.2831 62.9713 70.2831Z" fill="#5074B0"/>
<path fill-rule="evenodd" clip-rule="evenodd" d="M62.3074 70.2829H74.7309C74.809 70.2827 74.8838 70.2516 74.9391 70.1965C74.9943 70.1414 75.0256 70.0666 75.0261 69.9886V69.3548C75.0259 69.2765 74.9948 69.2015 74.9394 69.1461C74.8841 69.0907 74.8091 69.0595 74.7309 69.0593H62.3074C62.2291 69.0595 62.1541 69.0907 62.0987 69.1461C62.0434 69.2014 62.0122 69.2765 62.012 69.3548V69.9886C62.0121 70.0669 62.0433 70.1419 62.0987 70.1973C62.154 70.2527 62.2291 70.2839 62.3074 70.284" fill="#E3ECFF"/>
<path fill-rule="evenodd" clip-rule="evenodd" d="M62.5699 69.06H74.4659V65.9595C74.4653 65.736 74.3763 65.5218 74.2182 65.3637C74.0602 65.2056 73.846 65.1165 73.6225 65.1158H63.2658C63.0811 65.1164 62.9042 65.1901 62.7738 65.3209C62.6433 65.4516 62.57 65.6287 62.5699 65.8134V69.06Z" fill="#B9CAE8"/>
<path fill-rule="evenodd" clip-rule="evenodd" d="M72.0828 65.1158H63.2658C62.8834 65.1158 62.5699 65.5071 62.5699 65.9856V68.542H63.3118V66.168C63.3118 65.9736 63.4391 65.8145 63.595 65.8145C63.7509 65.8145 63.8776 65.9736 63.8776 66.168V68.542H64.5145V66.168C64.5145 65.9736 64.6415 65.8145 64.7971 65.8145C64.9527 65.8145 65.0803 65.9736 65.0803 66.168V68.542H65.7169V66.168C65.7169 65.9736 65.8442 65.8145 65.9998 65.8145C66.1554 65.8145 66.2827 65.9736 66.2827 66.168V68.542H66.9194V66.168C66.9194 65.9736 67.0466 65.8145 67.2025 65.8145C67.3584 65.8145 67.4854 65.9736 67.4854 66.168V68.542H68.1221V66.168C68.1221 65.9736 68.2493 65.8145 68.4049 65.8145C68.5605 65.8145 68.6878 65.9736 68.6878 66.168V68.542H69.3245V66.168C69.3245 65.9736 69.452 65.8145 69.6073 65.8145C69.7627 65.8145 69.8905 65.9736 69.8905 66.168V68.542H70.5272V66.168C70.5272 65.9736 70.6542 65.8145 70.8101 65.8145C70.9659 65.8145 71.0926 65.9736 71.0926 66.168V68.542H72.0828V65.1158Z" fill="#E3ECFF"/>
<path d="M76.6816 75.3546H60.356V89.7398H76.6816V75.3546Z" fill="#BA3F0D"/>
<path fill-rule="evenodd" clip-rule="evenodd" d="M60.3038 75.3546H73.0722C73.078 78.9158 73.0682 87.4274 73.0651 89.7398H60.3038V75.3546Z" fill="#EC6632"/>
<path fill-rule="evenodd" clip-rule="evenodd" d="M63.7725 72.3499C64.0908 72.3511 64.3956 72.4781 64.6206 72.7031C64.8457 72.9281 64.9726 73.2329 64.9738 73.5512V83.4651C64.9738 83.784 64.8471 84.0899 64.6216 84.3154C64.3961 84.5409 64.0903 84.6675 63.7714 84.6675C63.4525 84.6675 63.1466 84.5409 62.9211 84.3154C62.6957 84.0899 62.569 83.784 62.569 83.4651V73.5517C62.5702 73.2335 62.6971 72.9287 62.9221 72.7036C63.1472 72.4786 63.452 72.3517 63.7702 72.3505" fill="#94ADD9"/>
<path fill-rule="evenodd" clip-rule="evenodd" d="M64.9747 75.3546V83.4649C64.9747 83.7838 64.848 84.0896 64.6225 84.3151C64.397 84.5406 64.0912 84.6673 63.7723 84.6673C63.4534 84.6673 63.1476 84.5406 62.9221 84.3151C62.6966 84.0896 62.5699 83.7838 62.5699 83.4649V75.3546H64.9747Z" fill="#FF8B61"/>
<path d="M73.0674 86.2993H60.3038V88.3678H73.0674V86.2993Z" fill="#6C8AC5"/>
<path d="M76.6816 86.2993H73.0667V88.4024H76.6816V86.2993Z" fill="#5074B0"/>
<path fill-rule="evenodd" clip-rule="evenodd" d="M31.196 70.0177H40.0674V91.1481C40.0663 91.536 39.9117 91.9077 39.6374 92.182C39.3631 92.4562 38.9914 92.6108 38.6036 92.612H32.8168C32.3874 92.6107 31.9759 92.4396 31.6722 92.136C31.3685 91.8323 31.1973 91.4208 31.196 90.9914V70.0177Z" fill="#FF671B"/>
<path fill-rule="evenodd" clip-rule="evenodd" d="M31.196 70.0177H39.2045V90.5972C39.2045 91.7056 38.5466 92.612 37.7406 92.612H32.8168C31.9256 92.612 31.196 91.6083 31.196 90.381V70.0177Z" fill="#FF8045"/>
<path d="M40.0671 69.5641H31.196V70.3086H40.0671V69.5641Z" fill="#FF671B"/>
<path fill-rule="evenodd" clip-rule="evenodd" d="M30.8529 69.5653H40.411C40.47 69.567 40.5272 69.5452 40.5702 69.5047C40.6131 69.4642 40.6381 69.4083 40.6399 69.3494V68.886C40.6381 68.827 40.6131 68.7712 40.5702 68.7307C40.5272 68.6902 40.47 68.6684 40.411 68.6701H30.8529C30.7939 68.6684 30.7367 68.6902 30.6938 68.7307C30.6509 68.7712 30.6258 68.827 30.6241 68.886V69.3494C30.6258 69.4083 30.6509 69.4642 30.6938 69.5047C30.7367 69.5452 30.7939 69.567 30.8529 69.5653Z" fill="#B9CAE8"/>
<path fill-rule="evenodd" clip-rule="evenodd" d="M31.0823 68.6705H40.3876V65.8389C40.3876 65.3879 40.0839 65.0189 39.7129 65.0189H31.6404C31.3343 65.0189 31.0838 65.1465 31.0838 65.6956L31.0823 68.6705Z" fill="#E3ECFF"/>
<path d="M40.0674 76.869H31.196V85.7925H40.0674V76.869Z" fill="#C8D9F5"/>
<path d="M39.2039 76.869H31.454V85.7925H39.2039V76.869Z" fill="#DFE8F7"/>
<path fill-rule="evenodd" clip-rule="evenodd" d="M33.646 85.6163V87.7451C33.646 88.2259 33.3491 88.6192 32.9859 88.6192C32.6226 88.6192 32.3257 88.2259 32.3257 87.7451V74.6192C32.3257 74.1387 32.6229 73.7451 32.9859 73.7451C33.3488 73.7451 33.646 74.1387 33.646 74.6192V85.6163Z" fill="#FB9E72"/>
<path fill-rule="evenodd" clip-rule="evenodd" d="M32.6128 66.0625C32.6541 66.0615 32.6941 66.0769 32.7241 66.1052C32.7541 66.1335 32.7717 66.1726 32.773 66.2138V67.8378C32.7706 67.8785 32.7527 67.9167 32.723 67.9447C32.6934 67.9726 32.6542 67.9882 32.6134 67.9882C32.5727 67.9882 32.5334 67.9726 32.5038 67.9447C32.4741 67.9167 32.4562 67.8785 32.4538 67.8378V66.2138C32.4549 66.1725 32.4723 66.1334 32.5022 66.1049C32.5321 66.0763 32.5721 66.0608 32.6134 66.0617M33.3679 66.0617C33.4093 66.0607 33.4494 66.0761 33.4795 66.1047C33.5095 66.1332 33.527 66.1724 33.5281 66.2138V67.8378C33.5257 67.8785 33.5078 67.9167 33.4781 67.9447C33.4485 67.9726 33.4092 67.9882 33.3685 67.9882C33.3277 67.9882 33.2885 67.9726 33.2589 67.9447C33.2292 67.9167 33.2113 67.8785 33.2089 67.8378V66.2138C33.2102 66.1728 33.2277 66.1339 33.2574 66.1056C33.2872 66.0773 33.3269 66.0618 33.3679 66.0625V66.0617ZM33.3673 66.0625C33.4086 66.0617 33.4486 66.0772 33.4785 66.1057C33.5084 66.1342 33.5258 66.1734 33.5269 66.2147V67.8387C33.5245 67.8794 33.5066 67.9176 33.477 67.9455C33.4473 67.9735 33.4081 67.989 33.3673 67.989C33.3266 67.989 33.2874 67.9735 33.2577 67.9455C33.2281 67.9176 33.2102 67.8794 33.2077 67.8387V66.2138C33.1877 66.0925 33.2166 65.9682 33.2882 65.8683C33.3598 65.7683 33.4681 65.7009 33.5894 65.6808C33.7107 65.6608 33.835 65.6897 33.935 65.7613C34.0349 65.8329 34.1024 65.9412 34.1224 66.0625H33.3673ZM34.1219 66.0625C34.1632 66.0617 34.2031 66.0772 34.233 66.1057C34.2629 66.1342 34.2803 66.1734 34.2815 66.2147V67.8387C34.2803 67.88 34.2629 67.9192 34.233 67.9478C34.2032 67.9763 34.1632 67.9919 34.1219 67.9911C34.0806 67.9919 34.0406 67.9763 34.0108 67.9478C33.9809 67.9192 33.9636 67.88 33.9626 67.8387V66.2138C33.9425 66.0926 33.9714 65.9683 34.043 65.8684C34.1145 65.7685 34.2228 65.701 34.3441 65.681C34.4654 65.6609 34.5896 65.6898 34.6895 65.7614C34.7895 65.833 34.8569 65.9413 34.8769 66.0625H34.1219ZM34.8764 66.0625C34.9177 66.0617 34.9576 66.0772 34.9875 66.1057C35.0174 66.1342 35.0348 66.1734 35.036 66.2147V67.8387C35.0335 67.8794 35.0157 67.9176 34.986 67.9455C34.9563 67.9735 34.9171 67.989 34.8764 67.989C34.8356 67.989 34.7964 67.9735 34.7668 67.9455C34.7371 67.9176 34.7192 67.8794 34.7168 67.8387V66.2138C34.6967 66.0925 34.7257 65.9682 34.7972 65.8683C34.8688 65.7683 34.9772 65.7009 35.0985 65.6808C35.2198 65.6608 35.3441 65.6897 35.444 65.7613C35.544 65.8329 35.6114 65.9412 35.6315 66.0625H34.8764ZM35.6309 66.0625C35.651 65.9412 35.7184 65.8329 35.8183 65.7613C35.9183 65.6897 36.0426 65.6608 36.1639 65.6808C36.2852 65.7009 36.3935 65.7683 36.4651 65.8683C36.5367 65.9682 36.5656 66.0925 36.5456 66.2138V67.8378C36.5438 67.879 36.5263 67.9178 36.4966 67.9463C36.4668 67.9748 36.4273 67.9907 36.3861 67.9907C36.345 67.9907 36.3054 67.9748 36.2757 67.9463C36.246 67.9178 36.2284 67.879 36.2267 67.8378V66.2138C36.2279 66.1727 36.2454 66.1338 36.2752 66.1054C36.305 66.0771 36.3448 66.0617 36.386 66.0625H35.6309ZM36.3854 66.0625C36.4267 66.0617 36.4667 66.0772 36.4966 66.1057C36.5265 66.1342 36.5439 66.1734 36.545 66.2147V67.8387C36.5439 67.88 36.5265 67.9192 36.4966 67.9478C36.4667 67.9763 36.4267 67.9919 36.3854 67.9911C36.3441 67.9919 36.3042 67.9763 36.2743 67.9478C36.2445 67.9192 36.2271 67.88 36.2261 67.8387V66.2138C36.206 66.0926 36.235 65.9683 36.3065 65.8684C36.3781 65.7685 36.4864 65.701 36.6076 65.681C36.7289 65.6609 36.8532 65.6898 36.9531 65.7614C37.053 65.833 37.1204 65.9413 37.1405 66.0625H36.3854ZM37.1399 66.0625C37.1812 66.0617 37.2212 66.0772 37.2511 66.1057C37.281 66.1342 37.2984 66.1734 37.2995 66.2147V67.8387C37.2971 67.8794 37.2792 67.9176 37.2495 67.9455C37.2199 67.9735 37.1807 67.989 37.1399 67.989C37.0992 67.989 37.06 67.9735 37.0303 67.9455C37.0006 67.9176 36.9828 67.8794 36.9803 67.8387V66.2138C36.9603 66.0925 36.9892 65.9682 37.0608 65.8683C37.1324 65.7683 37.2407 65.7009 37.362 65.6808C37.4833 65.6608 37.6076 65.6897 37.7076 65.7613C37.8075 65.8329 37.8749 65.9412 37.895 66.0625H37.1399ZM37.8944 66.0625C37.9357 66.0617 37.9757 66.0772 38.0056 66.1057C38.0355 66.1342 38.0529 66.1734 38.054 66.2147V67.8387C38.0523 67.8798 38.0347 67.9187 38.005 67.9472C37.9753 67.9756 37.9357 67.9915 37.8946 67.9915C37.8534 67.9915 37.8139 67.9756 37.7841 67.9472C37.7544 67.9187 37.7369 67.8798 37.7351 67.8387V66.2138C37.7151 66.0926 37.744 65.9683 37.8155 65.8684C37.8871 65.7685 37.9954 65.701 38.1167 65.681C38.2379 65.6609 38.3622 65.6898 38.4621 65.7614C38.562 65.833 38.6295 65.9413 38.6495 66.0625H37.8944ZM38.6489 66.0625C38.6589 66.0025 38.6805 65.945 38.7127 65.8934C38.7448 65.8417 38.7868 65.7969 38.8363 65.7615C38.8858 65.7261 38.9417 65.7008 39.001 65.687C39.0602 65.6732 39.1216 65.6712 39.1817 65.6811C39.2417 65.6911 39.2992 65.7127 39.3508 65.7449C39.4025 65.777 39.4473 65.819 39.4827 65.8685C39.5181 65.918 39.5434 65.9739 39.5572 66.0332C39.571 66.0924 39.573 66.1538 39.5631 66.2138V67.8378C39.5613 67.879 39.5438 67.9178 39.514 67.9463C39.4843 67.9748 39.4448 67.9907 39.4036 67.9907C39.3624 67.9907 39.3229 67.9748 39.2932 67.9463C39.2635 67.9178 39.2459 67.879 39.2442 67.8378V66.2138C39.2454 66.1726 39.2629 66.1336 39.2929 66.1052C39.3229 66.0769 39.3628 66.0615 39.404 66.0625H38.6489ZM31.1038 66.0625C31.1451 66.0617 31.185 66.0772 31.2149 66.1057C31.2447 66.1342 31.2621 66.1734 31.2631 66.2147V67.8387C31.2614 67.8798 31.2438 67.9187 31.2141 67.9472C31.1844 67.9756 31.1448 67.9915 31.1037 67.9915C31.0625 67.9915 31.0229 67.9756 30.9932 67.9472C30.9635 67.9187 30.9459 67.8798 30.9442 67.8387V66.2138C30.9241 66.0925 30.9531 65.9682 31.0247 65.8683C31.0962 65.7683 31.2046 65.7009 31.3259 65.6808C31.4472 65.6608 31.5715 65.6897 31.6714 65.7613C31.7714 65.8329 31.8388 65.9412 31.8589 66.0625H31.1038Z" fill="#B9CAE8"/>
<path d="M33.646 76.869H32.3257V85.7925H33.646V76.869Z" fill="white"/>
<path d="M40.3876 68.3533H30.8755V68.6691H40.3876V68.3533Z" fill="#B9CAE8"/>
<path fill-rule="evenodd" clip-rule="evenodd" d="M19.8268 84.1362C19.8137 84.134 19.8007 84.1312 19.7879 84.1276H19.7839L19.7585 84.1202V84.1173H19.7516L19.729 84.109H19.7247C19.692 84.0958 19.6605 84.0797 19.6306 84.061H19.6283C19.6189 84.0547 19.6095 84.0487 19.5997 84.0418C19.5796 84.0268 19.5605 84.0106 19.5425 83.9932L19.5236 83.974C19.5099 83.9593 19.4969 83.944 19.4847 83.928V83.9245H19.4822C19.4727 83.9119 19.4636 83.8985 19.4553 83.8851C19.4519 83.8799 19.4487 83.8745 19.4456 83.8688V83.8599H19.4436C19.4241 83.8259 19.4083 83.79 19.3964 83.7526C19.3926 83.7415 19.3895 83.73 19.3866 83.7189V83.7132C19.3835 83.6991 19.3806 83.6846 19.3783 83.6705V83.654H19.3709C19.3678 83.6304 19.3663 83.6067 19.3663 83.583V81.4722C19.3663 81.4486 19.3678 81.425 19.3706 81.4016H19.3732V81.3847C19.3776 81.3571 19.384 81.3298 19.3924 81.3032C19.3952 81.2937 19.3987 81.2846 19.4021 81.2746C19.4124 81.2475 19.4247 81.2212 19.439 81.1959H19.4416V81.1919C19.4444 81.1866 19.4475 81.1814 19.451 81.1765C19.4573 81.1665 19.4636 81.157 19.4702 81.1479C19.4822 81.1308 19.4952 81.1145 19.5091 81.099L19.5179 81.0895C19.5239 81.0832 19.5299 81.0769 19.5362 81.0709L19.5457 81.0623C19.5607 81.0484 19.5766 81.0355 19.5931 81.0235H19.5997V81.022C19.6245 81.0039 19.6507 80.988 19.6781 80.9743C19.7107 80.9578 19.7449 80.9448 19.7802 80.9354H19.7862V80.9336C19.7979 80.9302 19.8099 80.9279 19.8222 80.9253H19.8257C19.8532 80.9202 19.881 80.917 19.9089 80.9159H31.4626C31.506 80.9176 31.5491 80.9243 31.591 80.9356L31.6196 80.9442H31.6225C31.645 80.952 31.6671 80.961 31.6885 80.9714V80.9737H31.6928C31.698 80.9763 31.7031 80.9788 31.708 80.9817V80.9837H31.7114C31.7172 80.9866 31.7223 80.9897 31.7277 80.9928C31.7516 81.0069 31.7744 81.0228 31.7958 81.0403V81.042H31.7978L31.8055 81.0486V81.0518H31.8092C31.8329 81.0721 31.8547 81.0945 31.8745 81.1187V81.1207H31.8762C31.8937 81.1419 31.9095 81.1643 31.9237 81.1879V81.1896C31.9268 81.1948 31.9297 81.1999 31.9325 81.2051V81.2094H31.9348C31.9455 81.2278 31.955 81.2469 31.9634 81.2666C31.9668 81.2746 31.97 81.2832 31.9728 81.2912V81.296H31.9746C31.9774 81.3046 31.9803 81.3138 31.9826 81.3226V81.3255C31.9927 81.3616 31.999 81.3987 32.0015 81.4362V81.4536C32.0015 81.4605 32.0015 81.4676 32.0015 81.4748V83.5856C32.0015 83.5928 32.0015 83.6002 32.0015 83.6073V83.6242C31.9988 83.6618 31.9925 83.6991 31.9826 83.7355V83.7378C31.98 83.7466 31.9771 83.7561 31.9743 83.7649H31.9728V83.7689C31.97 83.7775 31.9666 83.7861 31.9634 83.7944C31.958 83.8075 31.9523 83.8207 31.946 83.8333H31.9437V83.8376C31.9411 83.843 31.9385 83.8479 31.9357 83.8527H31.9337V83.8565C31.9308 83.8619 31.9277 83.8673 31.9245 83.8725C31.9102 83.8963 31.8941 83.9191 31.8765 83.9405C31.8742 83.9434 31.8718 83.9462 31.8693 83.9488H31.8667V83.9523C31.8489 83.9725 31.8298 83.9916 31.8095 84.0095H31.8064V84.0121L31.7978 84.0192C31.771 84.0409 31.7423 84.06 31.712 84.0764H31.7094L31.6931 84.0853H31.69V84.087L31.6722 84.095H31.6697C31.6539 84.1021 31.6379 84.1082 31.6216 84.1139C31.5974 84.1218 31.5726 84.1281 31.5475 84.1328H31.543C31.5102 84.1389 31.477 84.1419 31.4437 84.1419H19.9298C19.8952 84.1419 19.8607 84.1386 19.8268 84.1319" fill="#6C8AC5"/>
<path fill-rule="evenodd" clip-rule="evenodd" d="M20.1353 84.7858H31.2373C31.4409 84.7865 31.6359 84.8677 31.7798 85.0117C31.9237 85.1557 32.0048 85.3508 32.0053 85.5544V91.8427C32.0048 92.0463 31.9237 92.2413 31.7798 92.3853C31.6359 92.5292 31.4409 92.6104 31.2373 92.611H20.1353C19.9317 92.6104 19.7367 92.5292 19.5928 92.3853C19.4489 92.2413 19.3678 92.0463 19.3673 91.8427V85.5544C19.3678 85.3508 19.4489 85.1557 19.5928 85.0117C19.7367 84.8677 19.9317 84.7865 20.1353 84.7858Z" fill="#4CB5FF"/>
<path d="M31.2287 84.1227H20.1441V84.8672H31.2287V84.1227Z" fill="#3A9DE5"/>
<path fill-rule="evenodd" clip-rule="evenodd" d="M20.1353 84.7858H30.0678C30.2714 84.7865 30.4664 84.8677 30.6103 85.0117C30.7542 85.1557 30.8352 85.3508 30.8358 85.5544V91.8427C30.8352 92.0463 30.7542 92.2413 30.6103 92.3853C30.4664 92.5292 30.2713 92.6104 30.0678 92.611H20.1353C19.9317 92.6104 19.7367 92.5292 19.5928 92.3853C19.4489 92.2413 19.3678 92.0463 19.3673 91.8427V85.5544C19.3678 85.3508 19.4489 85.1557 19.5928 85.0117C19.7367 84.8677 19.9317 84.7865 20.1353 84.7858Z" fill="#83C9FF"/>
<path d="M27.9377 86.1829H19.2611V91.2145H27.9377V86.1829Z" fill="#E8EFFF"/>
<path fill-rule="evenodd" clip-rule="evenodd" d="M21.3379 81.4166C21.4003 81.4167 21.4601 81.4416 21.5042 81.4857C21.5484 81.5298 21.5733 81.5896 21.5735 81.652V82.9451C21.5735 83.0076 21.5487 83.0675 21.5045 83.1117C21.4603 83.1559 21.4004 83.1807 21.3379 83.1807C21.2754 83.1807 21.2154 83.1559 21.1712 83.1117C21.127 83.0675 21.1022 83.0076 21.1022 82.9451V81.6531C21.1024 81.5907 21.1273 81.5309 21.1715 81.4868C21.2156 81.4427 21.2755 81.4179 21.3379 81.4177M22.3853 81.4177C22.4477 81.418 22.5074 81.4428 22.5516 81.4869C22.5957 81.531 22.6206 81.5907 22.6209 81.6531V82.9451C22.622 82.9767 22.6168 83.0083 22.6054 83.0379C22.5941 83.0674 22.5769 83.0944 22.5549 83.1172C22.5328 83.14 22.5065 83.1581 22.4773 83.1705C22.4482 83.1829 22.4168 83.1892 22.3851 83.1892C22.3534 83.1892 22.3221 83.1829 22.2929 83.1705C22.2638 83.1581 22.2374 83.14 22.2154 83.1172C22.1934 83.0944 22.1762 83.0674 22.1648 83.0379C22.1535 83.0083 22.1482 82.9767 22.1493 82.9451V81.6531C22.1493 81.5905 22.1741 81.5304 22.2184 81.4861C22.2626 81.4417 22.3226 81.4167 22.3853 81.4166V81.4177ZM22.385 81.4166C22.4474 81.4167 22.5073 81.4416 22.5515 81.4857C22.5957 81.5298 22.6206 81.5895 22.6209 81.652V82.9451C22.622 82.9767 22.6168 83.0083 22.6054 83.0379C22.5941 83.0674 22.5769 83.0944 22.5549 83.1172C22.5328 83.14 22.5065 83.1581 22.4773 83.1705C22.4482 83.1829 22.4168 83.1892 22.3851 83.1892C22.3534 83.1892 22.3221 83.1829 22.2929 83.1705C22.2638 83.1581 22.2374 83.14 22.2154 83.1172C22.1934 83.0944 22.1762 83.0674 22.1648 83.0379C22.1535 83.0083 22.1482 82.9767 22.1493 82.9451V81.6531C22.1179 81.4831 22.1554 81.3076 22.2534 81.1652C22.3515 81.0227 22.5021 80.9251 22.6721 80.8938C22.8422 80.8624 23.0177 80.8998 23.1601 80.9979C23.3025 81.0959 23.4001 81.2466 23.4315 81.4166H22.385ZM23.4324 81.4166C23.4948 81.4167 23.5547 81.4416 23.5989 81.4857C23.6431 81.5298 23.668 81.5895 23.6683 81.652V82.9451C23.6694 82.9767 23.6642 83.0083 23.6528 83.0379C23.6414 83.0674 23.6243 83.0944 23.6022 83.1172C23.5802 83.14 23.5539 83.1581 23.5247 83.1705C23.4956 83.1829 23.4642 83.1892 23.4325 83.1892C23.4008 83.1892 23.3695 83.1829 23.3403 83.1705C23.3112 83.1581 23.2848 83.14 23.2628 83.1172C23.2408 83.0944 23.2236 83.0674 23.2122 83.0379C23.2009 83.0083 23.1956 82.9767 23.1967 82.9451V81.6531C23.1653 81.483 23.2028 81.3073 23.301 81.1648C23.3991 81.0224 23.5498 80.9247 23.72 80.8933C23.8901 80.862 24.0658 80.8995 24.2082 80.9976C24.3507 81.0957 24.4484 81.2464 24.4798 81.4166H23.4324ZM24.4801 81.4166C24.5425 81.4167 24.6023 81.4416 24.6464 81.4857C24.6906 81.5298 24.7155 81.5896 24.7157 81.652V82.9451C24.7168 82.9767 24.7116 83.0083 24.7002 83.0379C24.6888 83.0674 24.6717 83.0944 24.6496 83.1172C24.6276 83.14 24.6013 83.1581 24.5721 83.1705C24.5429 83.1829 24.5116 83.1892 24.4799 83.1892C24.4482 83.1892 24.4169 83.1829 24.3877 83.1705C24.3586 83.1581 24.3322 83.14 24.3102 83.1172C24.2882 83.0944 24.271 83.0674 24.2596 83.0379C24.2483 83.0083 24.243 82.9767 24.2441 82.9451V81.6531C24.2286 81.5689 24.2298 81.4824 24.2477 81.3986C24.2656 81.3148 24.2998 81.2353 24.3484 81.1648C24.397 81.0942 24.459 81.0339 24.5309 80.9873C24.6029 80.9407 24.6832 80.9087 24.7675 80.8932C24.8518 80.8776 24.9383 80.8789 25.0221 80.8968C25.1059 80.9147 25.1853 80.9489 25.2559 80.9975C25.3264 81.0461 25.3868 81.1081 25.4333 81.18C25.4799 81.2519 25.5119 81.3323 25.5275 81.4166H24.4801ZM25.5272 81.4166C25.5896 81.4167 25.6494 81.4416 25.6936 81.4857C25.7377 81.5298 25.7626 81.5896 25.7628 81.652V82.9451C25.7628 83.0076 25.738 83.0675 25.6938 83.1117C25.6496 83.1559 25.5897 83.1807 25.5272 83.1807C25.4647 83.1807 25.4047 83.1559 25.3605 83.1117C25.3163 83.0675 25.2915 83.0076 25.2915 82.9451V81.6531C25.2601 81.483 25.2976 81.3073 25.3958 81.1648C25.4939 81.0224 25.6446 80.9247 25.8148 80.8933C25.9849 80.862 26.1605 80.8995 26.303 80.9976C26.4455 81.0957 26.5432 81.2464 26.5746 81.4166H25.5272ZM26.5746 81.4166C26.637 81.4167 26.6968 81.4416 26.7409 81.4857C26.7851 81.5298 26.81 81.5896 26.8102 81.652V82.9451C26.8102 83.0076 26.7854 83.0675 26.7412 83.1117C26.697 83.1559 26.6371 83.1807 26.5746 83.1807C26.5121 83.1807 26.4521 83.1559 26.4079 83.1117C26.3637 83.0675 26.3389 83.0076 26.3389 82.9451V81.6531C26.3075 81.483 26.345 81.3073 26.4432 81.1648C26.5413 81.0224 26.692 80.9247 26.8622 80.8933C27.0323 80.862 27.2079 80.8995 27.3504 80.9976C27.4929 81.0957 27.5906 81.2464 27.622 81.4166H26.5746ZM27.622 81.4166C27.6844 81.4167 27.7442 81.4416 27.7883 81.4857C27.8325 81.5298 27.8574 81.5896 27.8576 81.652V82.9451C27.8576 83.0076 27.8328 83.0675 27.7886 83.1117C27.7444 83.1559 27.6845 83.1807 27.622 83.1807C27.5595 83.1807 27.4995 83.1559 27.4553 83.1117C27.4111 83.0675 27.3863 83.0076 27.3863 82.9451V81.6531C27.3549 81.483 27.3924 81.3073 27.4906 81.1648C27.5887 81.0224 27.7394 80.9247 27.9096 80.8933C28.0797 80.862 28.2553 80.8995 28.3978 80.9976C28.5403 81.0957 28.638 81.2464 28.6694 81.4166H27.622ZM28.6694 81.4166C28.7318 81.4167 28.7916 81.4416 28.8357 81.4857C28.8799 81.5298 28.9048 81.5896 28.905 81.652V82.9451C28.905 83.0076 28.8802 83.0675 28.836 83.1117C28.7918 83.1559 28.7319 83.1807 28.6694 83.1807C28.6069 83.1807 28.5469 83.1559 28.5027 83.1117C28.4585 83.0675 28.4337 83.0076 28.4337 82.9451V81.6531C28.4023 81.483 28.4398 81.3073 28.538 81.1648C28.6361 81.0224 28.7868 80.9247 28.9569 80.8933C29.1271 80.862 29.3027 80.8995 29.4452 80.9976C29.5877 81.0957 29.6854 81.2464 29.7168 81.4166H28.6694ZM19.2431 81.4166C19.3055 81.4167 19.3653 81.4416 19.4095 81.4857C19.4536 81.5298 19.4785 81.5896 19.4788 81.652V82.9451C19.4788 83.0076 19.4539 83.0675 19.4097 83.1117C19.3655 83.1559 19.3056 83.1807 19.2431 83.1807C19.1806 83.1807 19.1206 83.1559 19.0764 83.1117C19.0322 83.0675 19.0074 83.0076 19.0074 82.9451V81.6531C18.976 81.483 19.0135 81.3073 19.1117 81.1648C19.2098 81.0224 19.3605 80.9247 19.5307 80.8933C19.7008 80.862 19.8764 80.8995 20.0189 80.9976C20.1614 81.0957 20.2591 81.2464 20.2905 81.4166H19.2431Z" fill="#5074B0"/>
<path fill-rule="evenodd" clip-rule="evenodd" d="M20.9724 85.3447C21.1228 85.3452 21.2669 85.4052 21.3731 85.5116C21.4794 85.6179 21.5392 85.762 21.5396 85.9124V89.8569C21.5413 89.9325 21.5279 90.0076 21.5002 90.0779C21.4724 90.1482 21.4309 90.2123 21.378 90.2663C21.3252 90.3204 21.2621 90.3633 21.1924 90.3927C21.1227 90.422 21.0479 90.4371 20.9723 90.4371C20.8967 90.4371 20.8219 90.422 20.7522 90.3927C20.6825 90.3633 20.6194 90.3204 20.5666 90.2663C20.5137 90.2123 20.4722 90.1482 20.4445 90.0779C20.4167 90.0076 20.4033 89.9325 20.405 89.8569V85.9124C20.4054 85.762 20.4653 85.6179 20.5716 85.5115C20.6779 85.4051 20.822 85.3451 20.9724 85.3447Z" fill="white"/>
<path fill-rule="evenodd" clip-rule="evenodd" d="M20.9726 85.3447C21.123 85.3452 21.267 85.4052 21.3733 85.5116C21.4795 85.6179 21.5394 85.762 21.5398 85.9124V86.1824H20.4048V85.9124C20.4052 85.762 20.4652 85.6178 20.5716 85.5114C20.6779 85.405 20.8221 85.345 20.9726 85.3447Z" fill="#BCE1FF"/>
<path d="M30.3564 91.67C30.3564 92.2351 29.9274 92.6928 29.3963 92.6928H25.6131C25.0826 92.6928 24.653 92.2351 24.653 91.67C24.653 91.1048 25.082 90.648 25.6131 90.648H29.3963C29.9263 90.648 30.3564 91.1056 30.3564 91.67Z" fill="#F9CD55"/>
<path d="M30.3571 91.67C30.3571 91.1054 29.928 90.648 29.3969 90.648H27.5198V92.6928H29.3969C29.9269 92.6928 30.3571 92.2351 30.3571 91.67Z" fill="#F44D11"/>
<path d="M25.6125 92.6929H27.5189V91.6781H24.653C24.6567 92.2393 25.0848 92.6929 25.6125 92.6929Z" fill="#F9CD55"/>
<path d="M29.3957 92.6929C29.9237 92.6929 30.3516 92.2393 30.3559 91.6781H27.5189V92.6929H29.3957Z" fill="#F44D11"/>
<path fill-rule="evenodd" clip-rule="evenodd" d="M27.5198 90.9712H29.483C29.6352 90.9712 29.7596 91.1033 29.7596 91.2652C29.7596 91.4271 29.6352 91.5593 29.483 91.5593H27.5198V90.9712Z" fill="#FFA484"/>
<path fill-rule="evenodd" clip-rule="evenodd" d="M26.7169 90.9712H27.5177V91.5593H26.7169C26.5644 91.5593 26.4403 91.4271 26.4403 91.2652C26.4403 91.1033 26.5644 90.9712 26.7169 90.9712Z" fill="#FFEBBC"/>
<path d="M27.0533 88.5315C27.3833 88.9745 27.3141 89.6166 26.8994 89.9681L23.9374 92.4731C23.5221 92.8246 22.918 92.7514 22.588 92.3083C22.2579 91.8653 22.3271 91.2238 22.7424 90.8725L25.7041 88.3676C26.1194 88.0161 26.7232 88.0896 27.0533 88.5315Z" fill="#F9CD55"/>
<path d="M27.053 88.5312C26.723 88.0893 26.1192 88.0164 25.7039 88.3674L24.2329 89.6101L25.4282 91.2118L26.898 89.9688C27.3127 89.6172 27.382 88.9751 27.0519 88.5321" fill="#F44D11"/>
<path d="M23.9364 92.4735L25.4288 91.2119L24.8356 90.417L22.5918 92.315C22.923 92.7521 23.5231 92.8239 23.9361 92.4743" fill="#F9CD55"/>
<path d="M26.8983 89.9676C27.3116 89.6175 27.3814 88.9788 27.0567 88.5375L24.8355 90.4158L25.4287 91.2106L26.8983 89.9676Z" fill="#F44D11"/>
<path fill-rule="evenodd" clip-rule="evenodd" d="M24.4229 89.8628L25.96 88.5631C25.9879 88.539 26.0205 88.5209 26.0557 88.5101C26.091 88.4993 26.1281 88.4959 26.1647 88.5002C26.2013 88.5045 26.2366 88.5164 26.2684 88.5351C26.3002 88.5538 26.3277 88.5789 26.3492 88.6089C26.3947 88.671 26.4153 88.7478 26.4071 88.8243C26.3988 88.9008 26.3623 88.9715 26.3046 89.0225L24.7667 90.325L24.4229 89.8628Z" fill="#FFA484"/>
<path fill-rule="evenodd" clip-rule="evenodd" d="M23.7939 90.3934L24.4217 89.8629L24.7649 90.3242L24.1374 90.8551C24.1093 90.8789 24.0766 90.8966 24.0414 90.9071C24.0061 90.9176 23.969 90.9207 23.9325 90.9162C23.896 90.9117 23.8608 90.8997 23.8292 90.8809C23.7975 90.8621 23.7701 90.8369 23.7487 90.807C23.7032 90.7449 23.6825 90.6681 23.6907 90.5916C23.6989 90.5151 23.7354 90.4444 23.793 90.3934" fill="#FFEBBC"/>
<path d="M62.8349 91.8581C62.8349 92.423 62.4059 92.8803 61.8748 92.8803H58.0916C57.5614 92.8803 57.1315 92.4227 57.1315 91.8581C57.1315 91.2935 57.5605 90.8362 58.0916 90.8362H61.8748C62.4051 90.8362 62.8349 91.2938 62.8349 91.8581Z" fill="#F9CD55"/>
<path d="M62.8353 91.8581C62.8353 91.2935 62.4063 90.8362 61.8751 90.8362H59.9983V92.8803H61.8751C62.4054 92.8803 62.8353 92.4227 62.8353 91.8581Z" fill="#F44D11"/>
<path d="M61.8751 92.8808C62.4031 92.8808 62.831 92.4274 62.8353 91.8663H59.9983V92.8808H61.8751Z" fill="#F44D11"/>
<path fill-rule="evenodd" clip-rule="evenodd" d="M59.9983 91.1593H61.9615C62.1137 91.1593 62.2381 91.2918 62.2381 91.4531C62.2381 91.6144 62.1137 91.7477 61.9615 91.7477H59.9983V91.1593Z" fill="#FFA484"/>
<path fill-rule="evenodd" clip-rule="evenodd" d="M59.1973 91.1593H59.9981V91.7477H59.1973C59.0451 91.7477 58.9207 91.6153 58.9207 91.4531C58.9207 91.2909 59.0451 91.1593 59.1973 91.1593Z" fill="#FFEBBC"/>
<path fill-rule="evenodd" clip-rule="evenodd" d="M48.2038 51.741H51.525C51.5847 51.741 51.642 51.7647 51.6842 51.8069C51.7264 51.8491 51.7501 51.9064 51.7501 51.9661C51.7501 52.0258 51.7264 52.083 51.6842 52.1253C51.642 52.1675 51.5847 52.1912 51.525 52.1912H48.2038C48.1441 52.1912 48.0868 52.1675 48.0446 52.1253C48.0024 52.083 47.9787 52.0258 47.9787 51.9661C47.9787 51.9064 48.0024 51.8491 48.0446 51.8069C48.0868 51.7647 48.1441 51.741 48.2038 51.741Z" fill="white"/>
<path fill-rule="evenodd" clip-rule="evenodd" d="M19.9509 92.956H89.0928C89.2512 92.956 89.3803 93.0727 89.3803 93.2154C89.3803 93.3581 89.2509 93.4744 89.0928 93.4744H19.9509C19.7926 93.4744 19.6635 93.3577 19.6635 93.2154C19.6635 93.0732 19.7941 92.956 19.9509 92.956Z" fill="#EC6632"/>
<path fill-rule="evenodd" clip-rule="evenodd" d="M31.0943 69.5653H40.411C40.47 69.567 40.5272 69.5452 40.5701 69.5047C40.613 69.4642 40.6381 69.4083 40.6398 69.3494V68.886C40.6381 68.827 40.613 68.7712 40.5701 68.7307C40.5272 68.6902 40.47 68.6684 40.411 68.6701H31.0943C31.0356 68.6688 30.9787 68.6907 30.9362 68.7312C30.8936 68.7717 30.8688 68.8273 30.8672 68.886V69.3494C30.8688 69.408 30.8936 69.4637 30.9362 69.5042C30.9787 69.5446 31.0356 69.5666 31.0943 69.5653Z" fill="#E3ECFF"/>
<path fill-rule="evenodd" clip-rule="evenodd" d="M38.2511 80.1075H45.8614C46.0767 80.1081 46.283 80.194 46.4353 80.3462C46.5875 80.4984 46.6733 80.7047 46.674 80.92V91.7981C46.6733 92.0134 46.5874 92.2196 46.4352 92.3718C46.2829 92.524 46.0767 92.6097 45.8614 92.6104H38.2511C38.0359 92.6097 37.8298 92.5238 37.6777 92.3717C37.5255 92.2195 37.4398 92.0133 37.4391 91.7981V80.92C37.4397 80.7048 37.5254 80.4986 37.6775 80.3463C37.8297 80.1941 38.0359 80.1082 38.2511 80.1075Z" fill="#B1D2FC"/>
<path d="M41.7232 82.8057C41.7232 83.1333 41.6262 83.4536 41.4442 83.726C41.2622 83.9984 41.0036 84.2107 40.701 84.3362C40.3983 84.4616 40.0653 84.4944 39.744 84.4306C39.4227 84.3667 39.1275 84.209 38.8959 83.9774C38.6642 83.7458 38.5064 83.4507 38.4424 83.1294C38.3784 82.8081 38.4112 82.4751 38.5365 82.1724C38.6618 81.8698 38.8741 81.611 39.1464 81.429C39.4188 81.2469 39.739 81.1497 40.0666 81.1497C40.5058 81.1497 40.9271 81.3241 41.2378 81.6347C41.5484 81.9453 41.723 82.3665 41.7232 82.8057Z" fill="#CBE2E7"/>
<path d="M41.5018 82.805C41.5017 83.0889 41.4175 83.3663 41.2597 83.6023C41.102 83.8383 40.8778 84.0222 40.6156 84.1308C40.3533 84.2394 40.0647 84.2678 39.7863 84.2124C39.508 84.1569 39.2522 84.0202 39.0516 83.8195C38.8509 83.6188 38.7142 83.363 38.6588 83.0846C38.6035 82.8062 38.6319 82.5177 38.7406 82.2554C38.8492 81.9932 39.0332 81.769 39.2692 81.6114C39.5052 81.4537 39.7827 81.3695 40.0665 81.3695C40.4472 81.3696 40.8123 81.5208 41.0814 81.79C41.3506 82.0593 41.5018 82.4243 41.5018 82.805Z" fill="white"/>
<path d="M39.0822 83.9915L39.0616 83.9786L39.0725 83.8608L39.1065 83.783L40.8652 81.7019L40.9359 81.6544L41.0523 81.6247L41.0671 81.643L39.0822 83.9915Z" fill="#9FC1D1"/>
<path d="M45.518 82.8057C45.518 83.1333 45.4209 83.4534 45.2389 83.7258C45.057 83.9981 44.7983 84.2104 44.4957 84.3357C44.1931 84.4611 43.8601 84.4939 43.5389 84.43C43.2177 84.3661 42.9226 84.2083 42.691 83.9767C42.4594 83.7451 42.3017 83.4501 42.2378 83.1288C42.1739 82.8076 42.2066 82.4746 42.332 82.172C42.4573 81.8694 42.6696 81.6108 42.9419 81.4288C43.2143 81.2468 43.5344 81.1497 43.862 81.1497C44.3012 81.1497 44.7224 81.3242 45.033 81.6347C45.3435 81.9453 45.518 82.3665 45.518 82.8057Z" fill="#CBE2E7"/>
<path d="M45.2968 82.805C45.2968 83.0889 45.2126 83.3665 45.0549 83.6025C44.8972 83.8386 44.673 84.0226 44.4107 84.1313C44.1483 84.2399 43.8597 84.2683 43.5812 84.213C43.3028 84.1576 43.047 84.0208 42.8462 83.8201C42.6455 83.6193 42.5088 83.3635 42.4534 83.0851C42.398 82.8066 42.4264 82.518 42.5351 82.2557C42.6437 81.9934 42.8277 81.7692 43.0638 81.6114C43.2998 81.4537 43.5774 81.3695 43.8613 81.3695C44.242 81.3696 44.6071 81.5208 44.8763 81.79C45.1455 82.0592 45.2968 82.4243 45.2968 82.805Z" fill="white"/>
<path d="M42.8785 83.9915L42.8579 83.9786L42.8685 83.8608L42.9028 83.783L44.6615 81.7019L44.7322 81.6544L44.8483 81.6247L44.8635 81.643L42.8785 83.9915Z" fill="#9FC1D1"/>
<path d="M41.7232 86.5759C41.7231 86.9035 41.6258 87.2236 41.4438 87.4959C41.2617 87.7682 41.003 87.9804 40.7004 88.1057C40.3977 88.231 40.0647 88.2638 39.7435 88.1998C39.4222 88.1359 39.1271 87.9781 38.8955 87.7464C38.664 87.5148 38.5062 87.2197 38.4423 86.8984C38.3784 86.5772 38.4112 86.2442 38.5366 85.9416C38.6619 85.6389 38.8742 85.3803 39.1465 85.1983C39.4188 85.0163 39.739 84.9191 40.0666 84.919C40.5058 84.919 40.9271 85.0935 41.2378 85.404C41.5484 85.7146 41.723 86.1358 41.7232 86.5751" fill="#CBE2E7"/>
<path d="M41.7232 90.3466C41.7232 90.6741 41.626 90.9944 41.4441 91.2667C41.2621 91.5391 41.0034 91.7514 40.7008 91.8768C40.3981 92.0022 40.0651 92.035 39.7438 91.9711C39.4225 91.9072 39.1274 91.7495 38.8958 91.5179C38.6641 91.2862 38.5063 90.9911 38.4424 90.6699C38.3784 90.3486 38.4112 90.0156 38.5365 89.7129C38.6618 89.4102 38.8741 89.1515 39.1464 88.9695C39.4188 88.7875 39.739 88.6903 40.0666 88.6902C40.5059 88.6902 40.9272 88.8647 41.2379 89.1753C41.5485 89.486 41.7231 89.9072 41.7232 90.3466Z" fill="#CBE2E7"/>
<path d="M41.5018 86.5762C41.5017 86.8601 41.4175 87.1375 41.2597 87.3735C41.102 87.6095 40.8778 87.7934 40.6156 87.902C40.3533 88.0106 40.0647 88.039 39.7863 87.9836C39.508 87.9282 39.2522 87.7914 39.0516 87.5907C38.8509 87.39 38.7142 87.1342 38.6588 86.8558C38.6035 86.5774 38.6319 86.2889 38.7406 86.0266C38.8492 85.7644 39.0332 85.5403 39.2692 85.3826C39.5052 85.2249 39.7827 85.1407 40.0665 85.1407C40.4472 85.1408 40.8123 85.2921 41.0814 85.5613C41.3506 85.8305 41.5018 86.1956 41.5018 86.5762Z" fill="white"/>
<path d="M41.5018 90.3458C41.5016 90.6297 41.4174 90.9071 41.2596 91.1431C41.1018 91.379 40.8776 91.5629 40.6154 91.6714C40.3531 91.78 40.0645 91.8083 39.7862 91.7529C39.5078 91.6974 39.2521 91.5607 39.0515 91.3599C38.8508 91.1592 38.7142 90.9035 38.6588 90.6251C38.6035 90.3467 38.6319 90.0581 38.7406 89.7959C38.8492 89.5337 39.0332 89.3096 39.2692 89.1519C39.5052 88.9942 39.7827 88.91 40.0665 88.91C40.255 88.9101 40.4417 88.9472 40.6159 89.0194C40.79 89.0916 40.9482 89.1974 41.0815 89.3307C41.2148 89.464 41.3205 89.6223 41.3926 89.7965C41.4647 89.9706 41.5018 90.1573 41.5018 90.3458Z" fill="white"/>
<path d="M39.0822 87.762L39.0616 87.7489L39.0725 87.631L39.1065 87.5535L40.8652 85.4725L40.9359 85.4247L41.0523 85.395L41.0671 85.4133L39.0822 87.762Z" fill="#9FC1D1"/>
<path d="M39.0822 91.532L39.0616 91.5189L39.0725 91.4013L39.1065 91.3238L40.8652 89.2428L40.9359 89.195L41.0523 89.1652L41.0671 89.1835L39.0822 91.532Z" fill="#9FC1D1"/>
<path d="M45.518 86.576C45.518 86.9035 45.4209 87.2237 45.2389 87.496C45.057 87.7684 44.7983 87.9806 44.4957 88.106C44.1931 88.2313 43.8601 88.2641 43.5389 88.2002C43.2177 88.1363 42.9226 87.9786 42.691 87.747C42.4594 87.5154 42.3017 87.2203 42.2378 86.8991C42.1739 86.5778 42.2066 86.2449 42.332 85.9423C42.4573 85.6397 42.6696 85.381 42.9419 85.199C43.2143 85.0171 43.5344 84.92 43.862 84.92C44.3012 84.92 44.7224 85.0944 45.033 85.405C45.3435 85.7156 45.518 86.1368 45.518 86.576Z" fill="#CBE2E7"/>
<path d="M45.518 90.3466C45.518 90.6741 45.4208 90.9942 45.2388 91.2665C45.0568 91.5388 44.7981 91.751 44.4955 91.8763C44.1929 92.0016 43.8599 92.0344 43.5387 91.9705C43.2175 91.9065 42.9224 91.7488 42.6909 91.5172C42.4593 91.2856 42.3016 90.9905 42.2377 90.6692C42.1739 90.348 42.2067 90.0151 42.332 89.7125C42.4574 89.4099 42.6696 89.1513 42.942 88.9693C43.2143 88.7873 43.5345 88.6902 43.862 88.6902C44.0795 88.6902 44.2948 88.7331 44.4958 88.8163C44.6967 88.8996 44.8793 89.0216 45.0331 89.1754C45.1869 89.3292 45.3088 89.5118 45.392 89.7127C45.4752 89.9137 45.5181 90.1291 45.518 90.3466Z" fill="#CBE2E7"/>
<path d="M45.2968 86.5762C45.2968 86.8601 45.2126 87.1377 45.0549 87.3738C44.8972 87.6098 44.673 87.7938 44.4107 87.9025C44.1483 88.0111 43.8597 88.0396 43.5812 87.9842C43.3028 87.9288 43.047 87.7921 42.8462 87.5913C42.6455 87.3905 42.5088 87.1347 42.4534 86.8563C42.398 86.5778 42.4264 86.2892 42.5351 86.0269C42.6437 85.7646 42.8277 85.5404 43.0638 85.3826C43.2998 85.2249 43.5774 85.1407 43.8613 85.1407C44.0498 85.1407 44.2365 85.1778 44.4107 85.25C44.5848 85.3221 44.7431 85.4279 44.8764 85.5612C45.0097 85.6945 45.1154 85.8527 45.1876 86.0269C45.2597 86.201 45.2968 86.3877 45.2968 86.5762Z" fill="white"/>
<path d="M45.2968 90.3458C45.2968 90.6297 45.2125 90.9073 45.0548 91.1433C44.897 91.3793 44.6728 91.5633 44.4105 91.6719C44.1481 91.7805 43.8595 91.8089 43.5811 91.7535C43.3026 91.698 43.0469 91.5613 42.8461 91.3605C42.6454 91.1598 42.5087 90.904 42.4533 90.6255C42.398 90.3471 42.4264 90.0584 42.5351 89.7961C42.6437 89.5338 42.8277 89.3097 43.0638 89.1519C43.2999 88.9942 43.5774 88.91 43.8613 88.91C44.0498 88.91 44.2365 88.9472 44.4107 89.0193C44.5849 89.0915 44.7432 89.1973 44.8765 89.3306C45.0098 89.4639 45.1155 89.6222 45.1876 89.7964C45.2598 89.9706 45.2969 90.1573 45.2968 90.3458Z" fill="white"/>
<path d="M42.8785 87.762L42.8579 87.7489L42.8685 87.631L42.9028 87.5535L44.6615 85.4725L44.7322 85.4247L44.8483 85.395L44.8635 85.4133L42.8785 87.762Z" fill="#9FC1D1"/>
<path d="M42.8785 91.532L42.8579 91.5189L42.8685 91.4013L42.9028 91.3238L44.6615 89.2428L44.7322 89.195L44.8483 89.1652L44.8635 89.1835L42.8785 91.532Z" fill="#9FC1D1"/>
</svg>
