<svg width="40" height="40" viewBox="0 0 40 40" fill="none" xmlns="http://www.w3.org/2000/svg">
<circle cx="20" cy="20" r="20" fill="#DEEAFD"/>
<path d="M22.2668 12.8236L22.2668 12.8235C22.0377 12.4284 21.7092 12.0999 21.3141 11.8709L21.2389 12.0006L21.3141 11.8709C20.0622 11.1451 18.4589 11.5716 17.7331 12.8235L17.7331 12.8236L10.9419 24.5496C10.7107 24.9489 10.5889 25.4021 10.5889 25.8635C10.5892 27.3106 11.7625 28.4835 13.2096 28.4833H26.7878C26.7879 28.4833 26.7879 28.4833 26.7879 28.4833C27.2496 28.4834 27.7032 28.3616 28.1028 28.1301C29.3557 27.4043 29.783 25.8002 29.0572 24.5472L22.2668 12.8236Z" fill="#3079EC" stroke="#3079EC" stroke-width="0.3"/>
<path d="M19.4334 21.2505L19.4334 21.2506L20.4167 21.25H20.5667V21.2499V17.9167C20.5667 17.6037 20.313 17.35 20.0001 17.35C19.6871 17.35 19.4334 17.6037 19.4334 17.9167L19.4334 21.2505ZM20.0001 23.0792C19.6296 23.0792 19.3292 23.3795 19.3292 23.75C19.3292 24.1205 19.6296 24.4208 20.0001 24.4208C20.3706 24.4208 20.6709 24.1205 20.6709 23.75C20.6709 23.3795 20.3706 23.0792 20.0001 23.0792Z" fill="white" stroke="white" stroke-width="0.3"/>
</svg>
